SplineFontDB: 3.2
FontName: PixeliteTTF
FullName: Pixelite
FamilyName: PixeliteTTF
Weight: Book
Copyright: 
Version: 1.0
ItalicAngle: 0
UnderlinePosition: -100
UnderlineWidth: 50
Ascent: 0
Descent: 1000
InvalidEm: 0
sfntRevision: 0x00010000
LayerCount: 2
Layer: 0 1 "Back" 1
Layer: 1 1 "Fore" 0
XUID: [1021 105 604269675 27820]
StyleMap: 0x0000
FSType: 0
OS2Version: 4
OS2_WeightWidthSlopeOnly: 0
OS2_UseTypoMetrics: 1
CreationTime: 1578786997
ModificationTime: 1578789991
PfmFamily: 17
TTFWeight: 400
TTFWidth: 5
LineGap: 90
VLineGap: 0
Panose: 2 0 5 3 0 0 0 0 0 0
OS2TypoAscent: 0
OS2TypoAOffset: 0
OS2TypoDescent: -1000
OS2TypoDOffset: 0
OS2TypoLinegap: 90
OS2WinAscent: 0
OS2WinAOffset: 0
OS2WinDescent: 1000
OS2WinDOffset: 0
HheadAscent: 0
HheadAOffset: 0
HheadDescent: -1000
HheadDOffset: 0
OS2SubXSize: 650
OS2SubYSize: 699
OS2SubXOff: 0
OS2SubYOff: 140
OS2SupXSize: 650
OS2SupYSize: 699
OS2SupXOff: 0
OS2SupYOff: 479
OS2StrikeYSize: 49
OS2StrikeYPos: 258
OS2Vendor: 'PfEd'
OS2CodePages: 00000001.00000000
OS2UnicodeRanges: 00000003.00000000.00000000.00000000
MarkAttachClasses: 1
DEI: 91125
ShortTable: cvt  1
  33
EndShort
ShortTable: maxp 16
  1
  0
  226
  60
  8
  0
  0
  2
  0
  1
  1
  0
  64
  46
  0
  0
EndShort
LangName: 1033 "" "" "Medium" "" "" "1.0"
GaspTable: 1 65535 2 0
Encoding: UnicodeBmp
UnicodeInterp: none
NameList: AGL For New Fonts
DisplaySize: -48
AntiAlias: 1
FitToEm: 0
WinInfo: 36 36 13
BeginPrivate: 0
EndPrivate
BeginChars: 65539 226

StartChar: .notdef
Encoding: 65536 -1 0
Width: 364
Flags: W
LayerCount: 2
Fore
SplineSet
33 0 m 1,0,-1
 33 0 l 1,1,-1
 298 0 l 1,2,-1
 298 0 l 1,3,-1
 33 0 l 1,0,-1
66 33 m 1,4,-1
 265 33 l 1,5,-1
 265 -33 l 1,6,-1
 66 -33 l 1,7,-1
 66 33 l 1,4,-1
EndSplineSet
Validated: 5
EndChar

StartChar: exclam
Encoding: 33 33 4
Width: 727
Flags: W
LayerCount: 2
Fore
SplineSet
272 -181 m 1,0,-1
 454 -181 l 1,1,-1
 454 -636 l 1,2,-1
 272 -636 l 1,3,-1
 272 -181 l 1,0,-1
272 -727 m 1,4,-1
 454 -727 l 1,5,-1
 454 -818 l 1,6,-1
 272 -818 l 1,7,-1
 272 -727 l 1,4,-1
EndSplineSet
Validated: 1
EndChar

StartChar: quotedbl
Encoding: 34 34 5
Width: 727
Flags: W
LayerCount: 2
Fore
SplineSet
90 -181 m 1,0,-1
 272 -181 l 1,1,-1
 272 -454 l 1,2,-1
 90 -454 l 1,3,-1
 90 -181 l 1,0,-1
454 -181 m 1,4,-1
 636 -181 l 1,5,-1
 636 -454 l 1,6,-1
 454 -454 l 1,7,-1
 454 -181 l 1,4,-1
EndSplineSet
Validated: 1
EndChar

StartChar: numbersign
Encoding: 35 35 6
Width: 727
Flags: W
LayerCount: 2
Fore
SplineSet
90 -363 m 1,0,-1
 181 -363 l 1,1,-1
 181 -272 l 1,2,-1
 363 -272 l 1,3,-1
 363 -363 l 1,4,-1
 454 -363 l 1,5,-1
 454 -272 l 1,6,-1
 636 -272 l 1,7,-1
 636 -363 l 1,8,-1
 727 -363 l 1,9,-1
 727 -454 l 1,10,-1
 636 -454 l 1,11,-1
 636 -636 l 1,12,-1
 727 -636 l 1,13,-1
 727 -727 l 1,14,-1
 636 -727 l 1,15,-1
 636 -818 l 1,16,-1
 454 -818 l 1,17,-1
 454 -727 l 1,18,-1
 363 -727 l 1,19,-1
 363 -818 l 1,20,-1
 181 -818 l 1,21,-1
 181 -727 l 1,22,-1
 90 -727 l 1,23,-1
 90 -636 l 1,24,-1
 181 -636 l 1,25,-1
 181 -454 l 1,26,-1
 90 -454 l 1,27,-1
 90 -363 l 1,0,-1
363 -454 m 1,28,-1
 363 -636 l 1,29,-1
 454 -636 l 1,30,-1
 454 -454 l 1,31,-1
 363 -454 l 1,28,-1
EndSplineSet
Validated: 1
EndChar

StartChar: dollar
Encoding: 36 36 7
Width: 727
Flags: W
LayerCount: 2
Fore
SplineSet
90 -363 m 1,0,-1
 181 -363 l 1,1,-1
 181 -272 l 1,2,-1
 272 -272 l 1,3,-1
 272 -181 l 1,4,-1
 454 -181 l 1,5,-1
 454 -272 l 1,6,-1
 636 -272 l 1,7,-1
 636 -363 l 1,8,-1
 272 -363 l 1,9,-1
 272 -454 l 1,10,-1
 545 -454 l 1,11,-1
 545 -545 l 1,12,-1
 636 -545 l 1,13,-1
 636 -636 l 1,14,-1
 545 -636 l 1,15,-1
 545 -727 l 1,16,-1
 454 -727 l 1,17,-1
 454 -818 l 1,18,-1
 272 -818 l 1,19,-1
 272 -727 l 1,20,-1
 90 -727 l 1,21,-1
 90 -636 l 1,22,-1
 454 -636 l 1,23,-1
 454 -545 l 1,24,-1
 181 -545 l 1,25,-1
 181 -454 l 1,26,-1
 90 -454 l 1,27,-1
 90 -363 l 1,0,-1
EndSplineSet
Validated: 1
EndChar

StartChar: percent
Encoding: 37 37 8
Width: 727
Flags: W
LayerCount: 2
Fore
SplineSet
90 -181 m 1,0,-1
 272 -181 l 1,1,-1
 272 -363 l 1,2,-1
 90 -363 l 1,3,-1
 90 -181 l 1,0,-1
90 -636 m 1,4,-1
 181 -636 l 1,5,-1
 181 -545 l 1,6,-1
 272 -545 l 1,7,-1
 272 -454 l 1,8,-1
 363 -454 l 1,9,-1
 363 -363 l 1,10,-1
 454 -363 l 1,11,-1
 454 -272 l 1,12,-1
 545 -272 l 1,13,-1
 545 -181 l 1,14,-1
 636 -181 l 1,15,-1
 636 -363 l 1,16,-1
 545 -363 l 1,17,-1
 545 -454 l 1,18,-1
 454 -454 l 1,19,-1
 454 -545 l 1,20,-1
 363 -545 l 1,21,-1
 363 -636 l 1,22,-1
 272 -636 l 1,23,-1
 272 -727 l 1,24,-1
 181 -727 l 1,25,-1
 181 -818 l 1,26,-1
 90 -818 l 1,27,-1
 90 -636 l 1,4,-1
454 -636 m 1,28,-1
 636 -636 l 1,29,-1
 636 -818 l 1,30,-1
 454 -818 l 1,31,-1
 454 -636 l 1,28,-1
EndSplineSet
Validated: 1
EndChar

StartChar: ampersand
Encoding: 38 38 9
Width: 727
Flags: W
LayerCount: 2
Fore
SplineSet
90 -272 m 1,0,-1
 181 -272 l 1,1,-1
 181 -181 l 1,2,-1
 545 -181 l 1,3,-1
 545 -272 l 1,4,-1
 636 -272 l 1,5,-1
 636 -363 l 1,6,-1
 545 -363 l 1,7,-1
 545 -454 l 1,8,-1
 454 -454 l 1,9,-1
 454 -545 l 1,10,-1
 272 -545 l 1,11,-1
 272 -727 l 1,12,-1
 454 -727 l 1,13,-1
 454 -545 l 1,14,-1
 727 -545 l 1,15,-1
 727 -636 l 1,16,-1
 636 -636 l 1,17,-1
 636 -727 l 1,18,-1
 727 -727 l 1,19,-1
 727 -818 l 1,20,-1
 181 -818 l 1,21,-1
 181 -727 l 1,22,-1
 90 -727 l 1,23,-1
 90 -545 l 1,24,-1
 181 -545 l 1,25,-1
 181 -363 l 1,26,-1
 90 -363 l 1,27,-1
 90 -272 l 1,0,-1
272 -272 m 1,28,-1
 272 -363 l 1,29,-1
 454 -363 l 1,30,-1
 454 -272 l 1,31,-1
 272 -272 l 1,28,-1
EndSplineSet
Validated: 5
EndChar

StartChar: quotesingle
Encoding: 39 39 10
Width: 727
Flags: W
LayerCount: 2
Fore
SplineSet
272 -363 m 1,0,-1
 363 -363 l 1,1,-1
 363 -272 l 1,2,-1
 454 -272 l 1,3,-1
 454 -181 l 1,4,-1
 636 -181 l 1,5,-1
 636 -272 l 1,6,-1
 545 -272 l 1,7,-1
 545 -363 l 1,8,-1
 454 -363 l 1,9,-1
 454 -454 l 1,10,-1
 272 -454 l 1,11,-1
 272 -363 l 1,0,-1
EndSplineSet
Validated: 1
EndChar

StartChar: parenleft
Encoding: 40 40 11
Width: 727
Flags: W
LayerCount: 2
Fore
SplineSet
181 -363 m 1,0,-1
 272 -363 l 1,1,-1
 272 -272 l 1,2,-1
 363 -272 l 1,3,-1
 363 -181 l 1,4,-1
 545 -181 l 1,5,-1
 545 -272 l 1,6,-1
 454 -272 l 1,7,-1
 454 -363 l 1,8,-1
 363 -363 l 1,9,-1
 363 -636 l 1,10,-1
 454 -636 l 1,11,-1
 454 -727 l 1,12,-1
 545 -727 l 1,13,-1
 545 -818 l 1,14,-1
 363 -818 l 1,15,-1
 363 -727 l 1,16,-1
 272 -727 l 1,17,-1
 272 -636 l 1,18,-1
 181 -636 l 1,19,-1
 181 -363 l 1,0,-1
EndSplineSet
Validated: 1
EndChar

StartChar: parenright
Encoding: 41 41 12
Width: 727
Flags: W
LayerCount: 2
Fore
SplineSet
272 -181 m 1,0,-1
 454 -181 l 1,1,-1
 454 -272 l 1,2,-1
 545 -272 l 1,3,-1
 545 -363 l 1,4,-1
 636 -363 l 1,5,-1
 636 -636 l 1,6,-1
 545 -636 l 1,7,-1
 545 -727 l 1,8,-1
 454 -727 l 1,9,-1
 454 -818 l 1,10,-1
 272 -818 l 1,11,-1
 272 -727 l 1,12,-1
 363 -727 l 1,13,-1
 363 -636 l 1,14,-1
 454 -636 l 1,15,-1
 454 -363 l 1,16,-1
 363 -363 l 1,17,-1
 363 -272 l 1,18,-1
 272 -272 l 1,19,-1
 272 -181 l 1,0,-1
EndSplineSet
Validated: 1
EndChar

StartChar: asterisk
Encoding: 42 42 13
Width: 727
Flags: W
LayerCount: 2
Fore
SplineSet
0 -454 m 1,0,-1
 181 -454 l 1,1,-1
 181 -363 l 1,2,-1
 90 -363 l 1,3,-1
 90 -272 l 1,4,-1
 272 -272 l 1,5,-1
 272 -363 l 1,6,-1
 454 -363 l 1,7,-1
 454 -272 l 1,8,-1
 636 -272 l 1,9,-1
 636 -363 l 1,10,-1
 545 -363 l 1,11,-1
 545 -454 l 1,12,-1
 727 -454 l 1,13,-1
 727 -545 l 1,14,-1
 545 -545 l 1,15,-1
 545 -636 l 1,16,-1
 636 -636 l 1,17,-1
 636 -727 l 1,18,-1
 454 -727 l 1,19,-1
 454 -636 l 1,20,-1
 272 -636 l 1,21,-1
 272 -727 l 1,22,-1
 90 -727 l 1,23,-1
 90 -636 l 1,24,-1
 181 -636 l 1,25,-1
 181 -545 l 1,26,-1
 0 -545 l 1,27,-1
 0 -454 l 1,0,-1
EndSplineSet
Validated: 1
EndChar

StartChar: plus
Encoding: 43 43 14
Width: 727
Flags: W
LayerCount: 2
Fore
SplineSet
90 -454 m 1,0,-1
 272 -454 l 1,1,-1
 272 -272 l 1,2,-1
 454 -272 l 1,3,-1
 454 -454 l 1,4,-1
 636 -454 l 1,5,-1
 636 -545 l 1,6,-1
 454 -545 l 1,7,-1
 454 -727 l 1,8,-1
 272 -727 l 1,9,-1
 272 -545 l 1,10,-1
 90 -545 l 1,11,-1
 90 -454 l 1,0,-1
EndSplineSet
Validated: 1
EndChar

StartChar: comma
Encoding: 44 44 15
Width: 727
Flags: W
LayerCount: 2
Fore
SplineSet
181 -818 m 1,0,-1
 272 -818 l 1,1,-1
 272 -636 l 1,2,-1
 454 -636 l 1,3,-1
 454 -818 l 1,4,-1
 363 -818 l 1,5,-1
 363 -909 l 1,6,-1
 181 -909 l 1,7,-1
 181 -818 l 1,0,-1
EndSplineSet
Validated: 1
EndChar

StartChar: hyphen
Encoding: 45 45 16
Width: 727
Flags: W
LayerCount: 2
Fore
SplineSet
90 -545 m 1,0,-1
 636 -545 l 1,1,-1
 636 -636 l 1,2,-1
 90 -636 l 1,3,-1
 90 -545 l 1,0,-1
EndSplineSet
Validated: 1
EndChar

StartChar: period
Encoding: 46 46 17
Width: 727
Flags: W
LayerCount: 2
Fore
SplineSet
272 -636 m 1,0,-1
 454 -636 l 1,1,-1
 454 -818 l 1,2,-1
 272 -818 l 1,3,-1
 272 -636 l 1,0,-1
EndSplineSet
Validated: 1
EndChar

StartChar: slash
Encoding: 47 47 18
Width: 727
Flags: W
LayerCount: 2
Fore
SplineSet
90 -727 m 1,0,-1
 181 -727 l 1,1,-1
 181 -636 l 1,2,-1
 272 -636 l 1,3,-1
 272 -545 l 1,4,-1
 363 -545 l 1,5,-1
 363 -454 l 1,6,-1
 454 -454 l 1,7,-1
 454 -363 l 1,8,-1
 545 -363 l 1,9,-1
 545 -272 l 1,10,-1
 727 -272 l 1,11,-1
 727 -363 l 1,12,-1
 636 -363 l 1,13,-1
 636 -454 l 1,14,-1
 545 -454 l 1,15,-1
 545 -545 l 1,16,-1
 454 -545 l 1,17,-1
 454 -636 l 1,18,-1
 363 -636 l 1,19,-1
 363 -727 l 1,20,-1
 272 -727 l 1,21,-1
 272 -818 l 1,22,-1
 90 -818 l 1,23,-1
 90 -727 l 1,0,-1
EndSplineSet
Validated: 1
EndChar

StartChar: zero
Encoding: 48 48 19
Width: 727
Flags: W
LayerCount: 2
Fore
SplineSet
90 -272 m 1,0,-1
 181 -272 l 1,1,-1
 181 -181 l 1,2,-1
 545 -181 l 1,3,-1
 545 -272 l 1,4,-1
 636 -272 l 1,5,-1
 636 -727 l 1,6,-1
 545 -727 l 1,7,-1
 545 -818 l 1,8,-1
 181 -818 l 1,9,-1
 181 -727 l 1,10,-1
 90 -727 l 1,11,-1
 90 -272 l 1,0,-1
272 -272 m 1,12,-1
 272 -454 l 1,13,-1
 363 -454 l 1,14,-1
 363 -363 l 1,15,-1
 454 -363 l 1,16,-1
 454 -272 l 1,17,-1
 272 -272 l 1,12,-1
272 -636 m 1,18,-1
 272 -727 l 1,19,-1
 454 -727 l 1,20,-1
 454 -545 l 1,21,-1
 363 -545 l 1,22,-1
 363 -636 l 1,23,-1
 272 -636 l 1,18,-1
EndSplineSet
Validated: 1
EndChar

StartChar: one
Encoding: 49 49 20
Width: 727
Flags: W
LayerCount: 2
Fore
SplineSet
90 -181 m 1,0,-1
 545 -181 l 1,1,-1
 545 -727 l 1,2,-1
 636 -727 l 1,3,-1
 636 -818 l 1,4,-1
 181 -818 l 1,5,-1
 181 -727 l 1,6,-1
 272 -727 l 1,7,-1
 272 -272 l 1,8,-1
 90 -272 l 1,9,-1
 90 -181 l 1,0,-1
EndSplineSet
Validated: 1
EndChar

StartChar: two
Encoding: 50 50 21
Width: 727
Flags: W
LayerCount: 2
Fore
SplineSet
90 -272 m 1,0,-1
 181 -272 l 1,1,-1
 181 -181 l 1,2,-1
 636 -181 l 1,3,-1
 636 -272 l 1,4,-1
 727 -272 l 1,5,-1
 727 -454 l 1,6,-1
 636 -454 l 1,7,-1
 636 -545 l 1,8,-1
 545 -545 l 1,9,-1
 545 -636 l 1,10,-1
 454 -636 l 1,11,-1
 454 -727 l 1,12,-1
 727 -727 l 1,13,-1
 727 -818 l 1,14,-1
 90 -818 l 1,15,-1
 90 -727 l 1,16,-1
 181 -727 l 1,17,-1
 181 -636 l 1,18,-1
 272 -636 l 1,19,-1
 272 -545 l 1,20,-1
 363 -545 l 1,21,-1
 363 -454 l 1,22,-1
 454 -454 l 1,23,-1
 454 -272 l 1,24,-1
 363 -272 l 1,25,-1
 363 -363 l 1,26,-1
 90 -363 l 1,27,-1
 90 -272 l 1,0,-1
EndSplineSet
Validated: 1
EndChar

StartChar: three
Encoding: 51 51 22
Width: 727
Flags: W
LayerCount: 2
Fore
SplineSet
90 -272 m 1,0,-1
 181 -272 l 1,1,-1
 181 -181 l 1,2,-1
 636 -181 l 1,3,-1
 636 -272 l 1,4,-1
 727 -272 l 1,5,-1
 727 -454 l 1,6,-1
 636 -454 l 1,7,-1
 636 -545 l 1,8,-1
 727 -545 l 1,9,-1
 727 -727 l 1,10,-1
 636 -727 l 1,11,-1
 636 -818 l 1,12,-1
 181 -818 l 1,13,-1
 181 -727 l 1,14,-1
 90 -727 l 1,15,-1
 90 -636 l 1,16,-1
 363 -636 l 1,17,-1
 363 -727 l 1,18,-1
 454 -727 l 1,19,-1
 454 -545 l 1,20,-1
 363 -545 l 1,21,-1
 363 -454 l 1,22,-1
 454 -454 l 1,23,-1
 454 -272 l 1,24,-1
 363 -272 l 1,25,-1
 363 -363 l 1,26,-1
 90 -363 l 1,27,-1
 90 -272 l 1,0,-1
EndSplineSet
Validated: 1
EndChar

StartChar: four
Encoding: 52 52 23
Width: 727
Flags: W
LayerCount: 2
Fore
SplineSet
90 -181 m 1,0,-1
 363 -181 l 1,1,-1
 363 -636 l 1,2,-1
 454 -636 l 1,3,-1
 454 -454 l 1,4,-1
 636 -454 l 1,5,-1
 636 -636 l 1,6,-1
 727 -636 l 1,7,-1
 727 -727 l 1,8,-1
 636 -727 l 1,9,-1
 636 -818 l 1,10,-1
 454 -818 l 1,11,-1
 454 -727 l 1,12,-1
 90 -727 l 1,13,-1
 90 -181 l 1,0,-1
EndSplineSet
Validated: 1
EndChar

StartChar: five
Encoding: 53 53 24
Width: 727
Flags: W
LayerCount: 2
Fore
SplineSet
90 -181 m 1,0,-1
 727 -181 l 1,1,-1
 727 -272 l 1,2,-1
 363 -272 l 1,3,-1
 363 -454 l 1,4,-1
 636 -454 l 1,5,-1
 636 -545 l 1,6,-1
 727 -545 l 1,7,-1
 727 -727 l 1,8,-1
 636 -727 l 1,9,-1
 636 -818 l 1,10,-1
 90 -818 l 1,11,-1
 90 -727 l 1,12,-1
 454 -727 l 1,13,-1
 454 -545 l 1,14,-1
 90 -545 l 1,15,-1
 90 -181 l 1,0,-1
EndSplineSet
Validated: 1
EndChar

StartChar: six
Encoding: 54 54 25
Width: 727
Flags: W
LayerCount: 2
Fore
SplineSet
90 -272 m 1,0,-1
 181 -272 l 1,1,-1
 181 -181 l 1,2,-1
 636 -181 l 1,3,-1
 636 -272 l 1,4,-1
 727 -272 l 1,5,-1
 727 -363 l 1,6,-1
 454 -363 l 1,7,-1
 454 -272 l 1,8,-1
 363 -272 l 1,9,-1
 363 -454 l 1,10,-1
 636 -454 l 1,11,-1
 636 -545 l 1,12,-1
 727 -545 l 1,13,-1
 727 -727 l 1,14,-1
 636 -727 l 1,15,-1
 636 -818 l 1,16,-1
 181 -818 l 1,17,-1
 181 -727 l 1,18,-1
 90 -727 l 1,19,-1
 90 -272 l 1,0,-1
363 -545 m 1,20,-1
 363 -727 l 1,21,-1
 454 -727 l 1,22,-1
 454 -545 l 1,23,-1
 363 -545 l 1,20,-1
EndSplineSet
Validated: 1
EndChar

StartChar: seven
Encoding: 55 55 26
Width: 727
Flags: W
LayerCount: 2
Fore
SplineSet
90 -181 m 1,0,-1
 727 -181 l 1,1,-1
 727 -363 l 1,2,-1
 636 -363 l 1,3,-1
 636 -454 l 1,4,-1
 545 -454 l 1,5,-1
 545 -818 l 1,6,-1
 363 -818 l 1,7,-1
 363 -454 l 1,8,-1
 454 -454 l 1,9,-1
 454 -363 l 1,10,-1
 545 -363 l 1,11,-1
 545 -272 l 1,12,-1
 272 -272 l 1,13,-1
 272 -363 l 1,14,-1
 90 -363 l 1,15,-1
 90 -181 l 1,0,-1
EndSplineSet
Validated: 1
EndChar

StartChar: eight
Encoding: 56 56 27
Width: 727
Flags: W
LayerCount: 2
Fore
SplineSet
90 -272 m 1,0,-1
 181 -272 l 1,1,-1
 181 -181 l 1,2,-1
 636 -181 l 1,3,-1
 636 -272 l 1,4,-1
 727 -272 l 1,5,-1
 727 -454 l 1,6,-1
 636 -454 l 1,7,-1
 636 -545 l 1,8,-1
 727 -545 l 1,9,-1
 727 -727 l 1,10,-1
 636 -727 l 1,11,-1
 636 -818 l 1,12,-1
 181 -818 l 1,13,-1
 181 -727 l 1,14,-1
 90 -727 l 1,15,-1
 90 -545 l 1,16,-1
 181 -545 l 1,17,-1
 181 -454 l 1,18,-1
 90 -454 l 1,19,-1
 90 -272 l 1,0,-1
363 -272 m 1,20,-1
 363 -454 l 1,21,-1
 454 -454 l 1,22,-1
 454 -272 l 1,23,-1
 363 -272 l 1,20,-1
363 -545 m 1,24,-1
 363 -727 l 1,25,-1
 454 -727 l 1,26,-1
 454 -545 l 1,27,-1
 363 -545 l 1,24,-1
EndSplineSet
Validated: 1
EndChar

StartChar: nine
Encoding: 57 57 28
Width: 727
Flags: W
LayerCount: 2
Fore
SplineSet
90 -272 m 1,0,-1
 181 -272 l 1,1,-1
 181 -181 l 1,2,-1
 636 -181 l 1,3,-1
 636 -272 l 1,4,-1
 727 -272 l 1,5,-1
 727 -727 l 1,6,-1
 636 -727 l 1,7,-1
 636 -818 l 1,8,-1
 181 -818 l 1,9,-1
 181 -727 l 1,10,-1
 90 -727 l 1,11,-1
 90 -636 l 1,12,-1
 363 -636 l 1,13,-1
 363 -727 l 1,14,-1
 454 -727 l 1,15,-1
 454 -545 l 1,16,-1
 181 -545 l 1,17,-1
 181 -454 l 1,18,-1
 90 -454 l 1,19,-1
 90 -272 l 1,0,-1
363 -272 m 1,20,-1
 363 -454 l 1,21,-1
 454 -454 l 1,22,-1
 454 -272 l 1,23,-1
 363 -272 l 1,20,-1
EndSplineSet
Validated: 1
EndChar

StartChar: colon
Encoding: 58 58 29
Width: 727
Flags: W
LayerCount: 2
Fore
SplineSet
272 -363 m 1,0,-1
 454 -363 l 1,1,-1
 454 -454 l 1,2,-1
 272 -454 l 1,3,-1
 272 -363 l 1,0,-1
272 -636 m 1,4,-1
 454 -636 l 1,5,-1
 454 -727 l 1,6,-1
 272 -727 l 1,7,-1
 272 -636 l 1,4,-1
EndSplineSet
Validated: 1
EndChar

StartChar: semicolon
Encoding: 59 59 30
Width: 727
Flags: W
LayerCount: 2
Fore
SplineSet
181 -818 m 1,0,-1
 272 -818 l 1,1,-1
 272 -636 l 1,2,-1
 454 -636 l 1,3,-1
 454 -818 l 1,4,-1
 363 -818 l 1,5,-1
 363 -909 l 1,6,-1
 181 -909 l 1,7,-1
 181 -818 l 1,0,-1
272 -363 m 1,8,-1
 454 -363 l 1,9,-1
 454 -454 l 1,10,-1
 272 -454 l 1,11,-1
 272 -363 l 1,8,-1
EndSplineSet
Validated: 1
EndChar

StartChar: less
Encoding: 60 60 31
Width: 727
Flags: W
LayerCount: 2
Fore
SplineSet
90 -454 m 1,0,-1
 181 -454 l 1,1,-1
 181 -363 l 1,2,-1
 272 -363 l 1,3,-1
 272 -272 l 1,4,-1
 363 -272 l 1,5,-1
 363 -181 l 1,6,-1
 636 -181 l 1,7,-1
 636 -272 l 1,8,-1
 454 -272 l 1,9,-1
 454 -363 l 1,10,-1
 363 -363 l 1,11,-1
 363 -454 l 1,12,-1
 272 -454 l 1,13,-1
 272 -545 l 1,14,-1
 363 -545 l 1,15,-1
 363 -636 l 1,16,-1
 454 -636 l 1,17,-1
 454 -727 l 1,18,-1
 636 -727 l 1,19,-1
 636 -818 l 1,20,-1
 363 -818 l 1,21,-1
 363 -727 l 1,22,-1
 272 -727 l 1,23,-1
 272 -636 l 1,24,-1
 181 -636 l 1,25,-1
 181 -545 l 1,26,-1
 90 -545 l 1,27,-1
 90 -454 l 1,0,-1
EndSplineSet
Validated: 1
EndChar

StartChar: equal
Encoding: 61 61 32
Width: 727
Flags: W
LayerCount: 2
Fore
SplineSet
90 -363 m 1,0,-1
 636 -363 l 1,1,-1
 636 -454 l 1,2,-1
 90 -454 l 1,3,-1
 90 -363 l 1,0,-1
90 -545 m 1,4,-1
 636 -545 l 1,5,-1
 636 -636 l 1,6,-1
 90 -636 l 1,7,-1
 90 -545 l 1,4,-1
EndSplineSet
Validated: 1
EndChar

StartChar: greater
Encoding: 62 62 33
Width: 727
Flags: W
LayerCount: 2
Fore
SplineSet
90 -181 m 1,0,-1
 363 -181 l 1,1,-1
 363 -272 l 1,2,-1
 454 -272 l 1,3,-1
 454 -363 l 1,4,-1
 545 -363 l 1,5,-1
 545 -454 l 1,6,-1
 636 -454 l 1,7,-1
 636 -545 l 1,8,-1
 545 -545 l 1,9,-1
 545 -636 l 1,10,-1
 454 -636 l 1,11,-1
 454 -727 l 1,12,-1
 363 -727 l 1,13,-1
 363 -818 l 1,14,-1
 90 -818 l 1,15,-1
 90 -727 l 1,16,-1
 272 -727 l 1,17,-1
 272 -636 l 1,18,-1
 363 -636 l 1,19,-1
 363 -545 l 1,20,-1
 454 -545 l 1,21,-1
 454 -454 l 1,22,-1
 363 -454 l 1,23,-1
 363 -363 l 1,24,-1
 272 -363 l 1,25,-1
 272 -272 l 1,26,-1
 90 -272 l 1,27,-1
 90 -181 l 1,0,-1
EndSplineSet
Validated: 1
EndChar

StartChar: question
Encoding: 63 63 34
Width: 727
Flags: W
LayerCount: 2
Fore
SplineSet
90 -272 m 1,0,-1
 181 -272 l 1,1,-1
 181 -181 l 1,2,-1
 545 -181 l 1,3,-1
 545 -272 l 1,4,-1
 636 -272 l 1,5,-1
 636 -454 l 1,6,-1
 545 -454 l 1,7,-1
 545 -545 l 1,8,-1
 454 -545 l 1,9,-1
 454 -636 l 1,10,-1
 272 -636 l 1,11,-1
 272 -545 l 1,12,-1
 363 -545 l 1,13,-1
 363 -454 l 1,14,-1
 454 -454 l 1,15,-1
 454 -272 l 1,16,-1
 272 -272 l 1,17,-1
 272 -363 l 1,18,-1
 90 -363 l 1,19,-1
 90 -272 l 1,0,-1
272 -727 m 1,20,-1
 454 -727 l 1,21,-1
 454 -818 l 1,22,-1
 272 -818 l 1,23,-1
 272 -727 l 1,20,-1
EndSplineSet
Validated: 1
EndChar

StartChar: at
Encoding: 64 64 35
Width: 727
Flags: W
LayerCount: 2
Fore
SplineSet
90 -272 m 1,0,-1
 181 -272 l 1,1,-1
 181 -181 l 1,2,-1
 545 -181 l 1,3,-1
 545 -272 l 1,4,-1
 636 -272 l 1,5,-1
 636 -545 l 1,6,-1
 363 -545 l 1,7,-1
 363 -363 l 1,8,-1
 454 -363 l 1,9,-1
 454 -272 l 1,10,-1
 272 -272 l 1,11,-1
 272 -727 l 1,12,-1
 545 -727 l 1,13,-1
 545 -818 l 1,14,-1
 181 -818 l 1,15,-1
 181 -727 l 1,16,-1
 90 -727 l 1,17,-1
 90 -272 l 1,0,-1
545 -636 m 1,18,-1
 636 -636 l 1,19,-1
 636 -727 l 1,20,-1
 545 -727 l 1,21,-1
 545 -636 l 1,18,-1
EndSplineSet
Validated: 5
EndChar

StartChar: A
Encoding: 65 65 36
Width: 727
Flags: W
LayerCount: 2
Fore
SplineSet
90 -272 m 1,0,-1
 181 -272 l 1,1,-1
 181 -181 l 1,2,-1
 636 -181 l 1,3,-1
 636 -272 l 1,4,-1
 727 -272 l 1,5,-1
 727 -818 l 1,6,-1
 454 -818 l 1,7,-1
 454 -545 l 1,8,-1
 363 -545 l 1,9,-1
 363 -818 l 1,10,-1
 90 -818 l 1,11,-1
 90 -272 l 1,0,-1
363 -272 m 1,12,-1
 363 -454 l 1,13,-1
 454 -454 l 1,14,-1
 454 -272 l 1,15,-1
 363 -272 l 1,12,-1
EndSplineSet
Validated: 1
EndChar

StartChar: B
Encoding: 66 66 37
Width: 727
Flags: W
LayerCount: 2
Fore
SplineSet
90 -181 m 1,0,-1
 636 -181 l 1,1,-1
 636 -272 l 1,2,-1
 727 -272 l 1,3,-1
 727 -454 l 1,4,-1
 636 -454 l 1,5,-1
 636 -545 l 1,6,-1
 727 -545 l 1,7,-1
 727 -727 l 1,8,-1
 636 -727 l 1,9,-1
 636 -818 l 1,10,-1
 90 -818 l 1,11,-1
 90 -181 l 1,0,-1
363 -272 m 1,12,-1
 363 -454 l 1,13,-1
 454 -454 l 1,14,-1
 454 -272 l 1,15,-1
 363 -272 l 1,12,-1
363 -545 m 1,16,-1
 363 -727 l 1,17,-1
 454 -727 l 1,18,-1
 454 -545 l 1,19,-1
 363 -545 l 1,16,-1
EndSplineSet
Validated: 1
EndChar

StartChar: C
Encoding: 67 67 38
Width: 727
Flags: W
LayerCount: 2
Fore
SplineSet
90 -272 m 1,0,-1
 181 -272 l 1,1,-1
 181 -181 l 1,2,-1
 636 -181 l 1,3,-1
 636 -272 l 1,4,-1
 727 -272 l 1,5,-1
 727 -363 l 1,6,-1
 454 -363 l 1,7,-1
 454 -272 l 1,8,-1
 363 -272 l 1,9,-1
 363 -727 l 1,10,-1
 454 -727 l 1,11,-1
 454 -636 l 1,12,-1
 727 -636 l 1,13,-1
 727 -727 l 1,14,-1
 636 -727 l 1,15,-1
 636 -818 l 1,16,-1
 181 -818 l 1,17,-1
 181 -727 l 1,18,-1
 90 -727 l 1,19,-1
 90 -272 l 1,0,-1
EndSplineSet
Validated: 1
EndChar

StartChar: D
Encoding: 68 68 39
Width: 727
Flags: W
LayerCount: 2
Fore
SplineSet
90 -181 m 1,0,-1
 636 -181 l 1,1,-1
 636 -272 l 1,2,-1
 727 -272 l 1,3,-1
 727 -727 l 1,4,-1
 636 -727 l 1,5,-1
 636 -818 l 1,6,-1
 90 -818 l 1,7,-1
 90 -181 l 1,0,-1
363 -272 m 1,8,-1
 363 -727 l 1,9,-1
 454 -727 l 1,10,-1
 454 -272 l 1,11,-1
 363 -272 l 1,8,-1
EndSplineSet
Validated: 1
EndChar

StartChar: E
Encoding: 69 69 40
Width: 727
Flags: W
LayerCount: 2
Fore
SplineSet
90 -272 m 1,0,-1
 181 -272 l 1,1,-1
 181 -181 l 1,2,-1
 727 -181 l 1,3,-1
 727 -363 l 1,4,-1
 454 -363 l 1,5,-1
 454 -272 l 1,6,-1
 363 -272 l 1,7,-1
 363 -454 l 1,8,-1
 545 -454 l 1,9,-1
 545 -545 l 1,10,-1
 363 -545 l 1,11,-1
 363 -727 l 1,12,-1
 454 -727 l 1,13,-1
 454 -636 l 1,14,-1
 727 -636 l 1,15,-1
 727 -818 l 1,16,-1
 181 -818 l 1,17,-1
 181 -727 l 1,18,-1
 90 -727 l 1,19,-1
 90 -272 l 1,0,-1
EndSplineSet
Validated: 1
EndChar

StartChar: F
Encoding: 70 70 41
Width: 727
Flags: W
LayerCount: 2
Fore
SplineSet
90 -272 m 1,0,-1
 181 -272 l 1,1,-1
 181 -181 l 1,2,-1
 727 -181 l 1,3,-1
 727 -363 l 1,4,-1
 454 -363 l 1,5,-1
 454 -272 l 1,6,-1
 363 -272 l 1,7,-1
 363 -454 l 1,8,-1
 545 -454 l 1,9,-1
 545 -545 l 1,10,-1
 363 -545 l 1,11,-1
 363 -818 l 1,12,-1
 90 -818 l 1,13,-1
 90 -272 l 1,0,-1
EndSplineSet
Validated: 1
EndChar

StartChar: G
Encoding: 71 71 42
Width: 727
Flags: W
LayerCount: 2
Fore
SplineSet
90 -272 m 1,0,-1
 181 -272 l 1,1,-1
 181 -181 l 1,2,-1
 636 -181 l 1,3,-1
 636 -272 l 1,4,-1
 727 -272 l 1,5,-1
 727 -363 l 1,6,-1
 454 -363 l 1,7,-1
 454 -272 l 1,8,-1
 363 -272 l 1,9,-1
 363 -727 l 1,10,-1
 454 -727 l 1,11,-1
 454 -454 l 1,12,-1
 727 -454 l 1,13,-1
 727 -727 l 1,14,-1
 636 -727 l 1,15,-1
 636 -818 l 1,16,-1
 181 -818 l 1,17,-1
 181 -727 l 1,18,-1
 90 -727 l 1,19,-1
 90 -272 l 1,0,-1
EndSplineSet
Validated: 1
EndChar

StartChar: H
Encoding: 72 72 43
Width: 727
Flags: W
LayerCount: 2
Fore
SplineSet
90 -181 m 1,0,-1
 363 -181 l 1,1,-1
 363 -454 l 1,2,-1
 454 -454 l 1,3,-1
 454 -181 l 1,4,-1
 727 -181 l 1,5,-1
 727 -818 l 1,6,-1
 454 -818 l 1,7,-1
 454 -545 l 1,8,-1
 363 -545 l 1,9,-1
 363 -818 l 1,10,-1
 90 -818 l 1,11,-1
 90 -181 l 1,0,-1
EndSplineSet
Validated: 1
EndChar

StartChar: I
Encoding: 73 73 44
Width: 727
Flags: W
LayerCount: 2
Fore
SplineSet
90 -181 m 1,0,-1
 727 -181 l 1,1,-1
 727 -272 l 1,2,-1
 545 -272 l 1,3,-1
 545 -727 l 1,4,-1
 727 -727 l 1,5,-1
 727 -818 l 1,6,-1
 90 -818 l 1,7,-1
 90 -727 l 1,8,-1
 272 -727 l 1,9,-1
 272 -272 l 1,10,-1
 90 -272 l 1,11,-1
 90 -181 l 1,0,-1
EndSplineSet
Validated: 1
EndChar

StartChar: J
Encoding: 74 74 45
Width: 727
Flags: W
LayerCount: 2
Fore
SplineSet
90 -181 m 1,0,-1
 727 -181 l 1,1,-1
 727 -727 l 1,2,-1
 636 -727 l 1,3,-1
 636 -818 l 1,4,-1
 90 -818 l 1,5,-1
 90 -636 l 1,6,-1
 363 -636 l 1,7,-1
 363 -727 l 1,8,-1
 454 -727 l 1,9,-1
 454 -272 l 1,10,-1
 90 -272 l 1,11,-1
 90 -181 l 1,0,-1
EndSplineSet
Validated: 1
EndChar

StartChar: K
Encoding: 75 75 46
Width: 727
Flags: W
LayerCount: 2
Fore
SplineSet
90 -181 m 1,0,-1
 363 -181 l 1,1,-1
 363 -454 l 1,2,-1
 454 -454 l 1,3,-1
 454 -181 l 1,4,-1
 727 -181 l 1,5,-1
 727 -454 l 1,6,-1
 636 -454 l 1,7,-1
 636 -545 l 1,8,-1
 727 -545 l 1,9,-1
 727 -818 l 1,10,-1
 454 -818 l 1,11,-1
 454 -545 l 1,12,-1
 363 -545 l 1,13,-1
 363 -818 l 1,14,-1
 90 -818 l 1,15,-1
 90 -181 l 1,0,-1
EndSplineSet
Validated: 1
EndChar

StartChar: L
Encoding: 76 76 47
Width: 727
Flags: W
LayerCount: 2
Fore
SplineSet
90 -181 m 1,0,-1
 363 -181 l 1,1,-1
 363 -727 l 1,2,-1
 454 -727 l 1,3,-1
 454 -636 l 1,4,-1
 727 -636 l 1,5,-1
 727 -818 l 1,6,-1
 181 -818 l 1,7,-1
 181 -727 l 1,8,-1
 90 -727 l 1,9,-1
 90 -181 l 1,0,-1
EndSplineSet
Validated: 1
EndChar

StartChar: M
Encoding: 77 77 48
Width: 727
Flags: W
LayerCount: 2
Fore
SplineSet
90 -181 m 1,0,-1
 272 -181 l 1,1,-1
 272 -272 l 1,2,-1
 363 -272 l 1,3,-1
 363 -363 l 1,4,-1
 454 -363 l 1,5,-1
 454 -272 l 1,6,-1
 545 -272 l 1,7,-1
 545 -181 l 1,8,-1
 727 -181 l 1,9,-1
 727 -818 l 1,10,-1
 454 -818 l 1,11,-1
 454 -545 l 1,12,-1
 363 -545 l 1,13,-1
 363 -818 l 1,14,-1
 90 -818 l 1,15,-1
 90 -181 l 1,0,-1
EndSplineSet
Validated: 1
EndChar

StartChar: N
Encoding: 78 78 49
Width: 727
Flags: W
LayerCount: 2
Fore
SplineSet
90 -181 m 1,0,-1
 636 -181 l 1,1,-1
 636 -272 l 1,2,-1
 727 -272 l 1,3,-1
 727 -818 l 1,4,-1
 454 -818 l 1,5,-1
 454 -272 l 1,6,-1
 363 -272 l 1,7,-1
 363 -818 l 1,8,-1
 90 -818 l 1,9,-1
 90 -181 l 1,0,-1
EndSplineSet
Validated: 1
EndChar

StartChar: O
Encoding: 79 79 50
Width: 727
Flags: W
LayerCount: 2
Fore
SplineSet
90 -272 m 1,0,-1
 181 -272 l 1,1,-1
 181 -181 l 1,2,-1
 636 -181 l 1,3,-1
 636 -272 l 1,4,-1
 727 -272 l 1,5,-1
 727 -727 l 1,6,-1
 636 -727 l 1,7,-1
 636 -818 l 1,8,-1
 181 -818 l 1,9,-1
 181 -727 l 1,10,-1
 90 -727 l 1,11,-1
 90 -272 l 1,0,-1
363 -272 m 1,12,-1
 363 -727 l 1,13,-1
 454 -727 l 1,14,-1
 454 -272 l 1,15,-1
 363 -272 l 1,12,-1
EndSplineSet
Validated: 1
EndChar

StartChar: P
Encoding: 80 80 51
Width: 727
Flags: W
LayerCount: 2
Fore
SplineSet
90 -181 m 1,0,-1
 636 -181 l 1,1,-1
 636 -272 l 1,2,-1
 727 -272 l 1,3,-1
 727 -454 l 1,4,-1
 636 -454 l 1,5,-1
 636 -545 l 1,6,-1
 363 -545 l 1,7,-1
 363 -818 l 1,8,-1
 90 -818 l 1,9,-1
 90 -181 l 1,0,-1
363 -272 m 1,10,-1
 363 -454 l 1,11,-1
 454 -454 l 1,12,-1
 454 -272 l 1,13,-1
 363 -272 l 1,10,-1
EndSplineSet
Validated: 1
EndChar

StartChar: Q
Encoding: 81 81 52
Width: 727
Flags: W
LayerCount: 2
Fore
SplineSet
90 -272 m 1,0,-1
 181 -272 l 1,1,-1
 181 -181 l 1,2,-1
 636 -181 l 1,3,-1
 636 -272 l 1,4,-1
 727 -272 l 1,5,-1
 727 -636 l 1,6,-1
 636 -636 l 1,7,-1
 636 -727 l 1,8,-1
 727 -727 l 1,9,-1
 727 -818 l 1,10,-1
 454 -818 l 1,11,-1
 454 -727 l 1,12,-1
 181 -727 l 1,13,-1
 181 -636 l 1,14,-1
 90 -636 l 1,15,-1
 90 -272 l 1,0,-1
363 -272 m 1,16,-1
 363 -636 l 1,17,-1
 454 -636 l 1,18,-1
 454 -272 l 1,19,-1
 363 -272 l 1,16,-1
EndSplineSet
Validated: 1
EndChar

StartChar: R
Encoding: 82 82 53
Width: 727
Flags: W
LayerCount: 2
Fore
SplineSet
90 -181 m 1,0,-1
 636 -181 l 1,1,-1
 636 -272 l 1,2,-1
 727 -272 l 1,3,-1
 727 -545 l 1,4,-1
 636 -545 l 1,5,-1
 636 -636 l 1,6,-1
 727 -636 l 1,7,-1
 727 -818 l 1,8,-1
 454 -818 l 1,9,-1
 454 -636 l 1,10,-1
 363 -636 l 1,11,-1
 363 -818 l 1,12,-1
 90 -818 l 1,13,-1
 90 -181 l 1,0,-1
363 -272 m 1,14,-1
 363 -454 l 1,15,-1
 454 -454 l 1,16,-1
 454 -272 l 1,17,-1
 363 -272 l 1,14,-1
EndSplineSet
Validated: 1
EndChar

StartChar: S
Encoding: 83 83 54
Width: 727
Flags: W
LayerCount: 2
Fore
SplineSet
90 -272 m 1,0,-1
 181 -272 l 1,1,-1
 181 -181 l 1,2,-1
 727 -181 l 1,3,-1
 727 -363 l 1,4,-1
 454 -363 l 1,5,-1
 454 -272 l 1,6,-1
 363 -272 l 1,7,-1
 363 -454 l 1,8,-1
 636 -454 l 1,9,-1
 636 -545 l 1,10,-1
 727 -545 l 1,11,-1
 727 -727 l 1,12,-1
 636 -727 l 1,13,-1
 636 -818 l 1,14,-1
 90 -818 l 1,15,-1
 90 -636 l 1,16,-1
 363 -636 l 1,17,-1
 363 -727 l 1,18,-1
 454 -727 l 1,19,-1
 454 -545 l 1,20,-1
 181 -545 l 1,21,-1
 181 -454 l 1,22,-1
 90 -454 l 1,23,-1
 90 -272 l 1,0,-1
EndSplineSet
Validated: 1
EndChar

StartChar: T
Encoding: 84 84 55
Width: 727
Flags: W
LayerCount: 2
Fore
SplineSet
90 -181 m 1,0,-1
 727 -181 l 1,1,-1
 727 -272 l 1,2,-1
 545 -272 l 1,3,-1
 545 -818 l 1,4,-1
 272 -818 l 1,5,-1
 272 -272 l 1,6,-1
 90 -272 l 1,7,-1
 90 -181 l 1,0,-1
EndSplineSet
Validated: 1
EndChar

StartChar: U
Encoding: 85 85 56
Width: 727
Flags: W
LayerCount: 2
Fore
SplineSet
90 -181 m 1,0,-1
 363 -181 l 1,1,-1
 363 -727 l 1,2,-1
 454 -727 l 1,3,-1
 454 -181 l 1,4,-1
 727 -181 l 1,5,-1
 727 -727 l 1,6,-1
 636 -727 l 1,7,-1
 636 -818 l 1,8,-1
 181 -818 l 1,9,-1
 181 -727 l 1,10,-1
 90 -727 l 1,11,-1
 90 -181 l 1,0,-1
EndSplineSet
Validated: 1
EndChar

StartChar: V
Encoding: 86 86 57
Width: 727
Flags: W
LayerCount: 2
Fore
SplineSet
90 -181 m 1,0,-1
 363 -181 l 1,1,-1
 363 -636 l 1,2,-1
 454 -636 l 1,3,-1
 454 -181 l 1,4,-1
 727 -181 l 1,5,-1
 727 -636 l 1,6,-1
 636 -636 l 1,7,-1
 636 -727 l 1,8,-1
 545 -727 l 1,9,-1
 545 -818 l 1,10,-1
 272 -818 l 1,11,-1
 272 -727 l 1,12,-1
 181 -727 l 1,13,-1
 181 -636 l 1,14,-1
 90 -636 l 1,15,-1
 90 -181 l 1,0,-1
EndSplineSet
Validated: 1
EndChar

StartChar: W
Encoding: 87 87 58
Width: 727
Flags: W
LayerCount: 2
Fore
SplineSet
90 -181 m 1,0,-1
 363 -181 l 1,1,-1
 363 -545 l 1,2,-1
 454 -545 l 1,3,-1
 454 -181 l 1,4,-1
 727 -181 l 1,5,-1
 727 -818 l 1,6,-1
 545 -818 l 1,7,-1
 545 -727 l 1,8,-1
 454 -727 l 1,9,-1
 454 -636 l 1,10,-1
 363 -636 l 1,11,-1
 363 -727 l 1,12,-1
 272 -727 l 1,13,-1
 272 -818 l 1,14,-1
 90 -818 l 1,15,-1
 90 -181 l 1,0,-1
EndSplineSet
Validated: 1
EndChar

StartChar: X
Encoding: 88 88 59
Width: 727
Flags: W
LayerCount: 2
Fore
SplineSet
90 -181 m 1,0,-1
 363 -181 l 1,1,-1
 363 -363 l 1,2,-1
 454 -363 l 1,3,-1
 454 -181 l 1,4,-1
 727 -181 l 1,5,-1
 727 -363 l 1,6,-1
 636 -363 l 1,7,-1
 636 -454 l 1,8,-1
 545 -454 l 1,9,-1
 545 -545 l 1,10,-1
 636 -545 l 1,11,-1
 636 -636 l 1,12,-1
 727 -636 l 1,13,-1
 727 -818 l 1,14,-1
 454 -818 l 1,15,-1
 454 -636 l 1,16,-1
 363 -636 l 1,17,-1
 363 -818 l 1,18,-1
 90 -818 l 1,19,-1
 90 -636 l 1,20,-1
 181 -636 l 1,21,-1
 181 -545 l 1,22,-1
 272 -545 l 1,23,-1
 272 -454 l 1,24,-1
 181 -454 l 1,25,-1
 181 -363 l 1,26,-1
 90 -363 l 1,27,-1
 90 -181 l 1,0,-1
EndSplineSet
Validated: 1
EndChar

StartChar: Y
Encoding: 89 89 60
Width: 727
Flags: W
LayerCount: 2
Fore
SplineSet
90 -181 m 1,0,-1
 363 -181 l 1,1,-1
 363 -363 l 1,2,-1
 454 -363 l 1,3,-1
 454 -181 l 1,4,-1
 727 -181 l 1,5,-1
 727 -727 l 1,6,-1
 636 -727 l 1,7,-1
 636 -818 l 1,8,-1
 90 -818 l 1,9,-1
 90 -636 l 1,10,-1
 363 -636 l 1,11,-1
 363 -727 l 1,12,-1
 454 -727 l 1,13,-1
 454 -545 l 1,14,-1
 181 -545 l 1,15,-1
 181 -454 l 1,16,-1
 90 -454 l 1,17,-1
 90 -181 l 1,0,-1
EndSplineSet
Validated: 1
EndChar

StartChar: Z
Encoding: 90 90 61
Width: 727
Flags: W
LayerCount: 2
Fore
SplineSet
90 -181 m 1,0,-1
 727 -181 l 1,1,-1
 727 -454 l 1,2,-1
 636 -454 l 1,3,-1
 636 -545 l 1,4,-1
 363 -545 l 1,5,-1
 363 -727 l 1,6,-1
 454 -727 l 1,7,-1
 454 -636 l 1,8,-1
 727 -636 l 1,9,-1
 727 -818 l 1,10,-1
 90 -818 l 1,11,-1
 90 -545 l 1,12,-1
 181 -545 l 1,13,-1
 181 -454 l 1,14,-1
 454 -454 l 1,15,-1
 454 -272 l 1,16,-1
 363 -272 l 1,17,-1
 363 -363 l 1,18,-1
 90 -363 l 1,19,-1
 90 -181 l 1,0,-1
EndSplineSet
Validated: 1
EndChar

StartChar: bracketleft
Encoding: 91 91 62
Width: 727
Flags: W
LayerCount: 2
Fore
SplineSet
181 -181 m 1,0,-1
 545 -181 l 1,1,-1
 545 -272 l 1,2,-1
 363 -272 l 1,3,-1
 363 -727 l 1,4,-1
 545 -727 l 1,5,-1
 545 -818 l 1,6,-1
 181 -818 l 1,7,-1
 181 -181 l 1,0,-1
EndSplineSet
Validated: 1
EndChar

StartChar: backslash
Encoding: 92 92 63
Width: 727
Flags: W
LayerCount: 2
Fore
SplineSet
90 -272 m 1,0,-1
 272 -272 l 1,1,-1
 272 -363 l 1,2,-1
 363 -363 l 1,3,-1
 363 -454 l 1,4,-1
 454 -454 l 1,5,-1
 454 -545 l 1,6,-1
 545 -545 l 1,7,-1
 545 -636 l 1,8,-1
 636 -636 l 1,9,-1
 636 -727 l 1,10,-1
 727 -727 l 1,11,-1
 727 -818 l 1,12,-1
 545 -818 l 1,13,-1
 545 -727 l 1,14,-1
 454 -727 l 1,15,-1
 454 -636 l 1,16,-1
 363 -636 l 1,17,-1
 363 -545 l 1,18,-1
 272 -545 l 1,19,-1
 272 -454 l 1,20,-1
 181 -454 l 1,21,-1
 181 -363 l 1,22,-1
 90 -363 l 1,23,-1
 90 -272 l 1,0,-1
EndSplineSet
Validated: 1
EndChar

StartChar: bracketright
Encoding: 93 93 64
Width: 727
Flags: W
LayerCount: 2
Fore
SplineSet
272 -181 m 1,0,-1
 636 -181 l 1,1,-1
 636 -818 l 1,2,-1
 272 -818 l 1,3,-1
 272 -727 l 1,4,-1
 454 -727 l 1,5,-1
 454 -272 l 1,6,-1
 272 -272 l 1,7,-1
 272 -181 l 1,0,-1
EndSplineSet
Validated: 1
EndChar

StartChar: asciicircum
Encoding: 94 94 65
Width: 727
Flags: W
LayerCount: 2
Fore
SplineSet
90 -363 m 1,0,-1
 181 -363 l 1,1,-1
 181 -272 l 1,2,-1
 272 -272 l 1,3,-1
 272 -181 l 1,4,-1
 454 -181 l 1,5,-1
 454 -272 l 1,6,-1
 545 -272 l 1,7,-1
 545 -363 l 1,8,-1
 636 -363 l 1,9,-1
 636 -454 l 1,10,-1
 454 -454 l 1,11,-1
 454 -363 l 1,12,-1
 272 -363 l 1,13,-1
 272 -454 l 1,14,-1
 90 -454 l 1,15,-1
 90 -363 l 1,0,-1
EndSplineSet
Validated: 1
EndChar

StartChar: underscore
Encoding: 95 95 66
Width: 727
Flags: W
LayerCount: 2
Fore
SplineSet
0 -818 m 1,0,-1
 727 -818 l 1,1,-1
 727 -909 l 1,2,-1
 0 -909 l 1,3,-1
 0 -818 l 1,0,-1
EndSplineSet
Validated: 1
EndChar

StartChar: grave
Encoding: 96 96 67
Width: 727
Flags: W
LayerCount: 2
Fore
SplineSet
272 -181 m 1,0,-1
 454 -181 l 1,1,-1
 454 -272 l 1,2,-1
 545 -272 l 1,3,-1
 545 -363 l 1,4,-1
 636 -363 l 1,5,-1
 636 -454 l 1,6,-1
 454 -454 l 1,7,-1
 454 -363 l 1,8,-1
 363 -363 l 1,9,-1
 363 -272 l 1,10,-1
 272 -272 l 1,11,-1
 272 -181 l 1,0,-1
EndSplineSet
Validated: 1
EndChar

StartChar: a
Encoding: 97 97 68
Width: 727
Flags: W
LayerCount: 2
Fore
SplineSet
90 -272 m 1,0,-1
 181 -272 l 1,1,-1
 181 -181 l 1,2,-1
 636 -181 l 1,3,-1
 636 -272 l 1,4,-1
 727 -272 l 1,5,-1
 727 -818 l 1,6,-1
 454 -818 l 1,7,-1
 454 -545 l 1,8,-1
 363 -545 l 1,9,-1
 363 -818 l 1,10,-1
 90 -818 l 1,11,-1
 90 -272 l 1,0,-1
363 -272 m 1,12,-1
 363 -454 l 1,13,-1
 454 -454 l 1,14,-1
 454 -272 l 1,15,-1
 363 -272 l 1,12,-1
EndSplineSet
Validated: 1
EndChar

StartChar: b
Encoding: 98 98 69
Width: 727
Flags: W
LayerCount: 2
Fore
SplineSet
90 -181 m 1,0,-1
 636 -181 l 1,1,-1
 636 -272 l 1,2,-1
 727 -272 l 1,3,-1
 727 -454 l 1,4,-1
 636 -454 l 1,5,-1
 636 -545 l 1,6,-1
 727 -545 l 1,7,-1
 727 -727 l 1,8,-1
 636 -727 l 1,9,-1
 636 -818 l 1,10,-1
 90 -818 l 1,11,-1
 90 -181 l 1,0,-1
363 -272 m 1,12,-1
 363 -454 l 1,13,-1
 454 -454 l 1,14,-1
 454 -272 l 1,15,-1
 363 -272 l 1,12,-1
363 -545 m 1,16,-1
 363 -727 l 1,17,-1
 454 -727 l 1,18,-1
 454 -545 l 1,19,-1
 363 -545 l 1,16,-1
EndSplineSet
Validated: 1
EndChar

StartChar: c
Encoding: 99 99 70
Width: 727
Flags: W
LayerCount: 2
Fore
SplineSet
90 -272 m 1,0,-1
 181 -272 l 1,1,-1
 181 -181 l 1,2,-1
 636 -181 l 1,3,-1
 636 -272 l 1,4,-1
 727 -272 l 1,5,-1
 727 -363 l 1,6,-1
 454 -363 l 1,7,-1
 454 -272 l 1,8,-1
 363 -272 l 1,9,-1
 363 -727 l 1,10,-1
 454 -727 l 1,11,-1
 454 -636 l 1,12,-1
 727 -636 l 1,13,-1
 727 -727 l 1,14,-1
 636 -727 l 1,15,-1
 636 -818 l 1,16,-1
 181 -818 l 1,17,-1
 181 -727 l 1,18,-1
 90 -727 l 1,19,-1
 90 -272 l 1,0,-1
EndSplineSet
Validated: 1
EndChar

StartChar: d
Encoding: 100 100 71
Width: 727
Flags: W
LayerCount: 2
Fore
SplineSet
90 -181 m 1,0,-1
 636 -181 l 1,1,-1
 636 -272 l 1,2,-1
 727 -272 l 1,3,-1
 727 -727 l 1,4,-1
 636 -727 l 1,5,-1
 636 -818 l 1,6,-1
 90 -818 l 1,7,-1
 90 -181 l 1,0,-1
363 -272 m 1,8,-1
 363 -727 l 1,9,-1
 454 -727 l 1,10,-1
 454 -272 l 1,11,-1
 363 -272 l 1,8,-1
EndSplineSet
Validated: 1
EndChar

StartChar: e
Encoding: 101 101 72
Width: 727
Flags: W
LayerCount: 2
Fore
SplineSet
90 -272 m 1,0,-1
 181 -272 l 1,1,-1
 181 -181 l 1,2,-1
 727 -181 l 1,3,-1
 727 -363 l 1,4,-1
 454 -363 l 1,5,-1
 454 -272 l 1,6,-1
 363 -272 l 1,7,-1
 363 -454 l 1,8,-1
 545 -454 l 1,9,-1
 545 -545 l 1,10,-1
 363 -545 l 1,11,-1
 363 -727 l 1,12,-1
 454 -727 l 1,13,-1
 454 -636 l 1,14,-1
 727 -636 l 1,15,-1
 727 -818 l 1,16,-1
 181 -818 l 1,17,-1
 181 -727 l 1,18,-1
 90 -727 l 1,19,-1
 90 -272 l 1,0,-1
EndSplineSet
Validated: 1
EndChar

StartChar: f
Encoding: 102 102 73
Width: 727
Flags: W
LayerCount: 2
Fore
SplineSet
90 -272 m 1,0,-1
 181 -272 l 1,1,-1
 181 -181 l 1,2,-1
 727 -181 l 1,3,-1
 727 -363 l 1,4,-1
 454 -363 l 1,5,-1
 454 -272 l 1,6,-1
 363 -272 l 1,7,-1
 363 -454 l 1,8,-1
 545 -454 l 1,9,-1
 545 -545 l 1,10,-1
 363 -545 l 1,11,-1
 363 -818 l 1,12,-1
 90 -818 l 1,13,-1
 90 -272 l 1,0,-1
EndSplineSet
Validated: 1
EndChar

StartChar: g
Encoding: 103 103 74
Width: 727
Flags: W
LayerCount: 2
Fore
SplineSet
90 -272 m 1,0,-1
 181 -272 l 1,1,-1
 181 -181 l 1,2,-1
 636 -181 l 1,3,-1
 636 -272 l 1,4,-1
 727 -272 l 1,5,-1
 727 -363 l 1,6,-1
 454 -363 l 1,7,-1
 454 -272 l 1,8,-1
 363 -272 l 1,9,-1
 363 -727 l 1,10,-1
 454 -727 l 1,11,-1
 454 -454 l 1,12,-1
 727 -454 l 1,13,-1
 727 -727 l 1,14,-1
 636 -727 l 1,15,-1
 636 -818 l 1,16,-1
 181 -818 l 1,17,-1
 181 -727 l 1,18,-1
 90 -727 l 1,19,-1
 90 -272 l 1,0,-1
EndSplineSet
Validated: 1
EndChar

StartChar: h
Encoding: 104 104 75
Width: 727
Flags: W
LayerCount: 2
Fore
SplineSet
90 -181 m 1,0,-1
 363 -181 l 1,1,-1
 363 -454 l 1,2,-1
 454 -454 l 1,3,-1
 454 -181 l 1,4,-1
 727 -181 l 1,5,-1
 727 -818 l 1,6,-1
 454 -818 l 1,7,-1
 454 -545 l 1,8,-1
 363 -545 l 1,9,-1
 363 -818 l 1,10,-1
 90 -818 l 1,11,-1
 90 -181 l 1,0,-1
EndSplineSet
Validated: 1
EndChar

StartChar: i
Encoding: 105 105 76
Width: 727
Flags: W
LayerCount: 2
Fore
SplineSet
90 -181 m 1,0,-1
 727 -181 l 1,1,-1
 727 -272 l 1,2,-1
 545 -272 l 1,3,-1
 545 -727 l 1,4,-1
 727 -727 l 1,5,-1
 727 -818 l 1,6,-1
 90 -818 l 1,7,-1
 90 -727 l 1,8,-1
 272 -727 l 1,9,-1
 272 -272 l 1,10,-1
 90 -272 l 1,11,-1
 90 -181 l 1,0,-1
EndSplineSet
Validated: 1
EndChar

StartChar: j
Encoding: 106 106 77
Width: 727
Flags: W
LayerCount: 2
Fore
SplineSet
90 -181 m 1,0,-1
 727 -181 l 1,1,-1
 727 -727 l 1,2,-1
 636 -727 l 1,3,-1
 636 -818 l 1,4,-1
 90 -818 l 1,5,-1
 90 -636 l 1,6,-1
 363 -636 l 1,7,-1
 363 -727 l 1,8,-1
 454 -727 l 1,9,-1
 454 -272 l 1,10,-1
 90 -272 l 1,11,-1
 90 -181 l 1,0,-1
EndSplineSet
Validated: 1
EndChar

StartChar: k
Encoding: 107 107 78
Width: 727
Flags: W
LayerCount: 2
Fore
SplineSet
90 -181 m 1,0,-1
 363 -181 l 1,1,-1
 363 -454 l 1,2,-1
 454 -454 l 1,3,-1
 454 -181 l 1,4,-1
 727 -181 l 1,5,-1
 727 -454 l 1,6,-1
 636 -454 l 1,7,-1
 636 -545 l 1,8,-1
 727 -545 l 1,9,-1
 727 -818 l 1,10,-1
 454 -818 l 1,11,-1
 454 -545 l 1,12,-1
 363 -545 l 1,13,-1
 363 -818 l 1,14,-1
 90 -818 l 1,15,-1
 90 -181 l 1,0,-1
EndSplineSet
Validated: 1
EndChar

StartChar: l
Encoding: 108 108 79
Width: 727
Flags: W
LayerCount: 2
Fore
SplineSet
90 -181 m 1,0,-1
 363 -181 l 1,1,-1
 363 -727 l 1,2,-1
 454 -727 l 1,3,-1
 454 -636 l 1,4,-1
 727 -636 l 1,5,-1
 727 -818 l 1,6,-1
 181 -818 l 1,7,-1
 181 -727 l 1,8,-1
 90 -727 l 1,9,-1
 90 -181 l 1,0,-1
EndSplineSet
Validated: 1
EndChar

StartChar: m
Encoding: 109 109 80
Width: 727
Flags: W
LayerCount: 2
Fore
SplineSet
90 -181 m 1,0,-1
 272 -181 l 1,1,-1
 272 -272 l 1,2,-1
 363 -272 l 1,3,-1
 363 -363 l 1,4,-1
 454 -363 l 1,5,-1
 454 -272 l 1,6,-1
 545 -272 l 1,7,-1
 545 -181 l 1,8,-1
 727 -181 l 1,9,-1
 727 -818 l 1,10,-1
 454 -818 l 1,11,-1
 454 -545 l 1,12,-1
 363 -545 l 1,13,-1
 363 -818 l 1,14,-1
 90 -818 l 1,15,-1
 90 -181 l 1,0,-1
EndSplineSet
Validated: 1
EndChar

StartChar: n
Encoding: 110 110 81
Width: 727
Flags: W
LayerCount: 2
Fore
SplineSet
90 -181 m 1,0,-1
 636 -181 l 1,1,-1
 636 -272 l 1,2,-1
 727 -272 l 1,3,-1
 727 -818 l 1,4,-1
 454 -818 l 1,5,-1
 454 -272 l 1,6,-1
 363 -272 l 1,7,-1
 363 -818 l 1,8,-1
 90 -818 l 1,9,-1
 90 -181 l 1,0,-1
EndSplineSet
Validated: 1
EndChar

StartChar: o
Encoding: 111 111 82
Width: 727
Flags: W
LayerCount: 2
Fore
SplineSet
90 -272 m 1,0,-1
 181 -272 l 1,1,-1
 181 -181 l 1,2,-1
 636 -181 l 1,3,-1
 636 -272 l 1,4,-1
 727 -272 l 1,5,-1
 727 -727 l 1,6,-1
 636 -727 l 1,7,-1
 636 -818 l 1,8,-1
 181 -818 l 1,9,-1
 181 -727 l 1,10,-1
 90 -727 l 1,11,-1
 90 -272 l 1,0,-1
363 -272 m 1,12,-1
 363 -727 l 1,13,-1
 454 -727 l 1,14,-1
 454 -272 l 1,15,-1
 363 -272 l 1,12,-1
EndSplineSet
Validated: 1
EndChar

StartChar: p
Encoding: 112 112 83
Width: 727
Flags: W
LayerCount: 2
Fore
SplineSet
90 -181 m 1,0,-1
 636 -181 l 1,1,-1
 636 -272 l 1,2,-1
 727 -272 l 1,3,-1
 727 -454 l 1,4,-1
 636 -454 l 1,5,-1
 636 -545 l 1,6,-1
 363 -545 l 1,7,-1
 363 -818 l 1,8,-1
 90 -818 l 1,9,-1
 90 -181 l 1,0,-1
363 -272 m 1,10,-1
 363 -454 l 1,11,-1
 454 -454 l 1,12,-1
 454 -272 l 1,13,-1
 363 -272 l 1,10,-1
EndSplineSet
Validated: 1
EndChar

StartChar: q
Encoding: 113 113 84
Width: 727
Flags: W
LayerCount: 2
Fore
SplineSet
90 -272 m 1,0,-1
 181 -272 l 1,1,-1
 181 -181 l 1,2,-1
 636 -181 l 1,3,-1
 636 -272 l 1,4,-1
 727 -272 l 1,5,-1
 727 -636 l 1,6,-1
 636 -636 l 1,7,-1
 636 -727 l 1,8,-1
 727 -727 l 1,9,-1
 727 -818 l 1,10,-1
 454 -818 l 1,11,-1
 454 -727 l 1,12,-1
 181 -727 l 1,13,-1
 181 -636 l 1,14,-1
 90 -636 l 1,15,-1
 90 -272 l 1,0,-1
363 -272 m 1,16,-1
 363 -636 l 1,17,-1
 454 -636 l 1,18,-1
 454 -272 l 1,19,-1
 363 -272 l 1,16,-1
EndSplineSet
Validated: 1
EndChar

StartChar: r
Encoding: 114 114 85
Width: 727
Flags: W
LayerCount: 2
Fore
SplineSet
90 -181 m 1,0,-1
 636 -181 l 1,1,-1
 636 -272 l 1,2,-1
 727 -272 l 1,3,-1
 727 -545 l 1,4,-1
 636 -545 l 1,5,-1
 636 -636 l 1,6,-1
 727 -636 l 1,7,-1
 727 -818 l 1,8,-1
 454 -818 l 1,9,-1
 454 -636 l 1,10,-1
 363 -636 l 1,11,-1
 363 -818 l 1,12,-1
 90 -818 l 1,13,-1
 90 -181 l 1,0,-1
363 -272 m 1,14,-1
 363 -454 l 1,15,-1
 454 -454 l 1,16,-1
 454 -272 l 1,17,-1
 363 -272 l 1,14,-1
EndSplineSet
Validated: 1
EndChar

StartChar: s
Encoding: 115 115 86
Width: 727
Flags: W
LayerCount: 2
Fore
SplineSet
90 -272 m 1,0,-1
 181 -272 l 1,1,-1
 181 -181 l 1,2,-1
 727 -181 l 1,3,-1
 727 -363 l 1,4,-1
 454 -363 l 1,5,-1
 454 -272 l 1,6,-1
 363 -272 l 1,7,-1
 363 -454 l 1,8,-1
 636 -454 l 1,9,-1
 636 -545 l 1,10,-1
 727 -545 l 1,11,-1
 727 -727 l 1,12,-1
 636 -727 l 1,13,-1
 636 -818 l 1,14,-1
 90 -818 l 1,15,-1
 90 -636 l 1,16,-1
 363 -636 l 1,17,-1
 363 -727 l 1,18,-1
 454 -727 l 1,19,-1
 454 -545 l 1,20,-1
 181 -545 l 1,21,-1
 181 -454 l 1,22,-1
 90 -454 l 1,23,-1
 90 -272 l 1,0,-1
EndSplineSet
Validated: 1
EndChar

StartChar: t
Encoding: 116 116 87
Width: 727
Flags: W
LayerCount: 2
Fore
SplineSet
90 -181 m 1,0,-1
 727 -181 l 1,1,-1
 727 -272 l 1,2,-1
 545 -272 l 1,3,-1
 545 -818 l 1,4,-1
 272 -818 l 1,5,-1
 272 -272 l 1,6,-1
 90 -272 l 1,7,-1
 90 -181 l 1,0,-1
EndSplineSet
Validated: 1
EndChar

StartChar: u
Encoding: 117 117 88
Width: 727
Flags: W
LayerCount: 2
Fore
SplineSet
90 -181 m 1,0,-1
 363 -181 l 1,1,-1
 363 -727 l 1,2,-1
 454 -727 l 1,3,-1
 454 -181 l 1,4,-1
 727 -181 l 1,5,-1
 727 -727 l 1,6,-1
 636 -727 l 1,7,-1
 636 -818 l 1,8,-1
 181 -818 l 1,9,-1
 181 -727 l 1,10,-1
 90 -727 l 1,11,-1
 90 -181 l 1,0,-1
EndSplineSet
Validated: 1
EndChar

StartChar: v
Encoding: 118 118 89
Width: 727
Flags: W
LayerCount: 2
Fore
SplineSet
90 -181 m 1,0,-1
 363 -181 l 1,1,-1
 363 -636 l 1,2,-1
 454 -636 l 1,3,-1
 454 -181 l 1,4,-1
 727 -181 l 1,5,-1
 727 -636 l 1,6,-1
 636 -636 l 1,7,-1
 636 -727 l 1,8,-1
 545 -727 l 1,9,-1
 545 -818 l 1,10,-1
 272 -818 l 1,11,-1
 272 -727 l 1,12,-1
 181 -727 l 1,13,-1
 181 -636 l 1,14,-1
 90 -636 l 1,15,-1
 90 -181 l 1,0,-1
EndSplineSet
Validated: 1
EndChar

StartChar: w
Encoding: 119 119 90
Width: 727
Flags: W
LayerCount: 2
Fore
SplineSet
90 -181 m 1,0,-1
 363 -181 l 1,1,-1
 363 -545 l 1,2,-1
 454 -545 l 1,3,-1
 454 -181 l 1,4,-1
 727 -181 l 1,5,-1
 727 -818 l 1,6,-1
 545 -818 l 1,7,-1
 545 -727 l 1,8,-1
 454 -727 l 1,9,-1
 454 -636 l 1,10,-1
 363 -636 l 1,11,-1
 363 -727 l 1,12,-1
 272 -727 l 1,13,-1
 272 -818 l 1,14,-1
 90 -818 l 1,15,-1
 90 -181 l 1,0,-1
EndSplineSet
Validated: 1
EndChar

StartChar: x
Encoding: 120 120 91
Width: 727
Flags: W
LayerCount: 2
Fore
SplineSet
90 -181 m 1,0,-1
 363 -181 l 1,1,-1
 363 -363 l 1,2,-1
 454 -363 l 1,3,-1
 454 -181 l 1,4,-1
 727 -181 l 1,5,-1
 727 -363 l 1,6,-1
 636 -363 l 1,7,-1
 636 -454 l 1,8,-1
 545 -454 l 1,9,-1
 545 -545 l 1,10,-1
 636 -545 l 1,11,-1
 636 -636 l 1,12,-1
 727 -636 l 1,13,-1
 727 -818 l 1,14,-1
 454 -818 l 1,15,-1
 454 -636 l 1,16,-1
 363 -636 l 1,17,-1
 363 -818 l 1,18,-1
 90 -818 l 1,19,-1
 90 -636 l 1,20,-1
 181 -636 l 1,21,-1
 181 -545 l 1,22,-1
 272 -545 l 1,23,-1
 272 -454 l 1,24,-1
 181 -454 l 1,25,-1
 181 -363 l 1,26,-1
 90 -363 l 1,27,-1
 90 -181 l 1,0,-1
EndSplineSet
Validated: 1
EndChar

StartChar: y
Encoding: 121 121 92
Width: 727
Flags: W
LayerCount: 2
Fore
SplineSet
90 -181 m 1,0,-1
 363 -181 l 1,1,-1
 363 -363 l 1,2,-1
 454 -363 l 1,3,-1
 454 -181 l 1,4,-1
 727 -181 l 1,5,-1
 727 -727 l 1,6,-1
 636 -727 l 1,7,-1
 636 -818 l 1,8,-1
 90 -818 l 1,9,-1
 90 -636 l 1,10,-1
 363 -636 l 1,11,-1
 363 -727 l 1,12,-1
 454 -727 l 1,13,-1
 454 -545 l 1,14,-1
 181 -545 l 1,15,-1
 181 -454 l 1,16,-1
 90 -454 l 1,17,-1
 90 -181 l 1,0,-1
EndSplineSet
Validated: 1
EndChar

StartChar: z
Encoding: 122 122 93
Width: 727
Flags: W
LayerCount: 2
Fore
SplineSet
90 -181 m 1,0,-1
 727 -181 l 1,1,-1
 727 -454 l 1,2,-1
 636 -454 l 1,3,-1
 636 -545 l 1,4,-1
 363 -545 l 1,5,-1
 363 -727 l 1,6,-1
 454 -727 l 1,7,-1
 454 -636 l 1,8,-1
 727 -636 l 1,9,-1
 727 -818 l 1,10,-1
 90 -818 l 1,11,-1
 90 -545 l 1,12,-1
 181 -545 l 1,13,-1
 181 -454 l 1,14,-1
 454 -454 l 1,15,-1
 454 -272 l 1,16,-1
 363 -272 l 1,17,-1
 363 -363 l 1,18,-1
 90 -363 l 1,19,-1
 90 -181 l 1,0,-1
EndSplineSet
Validated: 1
EndChar

StartChar: braceleft
Encoding: 123 123 94
Width: 727
Flags: W
LayerCount: 2
Fore
SplineSet
90 -454 m 1,0,-1
 181 -454 l 1,1,-1
 181 -181 l 1,2,-1
 545 -181 l 1,3,-1
 545 -272 l 1,4,-1
 363 -272 l 1,5,-1
 363 -727 l 1,6,-1
 545 -727 l 1,7,-1
 545 -818 l 1,8,-1
 181 -818 l 1,9,-1
 181 -545 l 1,10,-1
 90 -545 l 1,11,-1
 90 -454 l 1,0,-1
EndSplineSet
Validated: 1
EndChar

StartChar: bar
Encoding: 124 124 95
Width: 272
Flags: W
LayerCount: 2
Fore
SplineSet
90 -272 m 1,0,-1
 181 -272 l 1,1,-1
 181 -909 l 1,2,-1
 90 -909 l 1,3,-1
 90 -272 l 1,0,-1
EndSplineSet
Validated: 1
EndChar

StartChar: braceright
Encoding: 125 125 96
Width: 727
Flags: W
LayerCount: 2
Fore
SplineSet
272 -181 m 1,0,-1
 636 -181 l 1,1,-1
 636 -454 l 1,2,-1
 727 -454 l 1,3,-1
 727 -545 l 1,4,-1
 636 -545 l 1,5,-1
 636 -818 l 1,6,-1
 272 -818 l 1,7,-1
 272 -727 l 1,8,-1
 454 -727 l 1,9,-1
 454 -272 l 1,10,-1
 272 -272 l 1,11,-1
 272 -181 l 1,0,-1
EndSplineSet
Validated: 1
EndChar

StartChar: asciitilde
Encoding: 126 126 97
Width: 454
Flags: W
LayerCount: 2
Fore
SplineSet
90 -363 m 1,0,-1
 181 -363 l 1,1,-1
 181 -272 l 1,2,-1
 272 -272 l 1,3,-1
 272 -363 l 1,4,-1
 181 -363 l 1,5,-1
 181 -454 l 1,6,-1
 90 -454 l 1,7,-1
 90 -363 l 1,0,-1
272 -363 m 1,8,-1
 363 -363 l 1,9,-1
 363 -454 l 1,10,-1
 272 -454 l 1,11,-1
 272 -363 l 1,8,-1
363 -272 m 1,12,-1
 454 -272 l 1,13,-1
 454 -363 l 1,14,-1
 363 -363 l 1,15,-1
 363 -272 l 1,12,-1
EndSplineSet
Validated: 5
EndChar

StartChar: uni007F
Encoding: 127 127 98
Width: 181
Flags: W
LayerCount: 2
Fore
SplineSet
90 -272 m 1,0,-1
 181 -272 l 1,1,-1
 181 -909 l 1,2,-1
 90 -909 l 1,3,-1
 90 -272 l 1,0,-1
EndSplineSet
Validated: 1
EndChar

StartChar: uni0080
Encoding: 128 128 99
Width: 727
Flags: W
LayerCount: 2
Fore
SplineSet
90 -454 m 1,0,-1
 181 -454 l 1,1,-1
 181 -363 l 1,2,-1
 272 -363 l 1,3,-1
 272 -272 l 1,4,-1
 727 -272 l 1,5,-1
 727 -363 l 1,6,-1
 363 -363 l 1,7,-1
 363 -454 l 1,8,-1
 636 -454 l 1,9,-1
 636 -545 l 1,10,-1
 363 -545 l 1,11,-1
 363 -727 l 1,12,-1
 727 -727 l 1,13,-1
 727 -818 l 1,14,-1
 272 -818 l 1,15,-1
 272 -727 l 1,16,-1
 181 -727 l 1,17,-1
 181 -545 l 1,18,-1
 90 -545 l 1,19,-1
 90 -454 l 1,0,-1
EndSplineSet
Validated: 1
EndChar

StartChar: uni0081
Encoding: 129 129 100
Width: 181
Flags: W
LayerCount: 2
Fore
SplineSet
90 -272 m 1,0,-1
 181 -272 l 1,1,-1
 181 -909 l 1,2,-1
 90 -909 l 1,3,-1
 90 -272 l 1,0,-1
EndSplineSet
Validated: 1
EndChar

StartChar: uni0082
Encoding: 130 130 101
Width: 181
Flags: W
LayerCount: 2
Fore
SplineSet
90 -727 m 1,0,-1
 181 -727 l 1,1,-1
 181 -909 l 1,2,-1
 90 -909 l 1,3,-1
 90 -727 l 1,0,-1
EndSplineSet
Validated: 1
EndChar

StartChar: uni0083
Encoding: 131 131 102
Width: 454
Flags: W
LayerCount: 2
Fore
SplineSet
90 -818 m 1,0,-1
 181 -818 l 1,1,-1
 181 -909 l 1,2,-1
 90 -909 l 1,3,-1
 90 -818 l 1,0,-1
181 -454 m 1,4,-1
 272 -454 l 1,5,-1
 272 -272 l 1,6,-1
 363 -272 l 1,7,-1
 363 -181 l 1,8,-1
 454 -181 l 1,9,-1
 454 -272 l 1,10,-1
 363 -272 l 1,11,-1
 363 -454 l 1,12,-1
 454 -454 l 1,13,-1
 454 -545 l 1,14,-1
 363 -545 l 1,15,-1
 363 -909 l 1,16,-1
 272 -909 l 1,17,-1
 272 -545 l 1,18,-1
 181 -545 l 1,19,-1
 181 -454 l 1,4,-1
181 -909 m 1,20,-1
 272 -909 l 1,21,-1
 272 -1000 l 1,22,-1
 181 -1000 l 1,23,-1
 181 -909 l 1,20,-1
EndSplineSet
Validated: 5
EndChar

StartChar: uni0084
Encoding: 132 132 103
Width: 363
Flags: W
LayerCount: 2
Fore
SplineSet
90 -727 m 1,0,-1
 181 -727 l 1,1,-1
 181 -909 l 1,2,-1
 90 -909 l 1,3,-1
 90 -727 l 1,0,-1
272 -727 m 1,4,-1
 363 -727 l 1,5,-1
 363 -909 l 1,6,-1
 272 -909 l 1,7,-1
 272 -727 l 1,4,-1
EndSplineSet
Validated: 1
EndChar

StartChar: uni0085
Encoding: 133 133 104
Width: 545
Flags: W
LayerCount: 2
Fore
SplineSet
90 -727 m 1,0,-1
 181 -727 l 1,1,-1
 181 -818 l 1,2,-1
 90 -818 l 1,3,-1
 90 -727 l 1,0,-1
272 -727 m 1,4,-1
 363 -727 l 1,5,-1
 363 -818 l 1,6,-1
 272 -818 l 1,7,-1
 272 -727 l 1,4,-1
454 -727 m 1,8,-1
 545 -727 l 1,9,-1
 545 -818 l 1,10,-1
 454 -818 l 1,11,-1
 454 -727 l 1,8,-1
EndSplineSet
Validated: 1
EndChar

StartChar: uni0086
Encoding: 134 134 105
Width: 545
Flags: W
LayerCount: 2
Fore
SplineSet
90 -363 m 1,0,-1
 272 -363 l 1,1,-1
 272 -181 l 1,2,-1
 363 -181 l 1,3,-1
 363 -363 l 1,4,-1
 545 -363 l 1,5,-1
 545 -454 l 1,6,-1
 363 -454 l 1,7,-1
 363 -909 l 1,8,-1
 272 -909 l 1,9,-1
 272 -454 l 1,10,-1
 90 -454 l 1,11,-1
 90 -363 l 1,0,-1
EndSplineSet
Validated: 1
EndChar

StartChar: uni0087
Encoding: 135 135 106
Width: 545
Flags: W
LayerCount: 2
Fore
SplineSet
90 -363 m 1,0,-1
 272 -363 l 1,1,-1
 272 -181 l 1,2,-1
 363 -181 l 1,3,-1
 363 -363 l 1,4,-1
 545 -363 l 1,5,-1
 545 -454 l 1,6,-1
 363 -454 l 1,7,-1
 363 -636 l 1,8,-1
 545 -636 l 1,9,-1
 545 -727 l 1,10,-1
 363 -727 l 1,11,-1
 363 -909 l 1,12,-1
 272 -909 l 1,13,-1
 272 -727 l 1,14,-1
 90 -727 l 1,15,-1
 90 -636 l 1,16,-1
 272 -636 l 1,17,-1
 272 -454 l 1,18,-1
 90 -454 l 1,19,-1
 90 -363 l 1,0,-1
EndSplineSet
Validated: 1
EndChar

StartChar: uni0088
Encoding: 136 136 107
Width: 363
Flags: W
LayerCount: 2
Fore
SplineSet
90 -272 m 1,0,-1
 181 -272 l 1,1,-1
 181 -363 l 1,2,-1
 90 -363 l 1,3,-1
 90 -272 l 1,0,-1
181 -181 m 1,4,-1
 272 -181 l 1,5,-1
 272 -272 l 1,6,-1
 363 -272 l 1,7,-1
 363 -363 l 1,8,-1
 272 -363 l 1,9,-1
 272 -272 l 1,10,-1
 181 -272 l 1,11,-1
 181 -181 l 1,4,-1
EndSplineSet
Validated: 5
EndChar

StartChar: uni0089
Encoding: 137 137 108
Width: 727
Flags: W
LayerCount: 2
Fore
SplineSet
90 -272 m 1,0,-1
 181 -272 l 1,1,-1
 181 -363 l 1,2,-1
 272 -363 l 1,3,-1
 272 -454 l 1,4,-1
 363 -454 l 1,5,-1
 363 -363 l 1,6,-1
 272 -363 l 1,7,-1
 272 -272 l 1,8,-1
 181 -272 l 1,9,-1
 181 -181 l 1,10,-1
 272 -181 l 1,11,-1
 272 -272 l 1,12,-1
 454 -272 l 1,13,-1
 454 -181 l 1,14,-1
 545 -181 l 1,15,-1
 545 -272 l 1,16,-1
 454 -272 l 1,17,-1
 454 -454 l 1,18,-1
 363 -454 l 1,19,-1
 363 -545 l 1,20,-1
 272 -545 l 1,21,-1
 272 -454 l 1,22,-1
 181 -454 l 1,23,-1
 181 -363 l 1,24,-1
 90 -363 l 1,25,-1
 90 -272 l 1,0,-1
90 -727 m 1,26,-1
 181 -727 l 1,27,-1
 181 -818 l 1,28,-1
 90 -818 l 1,29,-1
 90 -727 l 1,26,-1
181 -545 m 1,30,-1
 272 -545 l 1,31,-1
 272 -636 l 1,32,-1
 363 -636 l 1,33,-1
 363 -727 l 1,34,-1
 181 -727 l 1,35,-1
 181 -545 l 1,30,-1
363 -545 m 1,36,-1
 454 -545 l 1,37,-1
 454 -636 l 1,38,-1
 545 -636 l 1,39,-1
 545 -545 l 1,40,-1
 636 -545 l 1,41,-1
 636 -636 l 1,42,-1
 727 -636 l 1,43,-1
 727 -727 l 1,44,-1
 636 -727 l 1,45,-1
 636 -636 l 1,46,-1
 545 -636 l 1,47,-1
 545 -727 l 1,48,-1
 454 -727 l 1,49,-1
 454 -636 l 1,50,-1
 363 -636 l 1,51,-1
 363 -545 l 1,36,-1
363 -727 m 1,52,-1
 454 -727 l 1,53,-1
 454 -818 l 1,54,-1
 363 -818 l 1,55,-1
 363 -727 l 1,52,-1
545 -727 m 1,56,-1
 636 -727 l 1,57,-1
 636 -818 l 1,58,-1
 545 -818 l 1,59,-1
 545 -727 l 1,56,-1
EndSplineSet
Validated: 5
EndChar

StartChar: uni008A
Encoding: 138 138 109
Width: 727
Flags: W
LayerCount: 2
Fore
SplineSet
90 -272 m 1,0,-1
 181 -272 l 1,1,-1
 181 -181 l 1,2,-1
 363 -181 l 1,3,-1
 363 -90 l 1,4,-1
 454 -90 l 1,5,-1
 454 0 l 1,6,-1
 545 0 l 1,7,-1
 545 -90 l 1,8,-1
 454 -90 l 1,9,-1
 454 -181 l 1,10,-1
 727 -181 l 1,11,-1
 727 -363 l 1,12,-1
 454 -363 l 1,13,-1
 454 -272 l 1,14,-1
 363 -272 l 1,15,-1
 363 -454 l 1,16,-1
 636 -454 l 1,17,-1
 636 -545 l 1,18,-1
 727 -545 l 1,19,-1
 727 -727 l 1,20,-1
 636 -727 l 1,21,-1
 636 -818 l 1,22,-1
 90 -818 l 1,23,-1
 90 -636 l 1,24,-1
 363 -636 l 1,25,-1
 363 -727 l 1,26,-1
 454 -727 l 1,27,-1
 454 -545 l 1,28,-1
 181 -545 l 1,29,-1
 181 -454 l 1,30,-1
 90 -454 l 1,31,-1
 90 -272 l 1,0,-1
272 0 m 1,32,-1
 363 0 l 1,33,-1
 363 -90 l 1,34,-1
 272 -90 l 1,35,-1
 272 0 l 1,32,-1
EndSplineSet
Validated: 5
EndChar

StartChar: uni008B
Encoding: 139 139 110
Width: 454
Flags: W
LayerCount: 2
Fore
SplineSet
90 -545 m 1,0,-1
 181 -545 l 1,1,-1
 181 -454 l 1,2,-1
 272 -454 l 1,3,-1
 272 -545 l 1,4,-1
 181 -545 l 1,5,-1
 181 -636 l 1,6,-1
 272 -636 l 1,7,-1
 272 -727 l 1,8,-1
 181 -727 l 1,9,-1
 181 -636 l 1,10,-1
 90 -636 l 1,11,-1
 90 -545 l 1,0,-1
272 -363 m 1,12,-1
 363 -363 l 1,13,-1
 363 -454 l 1,14,-1
 272 -454 l 1,15,-1
 272 -363 l 1,12,-1
272 -727 m 1,16,-1
 363 -727 l 1,17,-1
 363 -818 l 1,18,-1
 272 -818 l 1,19,-1
 272 -727 l 1,16,-1
EndSplineSet
Validated: 5
EndChar

StartChar: uni008C
Encoding: 140 140 111
Width: 727
Flags: W
LayerCount: 2
Fore
SplineSet
90 -363 m 1,0,-1
 181 -363 l 1,1,-1
 181 -272 l 1,2,-1
 727 -272 l 1,3,-1
 727 -363 l 1,4,-1
 454 -363 l 1,5,-1
 454 -454 l 1,6,-1
 636 -454 l 1,7,-1
 636 -545 l 1,8,-1
 454 -545 l 1,9,-1
 454 -727 l 1,10,-1
 727 -727 l 1,11,-1
 727 -818 l 1,12,-1
 181 -818 l 1,13,-1
 181 -727 l 1,14,-1
 90 -727 l 1,15,-1
 90 -363 l 1,0,-1
181 -363 m 1,16,-1
 181 -727 l 1,17,-1
 363 -727 l 1,18,-1
 363 -363 l 1,19,-1
 181 -363 l 1,16,-1
EndSplineSet
Validated: 5
EndChar

StartChar: uni008D
Encoding: 141 141 112
Width: 181
Flags: W
LayerCount: 2
Fore
SplineSet
90 -272 m 1,0,-1
 181 -272 l 1,1,-1
 181 -909 l 1,2,-1
 90 -909 l 1,3,-1
 90 -272 l 1,0,-1
EndSplineSet
Validated: 1
EndChar

StartChar: uni008E
Encoding: 142 142 113
Width: 181
Flags: W
LayerCount: 2
Fore
SplineSet
90 -272 m 1,0,-1
 181 -272 l 1,1,-1
 181 -909 l 1,2,-1
 90 -909 l 1,3,-1
 90 -272 l 1,0,-1
EndSplineSet
Validated: 1
EndChar

StartChar: uni008F
Encoding: 143 143 114
Width: 181
Flags: W
LayerCount: 2
Fore
SplineSet
90 -272 m 1,0,-1
 181 -272 l 1,1,-1
 181 -909 l 1,2,-1
 90 -909 l 1,3,-1
 90 -272 l 1,0,-1
EndSplineSet
Validated: 1
EndChar

StartChar: uni0090
Encoding: 144 144 115
Width: 181
Flags: W
LayerCount: 2
Fore
SplineSet
90 -272 m 1,0,-1
 181 -272 l 1,1,-1
 181 -909 l 1,2,-1
 90 -909 l 1,3,-1
 90 -272 l 1,0,-1
EndSplineSet
Validated: 1
EndChar

StartChar: uni0091
Encoding: 145 145 116
Width: 272
Flags: W
LayerCount: 2
Fore
SplineSet
90 -272 m 1,0,-1
 181 -272 l 1,1,-1
 181 -363 l 1,2,-1
 272 -363 l 1,3,-1
 272 -454 l 1,4,-1
 90 -454 l 1,5,-1
 90 -272 l 1,0,-1
181 -181 m 1,6,-1
 272 -181 l 1,7,-1
 272 -272 l 1,8,-1
 181 -272 l 1,9,-1
 181 -181 l 1,6,-1
EndSplineSet
Validated: 5
EndChar

StartChar: uni0092
Encoding: 146 146 117
Width: 272
Flags: W
LayerCount: 2
Fore
SplineSet
90 -181 m 1,0,-1
 272 -181 l 1,1,-1
 272 -363 l 1,2,-1
 181 -363 l 1,3,-1
 181 -454 l 1,4,-1
 90 -454 l 1,5,-1
 90 -363 l 1,6,-1
 181 -363 l 1,7,-1
 181 -272 l 1,8,-1
 90 -272 l 1,9,-1
 90 -181 l 1,0,-1
EndSplineSet
Validated: 5
EndChar

StartChar: uni0093
Encoding: 147 147 118
Width: 636
Flags: W
LayerCount: 2
Fore
SplineSet
90 -272 m 1,0,-1
 181 -272 l 1,1,-1
 181 -363 l 1,2,-1
 272 -363 l 1,3,-1
 272 -454 l 1,4,-1
 90 -454 l 1,5,-1
 90 -272 l 1,0,-1
181 -181 m 1,6,-1
 272 -181 l 1,7,-1
 272 -272 l 1,8,-1
 181 -272 l 1,9,-1
 181 -181 l 1,6,-1
363 -272 m 1,10,-1
 454 -272 l 1,11,-1
 454 -363 l 1,12,-1
 545 -363 l 1,13,-1
 545 -454 l 1,14,-1
 363 -454 l 1,15,-1
 363 -272 l 1,10,-1
454 -181 m 1,16,-1
 545 -181 l 1,17,-1
 545 -272 l 1,18,-1
 454 -272 l 1,19,-1
 454 -181 l 1,16,-1
EndSplineSet
Validated: 5
EndChar

StartChar: uni0094
Encoding: 148 148 119
Width: 636
Flags: W
LayerCount: 2
Fore
SplineSet
90 -181 m 1,0,-1
 272 -181 l 1,1,-1
 272 -363 l 1,2,-1
 181 -363 l 1,3,-1
 181 -272 l 1,4,-1
 90 -272 l 1,5,-1
 90 -181 l 1,0,-1
90 -363 m 1,6,-1
 181 -363 l 1,7,-1
 181 -454 l 1,8,-1
 90 -454 l 1,9,-1
 90 -363 l 1,6,-1
363 -181 m 1,10,-1
 545 -181 l 1,11,-1
 545 -363 l 1,12,-1
 454 -363 l 1,13,-1
 454 -272 l 1,14,-1
 363 -272 l 1,15,-1
 363 -181 l 1,10,-1
363 -363 m 1,16,-1
 454 -363 l 1,17,-1
 454 -454 l 1,18,-1
 363 -454 l 1,19,-1
 363 -363 l 1,16,-1
EndSplineSet
Validated: 5
EndChar

StartChar: uni0095
Encoding: 149 149 120
Width: 272
Flags: W
LayerCount: 2
Fore
SplineSet
90 -454 m 1,0,-1
 272 -454 l 1,1,-1
 272 -636 l 1,2,-1
 90 -636 l 1,3,-1
 90 -454 l 1,0,-1
EndSplineSet
Validated: 1
EndChar

StartChar: uni0096
Encoding: 150 150 121
Width: 454
Flags: W
LayerCount: 2
Fore
SplineSet
90 -545 m 1,0,-1
 454 -545 l 1,1,-1
 454 -636 l 1,2,-1
 90 -636 l 1,3,-1
 90 -545 l 1,0,-1
EndSplineSet
Validated: 1
EndChar

StartChar: uni0097
Encoding: 151 151 122
Width: 727
Flags: W
LayerCount: 2
Fore
SplineSet
90 -545 m 1,0,-1
 727 -545 l 1,1,-1
 727 -636 l 1,2,-1
 90 -636 l 1,3,-1
 90 -545 l 1,0,-1
EndSplineSet
Validated: 1
EndChar

StartChar: uni0098
Encoding: 152 152 123
Width: 454
Flags: W
LayerCount: 2
Fore
SplineSet
90 -363 m 1,0,-1
 181 -363 l 1,1,-1
 181 -272 l 1,2,-1
 272 -272 l 1,3,-1
 272 -363 l 1,4,-1
 181 -363 l 1,5,-1
 181 -454 l 1,6,-1
 90 -454 l 1,7,-1
 90 -363 l 1,0,-1
272 -363 m 1,8,-1
 363 -363 l 1,9,-1
 363 -454 l 1,10,-1
 272 -454 l 1,11,-1
 272 -363 l 1,8,-1
363 -272 m 1,12,-1
 454 -272 l 1,13,-1
 454 -363 l 1,14,-1
 363 -363 l 1,15,-1
 363 -272 l 1,12,-1
EndSplineSet
Validated: 5
EndChar

StartChar: uni0099
Encoding: 153 153 124
Width: 727
Flags: W
LayerCount: 2
Fore
SplineSet
90 -272 m 1,0,-1
 454 -272 l 1,1,-1
 454 -363 l 1,2,-1
 545 -363 l 1,3,-1
 545 -272 l 1,4,-1
 636 -272 l 1,5,-1
 636 -545 l 1,6,-1
 545 -545 l 1,7,-1
 545 -454 l 1,8,-1
 454 -454 l 1,9,-1
 454 -545 l 1,10,-1
 363 -545 l 1,11,-1
 363 -363 l 1,12,-1
 272 -363 l 1,13,-1
 272 -545 l 1,14,-1
 181 -545 l 1,15,-1
 181 -363 l 1,16,-1
 90 -363 l 1,17,-1
 90 -272 l 1,0,-1
EndSplineSet
Validated: 1
EndChar

StartChar: uni009A
Encoding: 154 154 125
Width: 727
Flags: W
LayerCount: 2
Fore
SplineSet
90 -272 m 1,0,-1
 181 -272 l 1,1,-1
 181 -181 l 1,2,-1
 363 -181 l 1,3,-1
 363 -90 l 1,4,-1
 454 -90 l 1,5,-1
 454 0 l 1,6,-1
 545 0 l 1,7,-1
 545 -90 l 1,8,-1
 454 -90 l 1,9,-1
 454 -181 l 1,10,-1
 727 -181 l 1,11,-1
 727 -363 l 1,12,-1
 454 -363 l 1,13,-1
 454 -272 l 1,14,-1
 363 -272 l 1,15,-1
 363 -454 l 1,16,-1
 636 -454 l 1,17,-1
 636 -545 l 1,18,-1
 727 -545 l 1,19,-1
 727 -727 l 1,20,-1
 636 -727 l 1,21,-1
 636 -818 l 1,22,-1
 90 -818 l 1,23,-1
 90 -636 l 1,24,-1
 363 -636 l 1,25,-1
 363 -727 l 1,26,-1
 454 -727 l 1,27,-1
 454 -545 l 1,28,-1
 181 -545 l 1,29,-1
 181 -454 l 1,30,-1
 90 -454 l 1,31,-1
 90 -272 l 1,0,-1
272 0 m 1,32,-1
 363 0 l 1,33,-1
 363 -90 l 1,34,-1
 272 -90 l 1,35,-1
 272 0 l 1,32,-1
EndSplineSet
Validated: 5
EndChar

StartChar: uni009B
Encoding: 155 155 126
Width: 454
Flags: W
LayerCount: 2
Fore
SplineSet
90 -363 m 1,0,-1
 181 -363 l 1,1,-1
 181 -454 l 1,2,-1
 272 -454 l 1,3,-1
 272 -545 l 1,4,-1
 181 -545 l 1,5,-1
 181 -454 l 1,6,-1
 90 -454 l 1,7,-1
 90 -363 l 1,0,-1
90 -727 m 1,8,-1
 181 -727 l 1,9,-1
 181 -818 l 1,10,-1
 90 -818 l 1,11,-1
 90 -727 l 1,8,-1
181 -636 m 1,12,-1
 272 -636 l 1,13,-1
 272 -727 l 1,14,-1
 181 -727 l 1,15,-1
 181 -636 l 1,12,-1
272 -545 m 1,16,-1
 363 -545 l 1,17,-1
 363 -636 l 1,18,-1
 272 -636 l 1,19,-1
 272 -545 l 1,16,-1
EndSplineSet
Validated: 5
EndChar

StartChar: uni009C
Encoding: 156 156 127
Width: 727
Flags: W
LayerCount: 2
Fore
SplineSet
90 -363 m 1,0,-1
 181 -363 l 1,1,-1
 181 -272 l 1,2,-1
 727 -272 l 1,3,-1
 727 -363 l 1,4,-1
 454 -363 l 1,5,-1
 454 -454 l 1,6,-1
 636 -454 l 1,7,-1
 636 -545 l 1,8,-1
 454 -545 l 1,9,-1
 454 -727 l 1,10,-1
 727 -727 l 1,11,-1
 727 -818 l 1,12,-1
 181 -818 l 1,13,-1
 181 -727 l 1,14,-1
 90 -727 l 1,15,-1
 90 -363 l 1,0,-1
181 -363 m 1,16,-1
 181 -727 l 1,17,-1
 363 -727 l 1,18,-1
 363 -363 l 1,19,-1
 181 -363 l 1,16,-1
EndSplineSet
Validated: 5
EndChar

StartChar: uni009D
Encoding: 157 157 128
Width: 181
Flags: W
LayerCount: 2
Fore
SplineSet
90 -272 m 1,0,-1
 181 -272 l 1,1,-1
 181 -909 l 1,2,-1
 90 -909 l 1,3,-1
 90 -272 l 1,0,-1
EndSplineSet
Validated: 1
EndChar

StartChar: uni009E
Encoding: 158 158 129
Width: 181
Flags: W
LayerCount: 2
Fore
SplineSet
90 -272 m 1,0,-1
 181 -272 l 1,1,-1
 181 -909 l 1,2,-1
 90 -909 l 1,3,-1
 90 -272 l 1,0,-1
EndSplineSet
Validated: 1
EndChar

StartChar: uni009F
Encoding: 159 159 130
Width: 181
Flags: W
LayerCount: 2
Fore
SplineSet
90 -272 m 1,0,-1
 181 -272 l 1,1,-1
 181 -909 l 1,2,-1
 90 -909 l 1,3,-1
 90 -272 l 1,0,-1
EndSplineSet
Validated: 1
EndChar

StartChar: exclamdown
Encoding: 161 161 132
Width: 181
Flags: W
LayerCount: 2
Fore
SplineSet
90 -272 m 1,0,-1
 181 -272 l 1,1,-1
 181 -363 l 1,2,-1
 90 -363 l 1,3,-1
 90 -272 l 1,0,-1
90 -454 m 1,4,-1
 181 -454 l 1,5,-1
 181 -1000 l 1,6,-1
 90 -1000 l 1,7,-1
 90 -454 l 1,4,-1
EndSplineSet
Validated: 1
EndChar

StartChar: cent
Encoding: 162 162 133
Width: 454
Flags: W
LayerCount: 2
Fore
SplineSet
90 -545 m 1,0,-1
 181 -545 l 1,1,-1
 181 -454 l 1,2,-1
 363 -454 l 1,3,-1
 363 -363 l 1,4,-1
 454 -363 l 1,5,-1
 454 -545 l 1,6,-1
 181 -545 l 1,7,-1
 181 -727 l 1,8,-1
 90 -727 l 1,9,-1
 90 -545 l 1,0,-1
181 -727 m 1,10,-1
 454 -727 l 1,11,-1
 454 -818 l 1,12,-1
 272 -818 l 1,13,-1
 272 -909 l 1,14,-1
 181 -909 l 1,15,-1
 181 -727 l 1,10,-1
EndSplineSet
Validated: 5
EndChar

StartChar: sterling
Encoding: 163 163 134
Width: 727
Flags: W
LayerCount: 2
Fore
SplineSet
90 -727 m 1,0,-1
 181 -727 l 1,1,-1
 181 -636 l 1,2,-1
 272 -636 l 1,3,-1
 272 -545 l 1,4,-1
 181 -545 l 1,5,-1
 181 -454 l 1,6,-1
 272 -454 l 1,7,-1
 272 -363 l 1,8,-1
 363 -363 l 1,9,-1
 363 -272 l 1,10,-1
 454 -272 l 1,11,-1
 454 -181 l 1,12,-1
 636 -181 l 1,13,-1
 636 -272 l 1,14,-1
 454 -272 l 1,15,-1
 454 -454 l 1,16,-1
 636 -454 l 1,17,-1
 636 -545 l 1,18,-1
 454 -545 l 1,19,-1
 454 -636 l 1,20,-1
 363 -636 l 1,21,-1
 363 -727 l 1,22,-1
 636 -727 l 1,23,-1
 636 -818 l 1,24,-1
 90 -818 l 1,25,-1
 90 -727 l 1,0,-1
636 -272 m 1,26,-1
 727 -272 l 1,27,-1
 727 -363 l 1,28,-1
 636 -363 l 1,29,-1
 636 -272 l 1,26,-1
636 -636 m 1,30,-1
 727 -636 l 1,31,-1
 727 -727 l 1,32,-1
 636 -727 l 1,33,-1
 636 -636 l 1,30,-1
EndSplineSet
Validated: 5
EndChar

StartChar: currency
Encoding: 164 164 135
Width: 454
Flags: W
LayerCount: 2
Fore
SplineSet
90 -181 m 1,0,-1
 181 -181 l 1,1,-1
 181 -272 l 1,2,-1
 363 -272 l 1,3,-1
 363 -454 l 1,4,-1
 181 -454 l 1,5,-1
 181 -272 l 1,6,-1
 90 -272 l 1,7,-1
 90 -181 l 1,0,-1
90 -454 m 1,8,-1
 181 -454 l 1,9,-1
 181 -545 l 1,10,-1
 90 -545 l 1,11,-1
 90 -454 l 1,8,-1
363 -181 m 1,12,-1
 454 -181 l 1,13,-1
 454 -272 l 1,14,-1
 363 -272 l 1,15,-1
 363 -181 l 1,12,-1
363 -454 m 1,16,-1
 454 -454 l 1,17,-1
 454 -545 l 1,18,-1
 363 -545 l 1,19,-1
 363 -454 l 1,16,-1
EndSplineSet
Validated: 5
EndChar

StartChar: yen
Encoding: 165 165 136
Width: 363
Flags: W
LayerCount: 2
Fore
SplineSet
90 -181 m 1,0,-1
 181 -181 l 1,1,-1
 181 -363 l 1,2,-1
 272 -363 l 1,3,-1
 272 -454 l 1,4,-1
 363 -454 l 1,5,-1
 363 -545 l 1,6,-1
 272 -545 l 1,7,-1
 272 -636 l 1,8,-1
 363 -636 l 1,9,-1
 363 -727 l 1,10,-1
 272 -727 l 1,11,-1
 272 -818 l 1,12,-1
 181 -818 l 1,13,-1
 181 -727 l 1,14,-1
 90 -727 l 1,15,-1
 90 -636 l 1,16,-1
 181 -636 l 1,17,-1
 181 -545 l 1,18,-1
 90 -545 l 1,19,-1
 90 -454 l 1,20,-1
 181 -454 l 1,21,-1
 181 -363 l 1,22,-1
 90 -363 l 1,23,-1
 90 -181 l 1,0,-1
272 -181 m 1,24,-1
 363 -181 l 1,25,-1
 363 -363 l 1,26,-1
 272 -363 l 1,27,-1
 272 -181 l 1,24,-1
EndSplineSet
Validated: 5
EndChar

StartChar: brokenbar
Encoding: 166 166 137
Width: 181
Flags: W
LayerCount: 2
Fore
SplineSet
90 -181 m 1,0,-1
 181 -181 l 1,1,-1
 181 -545 l 1,2,-1
 90 -545 l 1,3,-1
 90 -181 l 1,0,-1
90 -636 m 1,4,-1
 181 -636 l 1,5,-1
 181 -1000 l 1,6,-1
 90 -1000 l 1,7,-1
 90 -636 l 1,4,-1
EndSplineSet
Validated: 1
EndChar

StartChar: section
Encoding: 167 167 138
Width: 454
Flags: W
LayerCount: 2
Fore
SplineSet
90 -272 m 1,0,-1
 181 -272 l 1,1,-1
 181 -363 l 1,2,-1
 90 -363 l 1,3,-1
 90 -272 l 1,0,-1
90 -454 m 1,4,-1
 181 -454 l 1,5,-1
 181 -545 l 1,6,-1
 90 -545 l 1,7,-1
 90 -454 l 1,4,-1
90 -727 m 1,8,-1
 181 -727 l 1,9,-1
 181 -818 l 1,10,-1
 90 -818 l 1,11,-1
 90 -727 l 1,8,-1
181 -181 m 1,12,-1
 363 -181 l 1,13,-1
 363 -272 l 1,14,-1
 181 -272 l 1,15,-1
 181 -181 l 1,12,-1
181 -363 m 1,16,-1
 272 -363 l 1,17,-1
 272 -454 l 1,18,-1
 181 -454 l 1,19,-1
 181 -363 l 1,16,-1
181 -545 m 1,20,-1
 272 -545 l 1,21,-1
 272 -454 l 1,22,-1
 363 -454 l 1,23,-1
 363 -545 l 1,24,-1
 454 -545 l 1,25,-1
 454 -636 l 1,26,-1
 363 -636 l 1,27,-1
 363 -545 l 1,28,-1
 272 -545 l 1,29,-1
 272 -636 l 1,30,-1
 363 -636 l 1,31,-1
 363 -727 l 1,32,-1
 272 -727 l 1,33,-1
 272 -636 l 1,34,-1
 181 -636 l 1,35,-1
 181 -545 l 1,20,-1
181 -818 m 1,36,-1
 363 -818 l 1,37,-1
 363 -727 l 1,38,-1
 454 -727 l 1,39,-1
 454 -818 l 1,40,-1
 363 -818 l 1,41,-1
 363 -909 l 1,42,-1
 181 -909 l 1,43,-1
 181 -818 l 1,36,-1
363 -272 m 1,44,-1
 454 -272 l 1,45,-1
 454 -363 l 1,46,-1
 363 -363 l 1,47,-1
 363 -272 l 1,44,-1
EndSplineSet
Validated: 5
EndChar

StartChar: dieresis
Encoding: 168 168 139
Width: 363
Flags: W
LayerCount: 2
Fore
SplineSet
90 -272 m 1,0,-1
 181 -272 l 1,1,-1
 181 -363 l 1,2,-1
 90 -363 l 1,3,-1
 90 -272 l 1,0,-1
272 -272 m 1,4,-1
 363 -272 l 1,5,-1
 363 -363 l 1,6,-1
 272 -363 l 1,7,-1
 272 -272 l 1,4,-1
EndSplineSet
Validated: 1
EndChar

StartChar: copyright
Encoding: 169 169 140
Width: 727
Flags: W
LayerCount: 2
Fore
SplineSet
90 -363 m 1,0,-1
 181 -363 l 1,1,-1
 181 -636 l 1,2,-1
 272 -636 l 1,3,-1
 272 -727 l 1,4,-1
 545 -727 l 1,5,-1
 545 -636 l 1,6,-1
 272 -636 l 1,7,-1
 272 -363 l 1,8,-1
 545 -363 l 1,9,-1
 545 -454 l 1,10,-1
 363 -454 l 1,11,-1
 363 -545 l 1,12,-1
 545 -545 l 1,13,-1
 545 -636 l 1,14,-1
 636 -636 l 1,15,-1
 636 -363 l 1,16,-1
 727 -363 l 1,17,-1
 727 -636 l 1,18,-1
 636 -636 l 1,19,-1
 636 -727 l 1,20,-1
 545 -727 l 1,21,-1
 545 -818 l 1,22,-1
 272 -818 l 1,23,-1
 272 -727 l 1,24,-1
 181 -727 l 1,25,-1
 181 -636 l 1,26,-1
 90 -636 l 1,27,-1
 90 -363 l 1,0,-1
181 -272 m 1,28,-1
 272 -272 l 1,29,-1
 272 -181 l 1,30,-1
 545 -181 l 1,31,-1
 545 -272 l 1,32,-1
 636 -272 l 1,33,-1
 636 -363 l 1,34,-1
 545 -363 l 1,35,-1
 545 -272 l 1,36,-1
 272 -272 l 1,37,-1
 272 -363 l 1,38,-1
 181 -363 l 1,39,-1
 181 -272 l 1,28,-1
EndSplineSet
Validated: 5
EndChar

StartChar: ordfeminine
Encoding: 170 170 141
Width: 727
Flags: W
LayerCount: 2
Fore
SplineSet
181 -181 m 1,0,-1
 454 -181 l 1,1,-1
 454 -272 l 1,2,-1
 181 -272 l 1,3,-1
 181 -181 l 1,0,-1
181 -454 m 1,4,-1
 272 -454 l 1,5,-1
 272 -545 l 1,6,-1
 454 -545 l 1,7,-1
 454 -454 l 1,8,-1
 272 -454 l 1,9,-1
 272 -363 l 1,10,-1
 454 -363 l 1,11,-1
 454 -272 l 1,12,-1
 545 -272 l 1,13,-1
 545 -636 l 1,14,-1
 272 -636 l 1,15,-1
 272 -545 l 1,16,-1
 181 -545 l 1,17,-1
 181 -454 l 1,4,-1
181 -727 m 1,18,-1
 545 -727 l 1,19,-1
 545 -818 l 1,20,-1
 181 -818 l 1,21,-1
 181 -727 l 1,18,-1
EndSplineSet
Validated: 5
EndChar

StartChar: guillemotleft
Encoding: 171 171 142
Width: 727
Flags: W
LayerCount: 2
Fore
SplineSet
181 -545 m 1,0,-1
 272 -545 l 1,1,-1
 272 -454 l 1,2,-1
 363 -454 l 1,3,-1
 363 -545 l 1,4,-1
 272 -545 l 1,5,-1
 272 -636 l 1,6,-1
 363 -636 l 1,7,-1
 363 -727 l 1,8,-1
 272 -727 l 1,9,-1
 272 -636 l 1,10,-1
 181 -636 l 1,11,-1
 181 -545 l 1,0,-1
363 -363 m 1,12,-1
 454 -363 l 1,13,-1
 454 -454 l 1,14,-1
 363 -454 l 1,15,-1
 363 -363 l 1,12,-1
363 -727 m 1,16,-1
 454 -727 l 1,17,-1
 454 -818 l 1,18,-1
 363 -818 l 1,19,-1
 363 -727 l 1,16,-1
EndSplineSet
Validated: 5
EndChar

StartChar: logicalnot
Encoding: 172 172 143
Width: 454
Flags: W
LayerCount: 2
Fore
SplineSet
90 -545 m 1,0,-1
 454 -545 l 1,1,-1
 454 -727 l 1,2,-1
 363 -727 l 1,3,-1
 363 -636 l 1,4,-1
 90 -636 l 1,5,-1
 90 -545 l 1,0,-1
EndSplineSet
Validated: 1
EndChar

StartChar: uni00AD
Encoding: 173 173 144
Width: 181
Flags: W
LayerCount: 2
Fore
SplineSet
90 -545 m 1,0,-1
 181 -545 l 1,1,-1
 181 -636 l 1,2,-1
 90 -636 l 1,3,-1
 90 -545 l 1,0,-1
EndSplineSet
Validated: 1
EndChar

StartChar: registered
Encoding: 174 174 145
Width: 727
Flags: W
LayerCount: 2
Fore
SplineSet
90 -363 m 1,0,-1
 181 -363 l 1,1,-1
 181 -636 l 1,2,-1
 272 -636 l 1,3,-1
 272 -727 l 1,4,-1
 545 -727 l 1,5,-1
 545 -636 l 1,6,-1
 454 -636 l 1,7,-1
 454 -545 l 1,8,-1
 363 -545 l 1,9,-1
 363 -636 l 1,10,-1
 272 -636 l 1,11,-1
 272 -363 l 1,12,-1
 454 -363 l 1,13,-1
 454 -454 l 1,14,-1
 545 -454 l 1,15,-1
 545 -636 l 1,16,-1
 636 -636 l 1,17,-1
 636 -363 l 1,18,-1
 727 -363 l 1,19,-1
 727 -636 l 1,20,-1
 636 -636 l 1,21,-1
 636 -727 l 1,22,-1
 545 -727 l 1,23,-1
 545 -818 l 1,24,-1
 272 -818 l 1,25,-1
 272 -727 l 1,26,-1
 181 -727 l 1,27,-1
 181 -636 l 1,28,-1
 90 -636 l 1,29,-1
 90 -363 l 1,0,-1
181 -272 m 1,30,-1
 272 -272 l 1,31,-1
 272 -181 l 1,32,-1
 545 -181 l 1,33,-1
 545 -272 l 1,34,-1
 636 -272 l 1,35,-1
 636 -363 l 1,36,-1
 545 -363 l 1,37,-1
 545 -272 l 1,38,-1
 272 -272 l 1,39,-1
 272 -363 l 1,40,-1
 181 -363 l 1,41,-1
 181 -272 l 1,30,-1
EndSplineSet
Validated: 5
EndChar

StartChar: macron
Encoding: 175 175 146
Width: 454
Flags: W
LayerCount: 2
Fore
SplineSet
0 -90 m 1,0,-1
 454 -90 l 1,1,-1
 454 -181 l 1,2,-1
 0 -181 l 1,3,-1
 0 -90 l 1,0,-1
EndSplineSet
Validated: 1
EndChar

StartChar: degree
Encoding: 176 176 147
Width: 181
Flags: W
LayerCount: 2
Fore
SplineSet
90 -272 m 1,0,-1
 181 -272 l 1,1,-1
 181 -363 l 1,2,-1
 90 -363 l 1,3,-1
 90 -272 l 1,0,-1
EndSplineSet
Validated: 1
EndChar

StartChar: plusminus
Encoding: 177 177 148
Width: 727
Flags: W
LayerCount: 2
Fore
SplineSet
181 -454 m 1,0,-1
 272 -454 l 1,1,-1
 272 -363 l 1,2,-1
 454 -363 l 1,3,-1
 454 -454 l 1,4,-1
 545 -454 l 1,5,-1
 545 -545 l 1,6,-1
 454 -545 l 1,7,-1
 454 -636 l 1,8,-1
 272 -636 l 1,9,-1
 272 -545 l 1,10,-1
 181 -545 l 1,11,-1
 181 -454 l 1,0,-1
181 -727 m 1,12,-1
 545 -727 l 1,13,-1
 545 -818 l 1,14,-1
 181 -818 l 1,15,-1
 181 -727 l 1,12,-1
EndSplineSet
Validated: 1
EndChar

StartChar: uni00B2
Encoding: 178 178 149
Width: 454
Flags: W
LayerCount: 2
Fore
SplineSet
90 -272 m 1,0,-1
 272 -272 l 1,1,-1
 272 -363 l 1,2,-1
 363 -363 l 1,3,-1
 363 -454 l 1,4,-1
 272 -454 l 1,5,-1
 272 -363 l 1,6,-1
 90 -363 l 1,7,-1
 90 -272 l 1,0,-1
90 -545 m 1,8,-1
 181 -545 l 1,9,-1
 181 -454 l 1,10,-1
 272 -454 l 1,11,-1
 272 -545 l 1,12,-1
 363 -545 l 1,13,-1
 363 -636 l 1,14,-1
 90 -636 l 1,15,-1
 90 -545 l 1,8,-1
EndSplineSet
Validated: 5
EndChar

StartChar: uni00B3
Encoding: 179 179 150
Width: 454
Flags: W
LayerCount: 2
Fore
SplineSet
90 -272 m 1,0,-1
 272 -272 l 1,1,-1
 272 -363 l 1,2,-1
 90 -363 l 1,3,-1
 90 -272 l 1,0,-1
90 -545 m 1,4,-1
 181 -545 l 1,5,-1
 181 -454 l 1,6,-1
 272 -454 l 1,7,-1
 272 -363 l 1,8,-1
 363 -363 l 1,9,-1
 363 -545 l 1,10,-1
 272 -545 l 1,11,-1
 272 -636 l 1,12,-1
 90 -636 l 1,13,-1
 90 -545 l 1,4,-1
EndSplineSet
Validated: 5
EndChar

StartChar: acute
Encoding: 180 180 151
Width: 272
Flags: W
LayerCount: 2
Fore
SplineSet
90 -272 m 1,0,-1
 181 -272 l 1,1,-1
 181 -363 l 1,2,-1
 90 -363 l 1,3,-1
 90 -272 l 1,0,-1
181 -181 m 1,4,-1
 272 -181 l 1,5,-1
 272 -272 l 1,6,-1
 181 -272 l 1,7,-1
 181 -181 l 1,4,-1
EndSplineSet
Validated: 5
EndChar

StartChar: mu
Encoding: 181 181 152
Width: 454
Flags: W
LayerCount: 2
Fore
SplineSet
90 -454 m 1,0,-1
 181 -454 l 1,1,-1
 181 -727 l 1,2,-1
 272 -727 l 1,3,-1
 272 -818 l 1,4,-1
 181 -818 l 1,5,-1
 181 -1000 l 1,6,-1
 90 -1000 l 1,7,-1
 90 -454 l 1,0,-1
272 -454 m 1,8,-1
 363 -454 l 1,9,-1
 363 -727 l 1,10,-1
 272 -727 l 1,11,-1
 272 -454 l 1,8,-1
363 -727 m 1,12,-1
 454 -727 l 1,13,-1
 454 -818 l 1,14,-1
 363 -818 l 1,15,-1
 363 -727 l 1,12,-1
EndSplineSet
Validated: 5
EndChar

StartChar: paragraph
Encoding: 182 182 153
Width: 727
Flags: W
LayerCount: 2
Fore
SplineSet
90 -454 m 1,0,-1
 181 -454 l 1,1,-1
 181 -363 l 1,2,-1
 636 -363 l 1,3,-1
 636 -454 l 1,4,-1
 545 -454 l 1,5,-1
 545 -818 l 1,6,-1
 454 -818 l 1,7,-1
 454 -454 l 1,8,-1
 363 -454 l 1,9,-1
 363 -818 l 1,10,-1
 272 -818 l 1,11,-1
 272 -636 l 1,12,-1
 181 -636 l 1,13,-1
 181 -545 l 1,14,-1
 90 -545 l 1,15,-1
 90 -454 l 1,0,-1
EndSplineSet
Validated: 1
EndChar

StartChar: periodcentered
Encoding: 183 183 154
Width: 181
Flags: W
LayerCount: 2
Fore
SplineSet
90 -454 m 1,0,-1
 181 -454 l 1,1,-1
 181 -545 l 1,2,-1
 90 -545 l 1,3,-1
 90 -454 l 1,0,-1
EndSplineSet
Validated: 1
EndChar

StartChar: cedilla
Encoding: 184 184 155
Width: 272
Flags: W
LayerCount: 2
Fore
SplineSet
90 -909 m 1,0,-1
 181 -909 l 1,1,-1
 181 -818 l 1,2,-1
 272 -818 l 1,3,-1
 272 -1000 l 1,4,-1
 90 -1000 l 1,5,-1
 90 -909 l 1,0,-1
EndSplineSet
Validated: 1
EndChar

StartChar: uni00B9
Encoding: 185 185 156
Width: 454
Flags: W
LayerCount: 2
Fore
SplineSet
90 -363 m 1,0,-1
 181 -363 l 1,1,-1
 181 -272 l 1,2,-1
 272 -272 l 1,3,-1
 272 -545 l 1,4,-1
 363 -545 l 1,5,-1
 363 -636 l 1,6,-1
 90 -636 l 1,7,-1
 90 -545 l 1,8,-1
 181 -545 l 1,9,-1
 181 -454 l 1,10,-1
 90 -454 l 1,11,-1
 90 -363 l 1,0,-1
EndSplineSet
Validated: 1
EndChar

StartChar: ordmasculine
Encoding: 186 186 157
Width: 454
Flags: W
LayerCount: 2
Fore
SplineSet
90 -363 m 1,0,-1
 181 -363 l 1,1,-1
 181 -272 l 1,2,-1
 272 -272 l 1,3,-1
 272 -363 l 1,4,-1
 181 -363 l 1,5,-1
 181 -545 l 1,6,-1
 90 -545 l 1,7,-1
 90 -363 l 1,0,-1
181 -545 m 1,8,-1
 272 -545 l 1,9,-1
 272 -636 l 1,10,-1
 181 -636 l 1,11,-1
 181 -545 l 1,8,-1
272 -363 m 1,12,-1
 363 -363 l 1,13,-1
 363 -545 l 1,14,-1
 272 -545 l 1,15,-1
 272 -363 l 1,12,-1
EndSplineSet
Validated: 5
EndChar

StartChar: guillemotright
Encoding: 187 187 158
Width: 727
Flags: W
LayerCount: 2
Fore
SplineSet
181 -363 m 1,0,-1
 272 -363 l 1,1,-1
 272 -454 l 1,2,-1
 181 -454 l 1,3,-1
 181 -363 l 1,0,-1
181 -727 m 1,4,-1
 272 -727 l 1,5,-1
 272 -818 l 1,6,-1
 181 -818 l 1,7,-1
 181 -727 l 1,4,-1
272 -454 m 1,8,-1
 363 -454 l 1,9,-1
 363 -545 l 1,10,-1
 272 -545 l 1,11,-1
 272 -454 l 1,8,-1
272 -636 m 1,12,-1
 363 -636 l 1,13,-1
 363 -545 l 1,14,-1
 454 -545 l 1,15,-1
 454 -636 l 1,16,-1
 363 -636 l 1,17,-1
 363 -727 l 1,18,-1
 272 -727 l 1,19,-1
 272 -636 l 1,12,-1
EndSplineSet
Validated: 5
EndChar

StartChar: onequarter
Encoding: 188 188 159
Width: 545
Flags: W
LayerCount: 2
Fore
SplineSet
90 -181 m 1,0,-1
 181 -181 l 1,1,-1
 181 -454 l 1,2,-1
 90 -454 l 1,3,-1
 90 -181 l 1,0,-1
90 -636 m 1,4,-1
 181 -636 l 1,5,-1
 181 -727 l 1,6,-1
 90 -727 l 1,7,-1
 90 -636 l 1,4,-1
181 -545 m 1,8,-1
 272 -545 l 1,9,-1
 272 -636 l 1,10,-1
 181 -636 l 1,11,-1
 181 -545 l 1,8,-1
272 -454 m 1,12,-1
 363 -454 l 1,13,-1
 363 -545 l 1,14,-1
 272 -545 l 1,15,-1
 272 -454 l 1,12,-1
363 -363 m 1,16,-1
 454 -363 l 1,17,-1
 454 -454 l 1,18,-1
 363 -454 l 1,19,-1
 363 -363 l 1,16,-1
363 -636 m 1,20,-1
 454 -636 l 1,21,-1
 454 -545 l 1,22,-1
 545 -545 l 1,23,-1
 545 -818 l 1,24,-1
 454 -818 l 1,25,-1
 454 -727 l 1,26,-1
 363 -727 l 1,27,-1
 363 -636 l 1,20,-1
454 -272 m 1,28,-1
 545 -272 l 1,29,-1
 545 -363 l 1,30,-1
 454 -363 l 1,31,-1
 454 -272 l 1,28,-1
EndSplineSet
Validated: 5
EndChar

StartChar: onehalf
Encoding: 189 189 160
Width: 545
Flags: W
LayerCount: 2
Fore
SplineSet
90 -181 m 1,0,-1
 181 -181 l 1,1,-1
 181 -454 l 1,2,-1
 90 -454 l 1,3,-1
 90 -181 l 1,0,-1
90 -636 m 1,4,-1
 181 -636 l 1,5,-1
 181 -727 l 1,6,-1
 90 -727 l 1,7,-1
 90 -636 l 1,4,-1
181 -545 m 1,8,-1
 272 -545 l 1,9,-1
 272 -636 l 1,10,-1
 181 -636 l 1,11,-1
 181 -545 l 1,8,-1
272 -454 m 1,12,-1
 363 -454 l 1,13,-1
 363 -545 l 1,14,-1
 272 -545 l 1,15,-1
 272 -454 l 1,12,-1
363 -363 m 1,16,-1
 454 -363 l 1,17,-1
 454 -454 l 1,18,-1
 363 -454 l 1,19,-1
 363 -363 l 1,16,-1
363 -545 m 1,20,-1
 545 -545 l 1,21,-1
 545 -818 l 1,22,-1
 363 -818 l 1,23,-1
 363 -727 l 1,24,-1
 454 -727 l 1,25,-1
 454 -636 l 1,26,-1
 363 -636 l 1,27,-1
 363 -545 l 1,20,-1
454 -272 m 1,28,-1
 545 -272 l 1,29,-1
 545 -363 l 1,30,-1
 454 -363 l 1,31,-1
 454 -272 l 1,28,-1
EndSplineSet
Validated: 5
EndChar

StartChar: threequarters
Encoding: 190 190 161
Width: 545
Flags: W
LayerCount: 2
Fore
SplineSet
90 -181 m 1,0,-1
 272 -181 l 1,1,-1
 272 -454 l 1,2,-1
 90 -454 l 1,3,-1
 90 -363 l 1,4,-1
 181 -363 l 1,5,-1
 181 -272 l 1,6,-1
 90 -272 l 1,7,-1
 90 -181 l 1,0,-1
90 -636 m 1,8,-1
 181 -636 l 1,9,-1
 181 -727 l 1,10,-1
 90 -727 l 1,11,-1
 90 -636 l 1,8,-1
181 -545 m 1,12,-1
 272 -545 l 1,13,-1
 272 -636 l 1,14,-1
 181 -636 l 1,15,-1
 181 -545 l 1,12,-1
272 -454 m 1,16,-1
 363 -454 l 1,17,-1
 363 -545 l 1,18,-1
 272 -545 l 1,19,-1
 272 -454 l 1,16,-1
363 -363 m 1,20,-1
 454 -363 l 1,21,-1
 454 -454 l 1,22,-1
 363 -454 l 1,23,-1
 363 -363 l 1,20,-1
363 -636 m 1,24,-1
 454 -636 l 1,25,-1
 454 -545 l 1,26,-1
 545 -545 l 1,27,-1
 545 -818 l 1,28,-1
 454 -818 l 1,29,-1
 454 -727 l 1,30,-1
 363 -727 l 1,31,-1
 363 -636 l 1,24,-1
454 -272 m 1,32,-1
 545 -272 l 1,33,-1
 545 -363 l 1,34,-1
 454 -363 l 1,35,-1
 454 -272 l 1,32,-1
EndSplineSet
Validated: 5
EndChar

StartChar: questiondown
Encoding: 191 191 162
Width: 454
Flags: W
LayerCount: 2
Fore
SplineSet
90 -727 m 1,0,-1
 181 -727 l 1,1,-1
 181 -909 l 1,2,-1
 90 -909 l 1,3,-1
 90 -727 l 1,0,-1
181 -636 m 1,4,-1
 272 -636 l 1,5,-1
 272 -454 l 1,6,-1
 363 -454 l 1,7,-1
 363 -636 l 1,8,-1
 272 -636 l 1,9,-1
 272 -727 l 1,10,-1
 181 -727 l 1,11,-1
 181 -636 l 1,4,-1
181 -909 m 1,12,-1
 363 -909 l 1,13,-1
 363 -1000 l 1,14,-1
 181 -1000 l 1,15,-1
 181 -909 l 1,12,-1
272 -272 m 1,16,-1
 363 -272 l 1,17,-1
 363 -363 l 1,18,-1
 272 -363 l 1,19,-1
 272 -272 l 1,16,-1
363 -818 m 1,20,-1
 454 -818 l 1,21,-1
 454 -909 l 1,22,-1
 363 -909 l 1,23,-1
 363 -818 l 1,20,-1
EndSplineSet
Validated: 5
EndChar

StartChar: Agrave
Encoding: 192 192 163
Width: 727
Flags: W
LayerCount: 2
Fore
SplineSet
90 -272 m 1,0,-1
 181 -272 l 1,1,-1
 181 -181 l 1,2,-1
 363 -181 l 1,3,-1
 363 -90 l 1,4,-1
 454 -90 l 1,5,-1
 454 -181 l 1,6,-1
 636 -181 l 1,7,-1
 636 -272 l 1,8,-1
 727 -272 l 1,9,-1
 727 -818 l 1,10,-1
 454 -818 l 1,11,-1
 454 -545 l 1,12,-1
 363 -545 l 1,13,-1
 363 -818 l 1,14,-1
 90 -818 l 1,15,-1
 90 -272 l 1,0,-1
272 0 m 1,16,-1
 363 0 l 1,17,-1
 363 -90 l 1,18,-1
 272 -90 l 1,19,-1
 272 0 l 1,16,-1
363 -272 m 1,20,-1
 363 -454 l 1,21,-1
 454 -454 l 1,22,-1
 454 -272 l 1,23,-1
 363 -272 l 1,20,-1
EndSplineSet
Validated: 5
EndChar

StartChar: Aacute
Encoding: 193 193 164
Width: 727
Flags: W
LayerCount: 2
Fore
SplineSet
90 -272 m 1,0,-1
 181 -272 l 1,1,-1
 181 -181 l 1,2,-1
 363 -181 l 1,3,-1
 363 -90 l 1,4,-1
 454 -90 l 1,5,-1
 454 0 l 1,6,-1
 545 0 l 1,7,-1
 545 -90 l 1,8,-1
 454 -90 l 1,9,-1
 454 -181 l 1,10,-1
 636 -181 l 1,11,-1
 636 -272 l 1,12,-1
 727 -272 l 1,13,-1
 727 -818 l 1,14,-1
 454 -818 l 1,15,-1
 454 -545 l 1,16,-1
 363 -545 l 1,17,-1
 363 -818 l 1,18,-1
 90 -818 l 1,19,-1
 90 -272 l 1,0,-1
363 -272 m 1,20,-1
 363 -454 l 1,21,-1
 454 -454 l 1,22,-1
 454 -272 l 1,23,-1
 363 -272 l 1,20,-1
EndSplineSet
Validated: 5
EndChar

StartChar: Acircumflex
Encoding: 194 194 165
Width: 727
Flags: W
LayerCount: 2
Fore
SplineSet
90 -272 m 1,0,-1
 181 -272 l 1,1,-1
 181 -181 l 1,2,-1
 272 -181 l 1,3,-1
 272 -90 l 1,4,-1
 363 -90 l 1,5,-1
 363 -181 l 1,6,-1
 454 -181 l 1,7,-1
 454 -90 l 1,8,-1
 545 -90 l 1,9,-1
 545 -181 l 1,10,-1
 636 -181 l 1,11,-1
 636 -272 l 1,12,-1
 727 -272 l 1,13,-1
 727 -818 l 1,14,-1
 454 -818 l 1,15,-1
 454 -545 l 1,16,-1
 363 -545 l 1,17,-1
 363 -818 l 1,18,-1
 90 -818 l 1,19,-1
 90 -272 l 1,0,-1
363 0 m 1,20,-1
 454 0 l 1,21,-1
 454 -90 l 1,22,-1
 363 -90 l 1,23,-1
 363 0 l 1,20,-1
363 -272 m 1,24,-1
 363 -454 l 1,25,-1
 454 -454 l 1,26,-1
 454 -272 l 1,27,-1
 363 -272 l 1,24,-1
EndSplineSet
Validated: 5
EndChar

StartChar: Atilde
Encoding: 195 195 166
Width: 727
Flags: W
LayerCount: 2
Fore
SplineSet
90 -272 m 1,0,-1
 181 -272 l 1,1,-1
 181 -181 l 1,2,-1
 272 -181 l 1,3,-1
 272 -90 l 1,4,-1
 363 -90 l 1,5,-1
 363 -181 l 1,6,-1
 454 -181 l 1,7,-1
 454 -90 l 1,8,-1
 545 -90 l 1,9,-1
 545 0 l 1,10,-1
 636 0 l 1,11,-1
 636 -90 l 1,12,-1
 545 -90 l 1,13,-1
 545 -181 l 1,14,-1
 636 -181 l 1,15,-1
 636 -272 l 1,16,-1
 727 -272 l 1,17,-1
 727 -818 l 1,18,-1
 454 -818 l 1,19,-1
 454 -545 l 1,20,-1
 363 -545 l 1,21,-1
 363 -818 l 1,22,-1
 90 -818 l 1,23,-1
 90 -272 l 1,0,-1
363 0 m 1,24,-1
 454 0 l 1,25,-1
 454 -90 l 1,26,-1
 363 -90 l 1,27,-1
 363 0 l 1,24,-1
363 -272 m 1,28,-1
 363 -454 l 1,29,-1
 454 -454 l 1,30,-1
 454 -272 l 1,31,-1
 363 -272 l 1,28,-1
EndSplineSet
Validated: 5
EndChar

StartChar: Adieresis
Encoding: 196 196 167
Width: 727
Flags: W
LayerCount: 2
Fore
SplineSet
90 0 m 1,0,-1
 363 0 l 1,1,-1
 363 -90 l 1,2,-1
 90 -90 l 1,3,-1
 90 0 l 1,0,-1
90 -272 m 1,4,-1
 181 -272 l 1,5,-1
 181 -181 l 1,6,-1
 636 -181 l 1,7,-1
 636 -272 l 1,8,-1
 727 -272 l 1,9,-1
 727 -818 l 1,10,-1
 454 -818 l 1,11,-1
 454 -545 l 1,12,-1
 363 -545 l 1,13,-1
 363 -818 l 1,14,-1
 90 -818 l 1,15,-1
 90 -272 l 1,4,-1
363 -272 m 1,16,-1
 363 -454 l 1,17,-1
 454 -454 l 1,18,-1
 454 -272 l 1,19,-1
 363 -272 l 1,16,-1
454 0 m 1,20,-1
 727 0 l 1,21,-1
 727 -90 l 1,22,-1
 454 -90 l 1,23,-1
 454 0 l 1,20,-1
EndSplineSet
Validated: 1
EndChar

StartChar: Aring
Encoding: 197 197 168
Width: 727
Flags: W
LayerCount: 2
Fore
SplineSet
90 -272 m 1,0,-1
 181 -272 l 1,1,-1
 181 -181 l 1,2,-1
 272 -181 l 1,3,-1
 272 -90 l 1,4,-1
 363 -90 l 1,5,-1
 363 -181 l 1,6,-1
 454 -181 l 1,7,-1
 454 -90 l 1,8,-1
 545 -90 l 1,9,-1
 545 -181 l 1,10,-1
 636 -181 l 1,11,-1
 636 -272 l 1,12,-1
 727 -272 l 1,13,-1
 727 -818 l 1,14,-1
 454 -818 l 1,15,-1
 454 -545 l 1,16,-1
 363 -545 l 1,17,-1
 363 -818 l 1,18,-1
 90 -818 l 1,19,-1
 90 -272 l 1,0,-1
363 0 m 1,20,-1
 454 0 l 1,21,-1
 454 -90 l 1,22,-1
 363 -90 l 1,23,-1
 363 0 l 1,20,-1
363 -272 m 1,24,-1
 363 -454 l 1,25,-1
 454 -454 l 1,26,-1
 454 -272 l 1,27,-1
 363 -272 l 1,24,-1
EndSplineSet
Validated: 5
EndChar

StartChar: AE
Encoding: 198 198 169
Width: 727
Flags: W
LayerCount: 2
Fore
SplineSet
90 -363 m 1,0,-1
 181 -363 l 1,1,-1
 181 -272 l 1,2,-1
 727 -272 l 1,3,-1
 727 -363 l 1,4,-1
 454 -363 l 1,5,-1
 454 -454 l 1,6,-1
 636 -454 l 1,7,-1
 636 -545 l 1,8,-1
 454 -545 l 1,9,-1
 454 -727 l 1,10,-1
 727 -727 l 1,11,-1
 727 -818 l 1,12,-1
 363 -818 l 1,13,-1
 363 -545 l 1,14,-1
 181 -545 l 1,15,-1
 181 -818 l 1,16,-1
 90 -818 l 1,17,-1
 90 -363 l 1,0,-1
181 -363 m 1,18,-1
 181 -454 l 1,19,-1
 363 -454 l 1,20,-1
 363 -363 l 1,21,-1
 181 -363 l 1,18,-1
EndSplineSet
Validated: 5
EndChar

StartChar: Ccedilla
Encoding: 199 199 170
Width: 727
Flags: W
LayerCount: 2
Fore
SplineSet
90 -272 m 1,0,-1
 181 -272 l 1,1,-1
 181 -181 l 1,2,-1
 636 -181 l 1,3,-1
 636 -272 l 1,4,-1
 727 -272 l 1,5,-1
 727 -363 l 1,6,-1
 454 -363 l 1,7,-1
 454 -272 l 1,8,-1
 363 -272 l 1,9,-1
 363 -727 l 1,10,-1
 454 -727 l 1,11,-1
 454 -636 l 1,12,-1
 727 -636 l 1,13,-1
 727 -727 l 1,14,-1
 636 -727 l 1,15,-1
 636 -818 l 1,16,-1
 545 -818 l 1,17,-1
 545 -909 l 1,18,-1
 454 -909 l 1,19,-1
 454 -1000 l 1,20,-1
 272 -1000 l 1,21,-1
 272 -909 l 1,22,-1
 363 -909 l 1,23,-1
 363 -818 l 1,24,-1
 181 -818 l 1,25,-1
 181 -727 l 1,26,-1
 90 -727 l 1,27,-1
 90 -272 l 1,0,-1
EndSplineSet
Validated: 1
EndChar

StartChar: Egrave
Encoding: 200 200 171
Width: 727
Flags: W
LayerCount: 2
Fore
SplineSet
90 -272 m 1,0,-1
 181 -272 l 1,1,-1
 181 -181 l 1,2,-1
 363 -181 l 1,3,-1
 363 -90 l 1,4,-1
 454 -90 l 1,5,-1
 454 -181 l 1,6,-1
 727 -181 l 1,7,-1
 727 -363 l 1,8,-1
 454 -363 l 1,9,-1
 454 -272 l 1,10,-1
 363 -272 l 1,11,-1
 363 -454 l 1,12,-1
 545 -454 l 1,13,-1
 545 -545 l 1,14,-1
 363 -545 l 1,15,-1
 363 -727 l 1,16,-1
 454 -727 l 1,17,-1
 454 -636 l 1,18,-1
 727 -636 l 1,19,-1
 727 -818 l 1,20,-1
 181 -818 l 1,21,-1
 181 -727 l 1,22,-1
 90 -727 l 1,23,-1
 90 -272 l 1,0,-1
272 0 m 1,24,-1
 363 0 l 1,25,-1
 363 -90 l 1,26,-1
 272 -90 l 1,27,-1
 272 0 l 1,24,-1
EndSplineSet
Validated: 5
EndChar

StartChar: Eacute
Encoding: 201 201 172
Width: 727
Flags: W
LayerCount: 2
Fore
SplineSet
90 -272 m 1,0,-1
 181 -272 l 1,1,-1
 181 -181 l 1,2,-1
 363 -181 l 1,3,-1
 363 -90 l 1,4,-1
 454 -90 l 1,5,-1
 454 0 l 1,6,-1
 545 0 l 1,7,-1
 545 -90 l 1,8,-1
 454 -90 l 1,9,-1
 454 -181 l 1,10,-1
 727 -181 l 1,11,-1
 727 -363 l 1,12,-1
 454 -363 l 1,13,-1
 454 -272 l 1,14,-1
 363 -272 l 1,15,-1
 363 -454 l 1,16,-1
 545 -454 l 1,17,-1
 545 -545 l 1,18,-1
 363 -545 l 1,19,-1
 363 -727 l 1,20,-1
 454 -727 l 1,21,-1
 454 -636 l 1,22,-1
 727 -636 l 1,23,-1
 727 -818 l 1,24,-1
 181 -818 l 1,25,-1
 181 -727 l 1,26,-1
 90 -727 l 1,27,-1
 90 -272 l 1,0,-1
EndSplineSet
Validated: 5
EndChar

StartChar: Ecircumflex
Encoding: 202 202 173
Width: 727
Flags: W
LayerCount: 2
Fore
SplineSet
90 -272 m 1,0,-1
 181 -272 l 1,1,-1
 181 -181 l 1,2,-1
 272 -181 l 1,3,-1
 272 -90 l 1,4,-1
 363 -90 l 1,5,-1
 363 -181 l 1,6,-1
 454 -181 l 1,7,-1
 454 -90 l 1,8,-1
 545 -90 l 1,9,-1
 545 -181 l 1,10,-1
 727 -181 l 1,11,-1
 727 -363 l 1,12,-1
 454 -363 l 1,13,-1
 454 -272 l 1,14,-1
 363 -272 l 1,15,-1
 363 -454 l 1,16,-1
 545 -454 l 1,17,-1
 545 -545 l 1,18,-1
 363 -545 l 1,19,-1
 363 -727 l 1,20,-1
 454 -727 l 1,21,-1
 454 -636 l 1,22,-1
 727 -636 l 1,23,-1
 727 -818 l 1,24,-1
 181 -818 l 1,25,-1
 181 -727 l 1,26,-1
 90 -727 l 1,27,-1
 90 -272 l 1,0,-1
363 0 m 1,28,-1
 454 0 l 1,29,-1
 454 -90 l 1,30,-1
 363 -90 l 1,31,-1
 363 0 l 1,28,-1
EndSplineSet
Validated: 5
EndChar

StartChar: Edieresis
Encoding: 203 203 174
Width: 727
Flags: W
LayerCount: 2
Fore
SplineSet
90 0 m 1,0,-1
 363 0 l 1,1,-1
 363 -90 l 1,2,-1
 90 -90 l 1,3,-1
 90 0 l 1,0,-1
90 -272 m 1,4,-1
 181 -272 l 1,5,-1
 181 -181 l 1,6,-1
 727 -181 l 1,7,-1
 727 -363 l 1,8,-1
 454 -363 l 1,9,-1
 454 -272 l 1,10,-1
 363 -272 l 1,11,-1
 363 -454 l 1,12,-1
 545 -454 l 1,13,-1
 545 -545 l 1,14,-1
 363 -545 l 1,15,-1
 363 -727 l 1,16,-1
 454 -727 l 1,17,-1
 454 -636 l 1,18,-1
 727 -636 l 1,19,-1
 727 -818 l 1,20,-1
 181 -818 l 1,21,-1
 181 -727 l 1,22,-1
 90 -727 l 1,23,-1
 90 -272 l 1,4,-1
454 0 m 1,24,-1
 727 0 l 1,25,-1
 727 -90 l 1,26,-1
 454 -90 l 1,27,-1
 454 0 l 1,24,-1
EndSplineSet
Validated: 1
EndChar

StartChar: Igrave
Encoding: 204 204 175
Width: 727
Flags: W
LayerCount: 2
Fore
SplineSet
90 -181 m 1,0,-1
 363 -181 l 1,1,-1
 363 -90 l 1,2,-1
 272 -90 l 1,3,-1
 272 0 l 1,4,-1
 363 0 l 1,5,-1
 363 -90 l 1,6,-1
 454 -90 l 1,7,-1
 454 -181 l 1,8,-1
 727 -181 l 1,9,-1
 727 -272 l 1,10,-1
 545 -272 l 1,11,-1
 545 -727 l 1,12,-1
 727 -727 l 1,13,-1
 727 -818 l 1,14,-1
 90 -818 l 1,15,-1
 90 -727 l 1,16,-1
 272 -727 l 1,17,-1
 272 -272 l 1,18,-1
 90 -272 l 1,19,-1
 90 -181 l 1,0,-1
EndSplineSet
Validated: 5
EndChar

StartChar: Iacute
Encoding: 205 205 176
Width: 727
Flags: W
LayerCount: 2
Fore
SplineSet
90 -181 m 1,0,-1
 363 -181 l 1,1,-1
 363 -90 l 1,2,-1
 454 -90 l 1,3,-1
 454 -181 l 1,4,-1
 727 -181 l 1,5,-1
 727 -272 l 1,6,-1
 545 -272 l 1,7,-1
 545 -727 l 1,8,-1
 727 -727 l 1,9,-1
 727 -818 l 1,10,-1
 90 -818 l 1,11,-1
 90 -727 l 1,12,-1
 272 -727 l 1,13,-1
 272 -272 l 1,14,-1
 90 -272 l 1,15,-1
 90 -181 l 1,0,-1
454 0 m 1,16,-1
 545 0 l 1,17,-1
 545 -90 l 1,18,-1
 454 -90 l 1,19,-1
 454 0 l 1,16,-1
EndSplineSet
Validated: 5
EndChar

StartChar: Icircumflex
Encoding: 206 206 177
Width: 727
Flags: W
LayerCount: 2
Fore
SplineSet
90 -181 m 1,0,-1
 272 -181 l 1,1,-1
 272 -90 l 1,2,-1
 363 -90 l 1,3,-1
 363 -181 l 1,4,-1
 454 -181 l 1,5,-1
 454 -90 l 1,6,-1
 363 -90 l 1,7,-1
 363 0 l 1,8,-1
 454 0 l 1,9,-1
 454 -90 l 1,10,-1
 545 -90 l 1,11,-1
 545 -181 l 1,12,-1
 727 -181 l 1,13,-1
 727 -272 l 1,14,-1
 545 -272 l 1,15,-1
 545 -727 l 1,16,-1
 727 -727 l 1,17,-1
 727 -818 l 1,18,-1
 90 -818 l 1,19,-1
 90 -727 l 1,20,-1
 272 -727 l 1,21,-1
 272 -272 l 1,22,-1
 90 -272 l 1,23,-1
 90 -181 l 1,0,-1
EndSplineSet
Validated: 5
EndChar

StartChar: Idieresis
Encoding: 207 207 178
Width: 727
Flags: W
LayerCount: 2
Fore
SplineSet
90 0 m 1,0,-1
 363 0 l 1,1,-1
 363 -90 l 1,2,-1
 90 -90 l 1,3,-1
 90 0 l 1,0,-1
90 -181 m 1,4,-1
 727 -181 l 1,5,-1
 727 -272 l 1,6,-1
 545 -272 l 1,7,-1
 545 -727 l 1,8,-1
 727 -727 l 1,9,-1
 727 -818 l 1,10,-1
 90 -818 l 1,11,-1
 90 -727 l 1,12,-1
 272 -727 l 1,13,-1
 272 -272 l 1,14,-1
 90 -272 l 1,15,-1
 90 -181 l 1,4,-1
454 0 m 1,16,-1
 727 0 l 1,17,-1
 727 -90 l 1,18,-1
 454 -90 l 1,19,-1
 454 0 l 1,16,-1
EndSplineSet
Validated: 1
EndChar

StartChar: Eth
Encoding: 208 208 179
Width: 727
Flags: W
LayerCount: 2
Fore
SplineSet
0 -454 m 1,0,-1
 90 -454 l 1,1,-1
 90 -181 l 1,2,-1
 636 -181 l 1,3,-1
 636 -272 l 1,4,-1
 727 -272 l 1,5,-1
 727 -727 l 1,6,-1
 636 -727 l 1,7,-1
 636 -818 l 1,8,-1
 90 -818 l 1,9,-1
 90 -545 l 1,10,-1
 0 -545 l 1,11,-1
 0 -454 l 1,0,-1
363 -272 m 1,12,-1
 363 -454 l 1,13,-1
 454 -454 l 1,14,-1
 454 -545 l 1,15,-1
 363 -545 l 1,16,-1
 363 -727 l 1,17,-1
 545 -727 l 1,18,-1
 545 -272 l 1,19,-1
 363 -272 l 1,12,-1
EndSplineSet
Validated: 1
EndChar

StartChar: Ntilde
Encoding: 209 209 180
Width: 727
Flags: W
LayerCount: 2
Fore
SplineSet
90 -181 m 1,0,-1
 181 -181 l 1,1,-1
 181 -90 l 1,2,-1
 272 -90 l 1,3,-1
 272 0 l 1,4,-1
 363 0 l 1,5,-1
 363 -90 l 1,6,-1
 454 -90 l 1,7,-1
 454 0 l 1,8,-1
 545 0 l 1,9,-1
 545 -90 l 1,10,-1
 454 -90 l 1,11,-1
 454 -181 l 1,12,-1
 636 -181 l 1,13,-1
 636 -272 l 1,14,-1
 727 -272 l 1,15,-1
 727 -818 l 1,16,-1
 454 -818 l 1,17,-1
 454 -272 l 1,18,-1
 363 -272 l 1,19,-1
 363 -818 l 1,20,-1
 90 -818 l 1,21,-1
 90 -181 l 1,0,-1
272 -90 m 1,22,-1
 272 -181 l 1,23,-1
 363 -181 l 1,24,-1
 363 -90 l 1,25,-1
 272 -90 l 1,22,-1
EndSplineSet
Validated: 5
EndChar

StartChar: Ograve
Encoding: 210 210 181
Width: 727
Flags: W
LayerCount: 2
Fore
SplineSet
90 -272 m 1,0,-1
 181 -272 l 1,1,-1
 181 -181 l 1,2,-1
 363 -181 l 1,3,-1
 363 -90 l 1,4,-1
 454 -90 l 1,5,-1
 454 -181 l 1,6,-1
 636 -181 l 1,7,-1
 636 -272 l 1,8,-1
 727 -272 l 1,9,-1
 727 -727 l 1,10,-1
 636 -727 l 1,11,-1
 636 -818 l 1,12,-1
 181 -818 l 1,13,-1
 181 -727 l 1,14,-1
 90 -727 l 1,15,-1
 90 -272 l 1,0,-1
272 0 m 1,16,-1
 363 0 l 1,17,-1
 363 -90 l 1,18,-1
 272 -90 l 1,19,-1
 272 0 l 1,16,-1
363 -272 m 1,20,-1
 363 -727 l 1,21,-1
 454 -727 l 1,22,-1
 454 -272 l 1,23,-1
 363 -272 l 1,20,-1
EndSplineSet
Validated: 5
EndChar

StartChar: Oacute
Encoding: 211 211 182
Width: 727
Flags: W
LayerCount: 2
Fore
SplineSet
90 -272 m 1,0,-1
 181 -272 l 1,1,-1
 181 -181 l 1,2,-1
 363 -181 l 1,3,-1
 363 -90 l 1,4,-1
 454 -90 l 1,5,-1
 454 0 l 1,6,-1
 545 0 l 1,7,-1
 545 -90 l 1,8,-1
 454 -90 l 1,9,-1
 454 -181 l 1,10,-1
 636 -181 l 1,11,-1
 636 -272 l 1,12,-1
 727 -272 l 1,13,-1
 727 -727 l 1,14,-1
 636 -727 l 1,15,-1
 636 -818 l 1,16,-1
 181 -818 l 1,17,-1
 181 -727 l 1,18,-1
 90 -727 l 1,19,-1
 90 -272 l 1,0,-1
363 -272 m 1,20,-1
 363 -727 l 1,21,-1
 454 -727 l 1,22,-1
 454 -272 l 1,23,-1
 363 -272 l 1,20,-1
EndSplineSet
Validated: 5
EndChar

StartChar: Ocircumflex
Encoding: 212 212 183
Width: 727
Flags: W
LayerCount: 2
Fore
SplineSet
90 -272 m 1,0,-1
 181 -272 l 1,1,-1
 181 -181 l 1,2,-1
 272 -181 l 1,3,-1
 272 -90 l 1,4,-1
 363 -90 l 1,5,-1
 363 -181 l 1,6,-1
 454 -181 l 1,7,-1
 454 -90 l 1,8,-1
 545 -90 l 1,9,-1
 545 -181 l 1,10,-1
 636 -181 l 1,11,-1
 636 -272 l 1,12,-1
 727 -272 l 1,13,-1
 727 -727 l 1,14,-1
 636 -727 l 1,15,-1
 636 -818 l 1,16,-1
 181 -818 l 1,17,-1
 181 -727 l 1,18,-1
 90 -727 l 1,19,-1
 90 -272 l 1,0,-1
363 0 m 1,20,-1
 454 0 l 1,21,-1
 454 -90 l 1,22,-1
 363 -90 l 1,23,-1
 363 0 l 1,20,-1
363 -272 m 1,24,-1
 363 -727 l 1,25,-1
 454 -727 l 1,26,-1
 454 -272 l 1,27,-1
 363 -272 l 1,24,-1
EndSplineSet
Validated: 5
EndChar

StartChar: Otilde
Encoding: 213 213 184
Width: 727
Flags: W
LayerCount: 2
Fore
SplineSet
90 -272 m 1,0,-1
 181 -272 l 1,1,-1
 181 -181 l 1,2,-1
 272 -181 l 1,3,-1
 272 -90 l 1,4,-1
 363 -90 l 1,5,-1
 363 -181 l 1,6,-1
 454 -181 l 1,7,-1
 454 -90 l 1,8,-1
 545 -90 l 1,9,-1
 545 0 l 1,10,-1
 636 0 l 1,11,-1
 636 -90 l 1,12,-1
 545 -90 l 1,13,-1
 545 -181 l 1,14,-1
 636 -181 l 1,15,-1
 636 -272 l 1,16,-1
 727 -272 l 1,17,-1
 727 -727 l 1,18,-1
 636 -727 l 1,19,-1
 636 -818 l 1,20,-1
 181 -818 l 1,21,-1
 181 -727 l 1,22,-1
 90 -727 l 1,23,-1
 90 -272 l 1,0,-1
363 0 m 1,24,-1
 454 0 l 1,25,-1
 454 -90 l 1,26,-1
 363 -90 l 1,27,-1
 363 0 l 1,24,-1
363 -272 m 1,28,-1
 363 -727 l 1,29,-1
 454 -727 l 1,30,-1
 454 -272 l 1,31,-1
 363 -272 l 1,28,-1
EndSplineSet
Validated: 5
EndChar

StartChar: Odieresis
Encoding: 214 214 185
Width: 727
Flags: W
LayerCount: 2
Fore
SplineSet
90 0 m 1,0,-1
 363 0 l 1,1,-1
 363 -90 l 1,2,-1
 90 -90 l 1,3,-1
 90 0 l 1,0,-1
90 -272 m 1,4,-1
 181 -272 l 1,5,-1
 181 -181 l 1,6,-1
 636 -181 l 1,7,-1
 636 -272 l 1,8,-1
 727 -272 l 1,9,-1
 727 -727 l 1,10,-1
 636 -727 l 1,11,-1
 636 -818 l 1,12,-1
 181 -818 l 1,13,-1
 181 -727 l 1,14,-1
 90 -727 l 1,15,-1
 90 -272 l 1,4,-1
363 -272 m 1,16,-1
 363 -727 l 1,17,-1
 454 -727 l 1,18,-1
 454 -272 l 1,19,-1
 363 -272 l 1,16,-1
454 0 m 1,20,-1
 727 0 l 1,21,-1
 727 -90 l 1,22,-1
 454 -90 l 1,23,-1
 454 0 l 1,20,-1
EndSplineSet
Validated: 1
EndChar

StartChar: multiply
Encoding: 215 215 186
Width: 454
Flags: W
LayerCount: 2
Fore
SplineSet
90 -363 m 1,0,-1
 181 -363 l 1,1,-1
 181 -454 l 1,2,-1
 363 -454 l 1,3,-1
 363 -636 l 1,4,-1
 181 -636 l 1,5,-1
 181 -454 l 1,6,-1
 90 -454 l 1,7,-1
 90 -363 l 1,0,-1
90 -636 m 1,8,-1
 181 -636 l 1,9,-1
 181 -727 l 1,10,-1
 90 -727 l 1,11,-1
 90 -636 l 1,8,-1
363 -363 m 1,12,-1
 454 -363 l 1,13,-1
 454 -454 l 1,14,-1
 363 -454 l 1,15,-1
 363 -363 l 1,12,-1
363 -636 m 1,16,-1
 454 -636 l 1,17,-1
 454 -727 l 1,18,-1
 363 -727 l 1,19,-1
 363 -636 l 1,16,-1
EndSplineSet
Validated: 5
EndChar

StartChar: Oslash
Encoding: 216 216 187
Width: 636
Flags: W
LayerCount: 2
Fore
SplineSet
90 -272 m 1,0,-1
 181 -272 l 1,1,-1
 181 -636 l 1,2,-1
 272 -636 l 1,3,-1
 272 -727 l 1,4,-1
 545 -727 l 1,5,-1
 545 -818 l 1,6,-1
 90 -818 l 1,7,-1
 90 -272 l 1,0,-1
181 -181 m 1,8,-1
 636 -181 l 1,9,-1
 636 -727 l 1,10,-1
 545 -727 l 1,11,-1
 545 -363 l 1,12,-1
 454 -363 l 1,13,-1
 454 -272 l 1,14,-1
 181 -272 l 1,15,-1
 181 -181 l 1,8,-1
272 -545 m 1,16,-1
 363 -545 l 1,17,-1
 363 -636 l 1,18,-1
 272 -636 l 1,19,-1
 272 -545 l 1,16,-1
363 -363 m 1,20,-1
 454 -363 l 1,21,-1
 454 -545 l 1,22,-1
 363 -545 l 1,23,-1
 363 -363 l 1,20,-1
EndSplineSet
Validated: 5
EndChar

StartChar: Ugrave
Encoding: 217 217 188
Width: 727
Flags: W
LayerCount: 2
Fore
SplineSet
90 -181 m 1,0,-1
 363 -181 l 1,1,-1
 363 -727 l 1,2,-1
 454 -727 l 1,3,-1
 454 -181 l 1,4,-1
 363 -181 l 1,5,-1
 363 -90 l 1,6,-1
 454 -90 l 1,7,-1
 454 -181 l 1,8,-1
 727 -181 l 1,9,-1
 727 -727 l 1,10,-1
 636 -727 l 1,11,-1
 636 -818 l 1,12,-1
 181 -818 l 1,13,-1
 181 -727 l 1,14,-1
 90 -727 l 1,15,-1
 90 -181 l 1,0,-1
272 0 m 1,16,-1
 363 0 l 1,17,-1
 363 -90 l 1,18,-1
 272 -90 l 1,19,-1
 272 0 l 1,16,-1
EndSplineSet
Validated: 5
EndChar

StartChar: Uacute
Encoding: 218 218 189
Width: 727
Flags: W
LayerCount: 2
Fore
SplineSet
90 -181 m 1,0,-1
 363 -181 l 1,1,-1
 363 -727 l 1,2,-1
 454 -727 l 1,3,-1
 454 -181 l 1,4,-1
 363 -181 l 1,5,-1
 363 -90 l 1,6,-1
 454 -90 l 1,7,-1
 454 0 l 1,8,-1
 545 0 l 1,9,-1
 545 -90 l 1,10,-1
 454 -90 l 1,11,-1
 454 -181 l 1,12,-1
 727 -181 l 1,13,-1
 727 -727 l 1,14,-1
 636 -727 l 1,15,-1
 636 -818 l 1,16,-1
 181 -818 l 1,17,-1
 181 -727 l 1,18,-1
 90 -727 l 1,19,-1
 90 -181 l 1,0,-1
EndSplineSet
Validated: 5
EndChar

StartChar: Ucircumflex
Encoding: 219 219 190
Width: 727
Flags: W
LayerCount: 2
Fore
SplineSet
90 -181 m 1,0,-1
 272 -181 l 1,1,-1
 272 -90 l 1,2,-1
 363 -90 l 1,3,-1
 363 -727 l 1,4,-1
 454 -727 l 1,5,-1
 454 -90 l 1,6,-1
 545 -90 l 1,7,-1
 545 -181 l 1,8,-1
 727 -181 l 1,9,-1
 727 -727 l 1,10,-1
 636 -727 l 1,11,-1
 636 -818 l 1,12,-1
 181 -818 l 1,13,-1
 181 -727 l 1,14,-1
 90 -727 l 1,15,-1
 90 -181 l 1,0,-1
363 0 m 1,16,-1
 454 0 l 1,17,-1
 454 -90 l 1,18,-1
 363 -90 l 1,19,-1
 363 0 l 1,16,-1
EndSplineSet
Validated: 5
EndChar

StartChar: Udieresis
Encoding: 220 220 191
Width: 727
Flags: W
LayerCount: 2
Fore
SplineSet
90 0 m 1,0,-1
 363 0 l 1,1,-1
 363 -90 l 1,2,-1
 90 -90 l 1,3,-1
 90 0 l 1,0,-1
90 -181 m 1,4,-1
 363 -181 l 1,5,-1
 363 -727 l 1,6,-1
 454 -727 l 1,7,-1
 454 -181 l 1,8,-1
 727 -181 l 1,9,-1
 727 -727 l 1,10,-1
 636 -727 l 1,11,-1
 636 -818 l 1,12,-1
 181 -818 l 1,13,-1
 181 -727 l 1,14,-1
 90 -727 l 1,15,-1
 90 -181 l 1,4,-1
454 0 m 1,16,-1
 727 0 l 1,17,-1
 727 -90 l 1,18,-1
 454 -90 l 1,19,-1
 454 0 l 1,16,-1
EndSplineSet
Validated: 1
EndChar

StartChar: Yacute
Encoding: 221 221 192
Width: 727
Flags: W
LayerCount: 2
Fore
SplineSet
90 -181 m 1,0,-1
 272 -181 l 1,1,-1
 272 -90 l 1,2,-1
 363 -90 l 1,3,-1
 363 -363 l 1,4,-1
 454 -363 l 1,5,-1
 454 -181 l 1,6,-1
 727 -181 l 1,7,-1
 727 -727 l 1,8,-1
 636 -727 l 1,9,-1
 636 -818 l 1,10,-1
 90 -818 l 1,11,-1
 90 -636 l 1,12,-1
 363 -636 l 1,13,-1
 363 -727 l 1,14,-1
 454 -727 l 1,15,-1
 454 -545 l 1,16,-1
 181 -545 l 1,17,-1
 181 -454 l 1,18,-1
 90 -454 l 1,19,-1
 90 -181 l 1,0,-1
363 0 m 1,20,-1
 454 0 l 1,21,-1
 454 -90 l 1,22,-1
 363 -90 l 1,23,-1
 363 0 l 1,20,-1
EndSplineSet
Validated: 5
EndChar

StartChar: Thorn
Encoding: 222 222 193
Width: 636
Flags: W
LayerCount: 2
Fore
SplineSet
90 -181 m 1,0,-1
 272 -181 l 1,1,-1
 272 -272 l 1,2,-1
 545 -272 l 1,3,-1
 545 -363 l 1,4,-1
 636 -363 l 1,5,-1
 636 -636 l 1,6,-1
 545 -636 l 1,7,-1
 545 -727 l 1,8,-1
 272 -727 l 1,9,-1
 272 -818 l 1,10,-1
 90 -818 l 1,11,-1
 90 -727 l 1,12,-1
 181 -727 l 1,13,-1
 181 -272 l 1,14,-1
 90 -272 l 1,15,-1
 90 -181 l 1,0,-1
272 -363 m 1,16,-1
 272 -636 l 1,17,-1
 545 -636 l 1,18,-1
 545 -363 l 1,19,-1
 272 -363 l 1,16,-1
EndSplineSet
Validated: 5
EndChar

StartChar: germandbls
Encoding: 223 223 194
Width: 727
Flags: W
LayerCount: 2
Fore
SplineSet
90 -181 m 1,0,-1
 636 -181 l 1,1,-1
 636 -272 l 1,2,-1
 727 -272 l 1,3,-1
 727 -454 l 1,4,-1
 636 -454 l 1,5,-1
 636 -545 l 1,6,-1
 727 -545 l 1,7,-1
 727 -727 l 1,8,-1
 636 -727 l 1,9,-1
 636 -818 l 1,10,-1
 363 -818 l 1,11,-1
 363 -909 l 1,12,-1
 90 -909 l 1,13,-1
 90 -181 l 1,0,-1
363 -272 m 1,14,-1
 363 -454 l 1,15,-1
 454 -454 l 1,16,-1
 454 -272 l 1,17,-1
 363 -272 l 1,14,-1
363 -545 m 1,18,-1
 363 -727 l 1,19,-1
 454 -727 l 1,20,-1
 454 -545 l 1,21,-1
 363 -545 l 1,18,-1
EndSplineSet
Validated: 1
EndChar

StartChar: agrave
Encoding: 224 224 195
Width: 727
Flags: W
LayerCount: 2
Fore
SplineSet
90 -272 m 1,0,-1
 181 -272 l 1,1,-1
 181 -181 l 1,2,-1
 363 -181 l 1,3,-1
 363 -90 l 1,4,-1
 454 -90 l 1,5,-1
 454 -181 l 1,6,-1
 636 -181 l 1,7,-1
 636 -272 l 1,8,-1
 727 -272 l 1,9,-1
 727 -818 l 1,10,-1
 454 -818 l 1,11,-1
 454 -545 l 1,12,-1
 363 -545 l 1,13,-1
 363 -818 l 1,14,-1
 90 -818 l 1,15,-1
 90 -272 l 1,0,-1
272 0 m 1,16,-1
 363 0 l 1,17,-1
 363 -90 l 1,18,-1
 272 -90 l 1,19,-1
 272 0 l 1,16,-1
363 -272 m 1,20,-1
 363 -454 l 1,21,-1
 454 -454 l 1,22,-1
 454 -272 l 1,23,-1
 363 -272 l 1,20,-1
EndSplineSet
Validated: 5
EndChar

StartChar: aacute
Encoding: 225 225 196
Width: 727
Flags: W
LayerCount: 2
Fore
SplineSet
90 -272 m 1,0,-1
 181 -272 l 1,1,-1
 181 -181 l 1,2,-1
 363 -181 l 1,3,-1
 363 -90 l 1,4,-1
 454 -90 l 1,5,-1
 454 0 l 1,6,-1
 545 0 l 1,7,-1
 545 -90 l 1,8,-1
 454 -90 l 1,9,-1
 454 -181 l 1,10,-1
 636 -181 l 1,11,-1
 636 -272 l 1,12,-1
 727 -272 l 1,13,-1
 727 -818 l 1,14,-1
 454 -818 l 1,15,-1
 454 -545 l 1,16,-1
 363 -545 l 1,17,-1
 363 -818 l 1,18,-1
 90 -818 l 1,19,-1
 90 -272 l 1,0,-1
363 -272 m 1,20,-1
 363 -454 l 1,21,-1
 454 -454 l 1,22,-1
 454 -272 l 1,23,-1
 363 -272 l 1,20,-1
EndSplineSet
Validated: 5
EndChar

StartChar: acircumflex
Encoding: 226 226 197
Width: 727
Flags: W
LayerCount: 2
Fore
SplineSet
90 -272 m 1,0,-1
 181 -272 l 1,1,-1
 181 -181 l 1,2,-1
 272 -181 l 1,3,-1
 272 -90 l 1,4,-1
 363 -90 l 1,5,-1
 363 -181 l 1,6,-1
 454 -181 l 1,7,-1
 454 -90 l 1,8,-1
 545 -90 l 1,9,-1
 545 -181 l 1,10,-1
 636 -181 l 1,11,-1
 636 -272 l 1,12,-1
 727 -272 l 1,13,-1
 727 -818 l 1,14,-1
 454 -818 l 1,15,-1
 454 -545 l 1,16,-1
 363 -545 l 1,17,-1
 363 -818 l 1,18,-1
 90 -818 l 1,19,-1
 90 -272 l 1,0,-1
363 0 m 1,20,-1
 454 0 l 1,21,-1
 454 -90 l 1,22,-1
 363 -90 l 1,23,-1
 363 0 l 1,20,-1
363 -272 m 1,24,-1
 363 -454 l 1,25,-1
 454 -454 l 1,26,-1
 454 -272 l 1,27,-1
 363 -272 l 1,24,-1
EndSplineSet
Validated: 5
EndChar

StartChar: atilde
Encoding: 227 227 198
Width: 727
Flags: W
LayerCount: 2
Fore
SplineSet
90 -272 m 1,0,-1
 181 -272 l 1,1,-1
 181 -181 l 1,2,-1
 272 -181 l 1,3,-1
 272 -90 l 1,4,-1
 363 -90 l 1,5,-1
 363 -181 l 1,6,-1
 454 -181 l 1,7,-1
 454 -90 l 1,8,-1
 545 -90 l 1,9,-1
 545 0 l 1,10,-1
 636 0 l 1,11,-1
 636 -90 l 1,12,-1
 545 -90 l 1,13,-1
 545 -181 l 1,14,-1
 636 -181 l 1,15,-1
 636 -272 l 1,16,-1
 727 -272 l 1,17,-1
 727 -818 l 1,18,-1
 454 -818 l 1,19,-1
 454 -545 l 1,20,-1
 363 -545 l 1,21,-1
 363 -818 l 1,22,-1
 90 -818 l 1,23,-1
 90 -272 l 1,0,-1
363 0 m 1,24,-1
 454 0 l 1,25,-1
 454 -90 l 1,26,-1
 363 -90 l 1,27,-1
 363 0 l 1,24,-1
363 -272 m 1,28,-1
 363 -454 l 1,29,-1
 454 -454 l 1,30,-1
 454 -272 l 1,31,-1
 363 -272 l 1,28,-1
EndSplineSet
Validated: 5
EndChar

StartChar: adieresis
Encoding: 228 228 199
Width: 727
Flags: W
LayerCount: 2
Fore
SplineSet
90 0 m 1,0,-1
 363 0 l 1,1,-1
 363 -90 l 1,2,-1
 90 -90 l 1,3,-1
 90 0 l 1,0,-1
90 -272 m 1,4,-1
 181 -272 l 1,5,-1
 181 -181 l 1,6,-1
 636 -181 l 1,7,-1
 636 -272 l 1,8,-1
 727 -272 l 1,9,-1
 727 -818 l 1,10,-1
 454 -818 l 1,11,-1
 454 -545 l 1,12,-1
 363 -545 l 1,13,-1
 363 -818 l 1,14,-1
 90 -818 l 1,15,-1
 90 -272 l 1,4,-1
363 -272 m 1,16,-1
 363 -454 l 1,17,-1
 454 -454 l 1,18,-1
 454 -272 l 1,19,-1
 363 -272 l 1,16,-1
454 0 m 1,20,-1
 727 0 l 1,21,-1
 727 -90 l 1,22,-1
 454 -90 l 1,23,-1
 454 0 l 1,20,-1
EndSplineSet
Validated: 1
EndChar

StartChar: aring
Encoding: 229 229 200
Width: 727
Flags: W
LayerCount: 2
Fore
SplineSet
90 -272 m 1,0,-1
 181 -272 l 1,1,-1
 181 -181 l 1,2,-1
 272 -181 l 1,3,-1
 272 -90 l 1,4,-1
 363 -90 l 1,5,-1
 363 -181 l 1,6,-1
 454 -181 l 1,7,-1
 454 -90 l 1,8,-1
 545 -90 l 1,9,-1
 545 -181 l 1,10,-1
 636 -181 l 1,11,-1
 636 -272 l 1,12,-1
 727 -272 l 1,13,-1
 727 -818 l 1,14,-1
 454 -818 l 1,15,-1
 454 -545 l 1,16,-1
 363 -545 l 1,17,-1
 363 -818 l 1,18,-1
 90 -818 l 1,19,-1
 90 -272 l 1,0,-1
363 0 m 1,20,-1
 454 0 l 1,21,-1
 454 -90 l 1,22,-1
 363 -90 l 1,23,-1
 363 0 l 1,20,-1
363 -272 m 1,24,-1
 363 -454 l 1,25,-1
 454 -454 l 1,26,-1
 454 -272 l 1,27,-1
 363 -272 l 1,24,-1
EndSplineSet
Validated: 5
EndChar

StartChar: ae
Encoding: 230 230 201
Width: 727
Flags: W
LayerCount: 2
Fore
SplineSet
90 -363 m 1,0,-1
 181 -363 l 1,1,-1
 181 -272 l 1,2,-1
 727 -272 l 1,3,-1
 727 -363 l 1,4,-1
 454 -363 l 1,5,-1
 454 -454 l 1,6,-1
 636 -454 l 1,7,-1
 636 -545 l 1,8,-1
 454 -545 l 1,9,-1
 454 -727 l 1,10,-1
 727 -727 l 1,11,-1
 727 -818 l 1,12,-1
 363 -818 l 1,13,-1
 363 -545 l 1,14,-1
 181 -545 l 1,15,-1
 181 -818 l 1,16,-1
 90 -818 l 1,17,-1
 90 -363 l 1,0,-1
181 -363 m 1,18,-1
 181 -454 l 1,19,-1
 363 -454 l 1,20,-1
 363 -363 l 1,21,-1
 181 -363 l 1,18,-1
EndSplineSet
Validated: 5
EndChar

StartChar: ccedilla
Encoding: 231 231 202
Width: 727
Flags: W
LayerCount: 2
Fore
SplineSet
90 -272 m 1,0,-1
 181 -272 l 1,1,-1
 181 -181 l 1,2,-1
 636 -181 l 1,3,-1
 636 -272 l 1,4,-1
 727 -272 l 1,5,-1
 727 -363 l 1,6,-1
 454 -363 l 1,7,-1
 454 -272 l 1,8,-1
 363 -272 l 1,9,-1
 363 -727 l 1,10,-1
 454 -727 l 1,11,-1
 454 -636 l 1,12,-1
 727 -636 l 1,13,-1
 727 -727 l 1,14,-1
 636 -727 l 1,15,-1
 636 -818 l 1,16,-1
 545 -818 l 1,17,-1
 545 -909 l 1,18,-1
 454 -909 l 1,19,-1
 454 -1000 l 1,20,-1
 272 -1000 l 1,21,-1
 272 -909 l 1,22,-1
 363 -909 l 1,23,-1
 363 -818 l 1,24,-1
 181 -818 l 1,25,-1
 181 -727 l 1,26,-1
 90 -727 l 1,27,-1
 90 -272 l 1,0,-1
EndSplineSet
Validated: 1
EndChar

StartChar: egrave
Encoding: 232 232 203
Width: 727
Flags: W
LayerCount: 2
Fore
SplineSet
90 -272 m 1,0,-1
 181 -272 l 1,1,-1
 181 -181 l 1,2,-1
 363 -181 l 1,3,-1
 363 -90 l 1,4,-1
 454 -90 l 1,5,-1
 454 -181 l 1,6,-1
 727 -181 l 1,7,-1
 727 -363 l 1,8,-1
 454 -363 l 1,9,-1
 454 -272 l 1,10,-1
 363 -272 l 1,11,-1
 363 -454 l 1,12,-1
 545 -454 l 1,13,-1
 545 -545 l 1,14,-1
 363 -545 l 1,15,-1
 363 -727 l 1,16,-1
 454 -727 l 1,17,-1
 454 -636 l 1,18,-1
 727 -636 l 1,19,-1
 727 -818 l 1,20,-1
 181 -818 l 1,21,-1
 181 -727 l 1,22,-1
 90 -727 l 1,23,-1
 90 -272 l 1,0,-1
272 0 m 1,24,-1
 363 0 l 1,25,-1
 363 -90 l 1,26,-1
 272 -90 l 1,27,-1
 272 0 l 1,24,-1
EndSplineSet
Validated: 5
EndChar

StartChar: eacute
Encoding: 233 233 204
Width: 727
Flags: W
LayerCount: 2
Fore
SplineSet
90 -272 m 1,0,-1
 181 -272 l 1,1,-1
 181 -181 l 1,2,-1
 363 -181 l 1,3,-1
 363 -90 l 1,4,-1
 454 -90 l 1,5,-1
 454 0 l 1,6,-1
 545 0 l 1,7,-1
 545 -90 l 1,8,-1
 454 -90 l 1,9,-1
 454 -181 l 1,10,-1
 727 -181 l 1,11,-1
 727 -363 l 1,12,-1
 454 -363 l 1,13,-1
 454 -272 l 1,14,-1
 363 -272 l 1,15,-1
 363 -454 l 1,16,-1
 545 -454 l 1,17,-1
 545 -545 l 1,18,-1
 363 -545 l 1,19,-1
 363 -727 l 1,20,-1
 454 -727 l 1,21,-1
 454 -636 l 1,22,-1
 727 -636 l 1,23,-1
 727 -818 l 1,24,-1
 181 -818 l 1,25,-1
 181 -727 l 1,26,-1
 90 -727 l 1,27,-1
 90 -272 l 1,0,-1
EndSplineSet
Validated: 5
EndChar

StartChar: ecircumflex
Encoding: 234 234 205
Width: 727
Flags: W
LayerCount: 2
Fore
SplineSet
90 -272 m 1,0,-1
 181 -272 l 1,1,-1
 181 -181 l 1,2,-1
 272 -181 l 1,3,-1
 272 -90 l 1,4,-1
 363 -90 l 1,5,-1
 363 -181 l 1,6,-1
 454 -181 l 1,7,-1
 454 -90 l 1,8,-1
 545 -90 l 1,9,-1
 545 -181 l 1,10,-1
 727 -181 l 1,11,-1
 727 -363 l 1,12,-1
 454 -363 l 1,13,-1
 454 -272 l 1,14,-1
 363 -272 l 1,15,-1
 363 -454 l 1,16,-1
 545 -454 l 1,17,-1
 545 -545 l 1,18,-1
 363 -545 l 1,19,-1
 363 -727 l 1,20,-1
 454 -727 l 1,21,-1
 454 -636 l 1,22,-1
 727 -636 l 1,23,-1
 727 -818 l 1,24,-1
 181 -818 l 1,25,-1
 181 -727 l 1,26,-1
 90 -727 l 1,27,-1
 90 -272 l 1,0,-1
363 0 m 1,28,-1
 454 0 l 1,29,-1
 454 -90 l 1,30,-1
 363 -90 l 1,31,-1
 363 0 l 1,28,-1
EndSplineSet
Validated: 5
EndChar

StartChar: edieresis
Encoding: 235 235 206
Width: 727
Flags: W
LayerCount: 2
Fore
SplineSet
90 0 m 1,0,-1
 363 0 l 1,1,-1
 363 -90 l 1,2,-1
 90 -90 l 1,3,-1
 90 0 l 1,0,-1
90 -272 m 1,4,-1
 181 -272 l 1,5,-1
 181 -181 l 1,6,-1
 727 -181 l 1,7,-1
 727 -363 l 1,8,-1
 454 -363 l 1,9,-1
 454 -272 l 1,10,-1
 363 -272 l 1,11,-1
 363 -454 l 1,12,-1
 545 -454 l 1,13,-1
 545 -545 l 1,14,-1
 363 -545 l 1,15,-1
 363 -727 l 1,16,-1
 454 -727 l 1,17,-1
 454 -636 l 1,18,-1
 727 -636 l 1,19,-1
 727 -818 l 1,20,-1
 181 -818 l 1,21,-1
 181 -727 l 1,22,-1
 90 -727 l 1,23,-1
 90 -272 l 1,4,-1
454 0 m 1,24,-1
 727 0 l 1,25,-1
 727 -90 l 1,26,-1
 454 -90 l 1,27,-1
 454 0 l 1,24,-1
EndSplineSet
Validated: 1
EndChar

StartChar: igrave
Encoding: 236 236 207
Width: 727
Flags: W
LayerCount: 2
Fore
SplineSet
90 -181 m 1,0,-1
 363 -181 l 1,1,-1
 363 -90 l 1,2,-1
 272 -90 l 1,3,-1
 272 0 l 1,4,-1
 363 0 l 1,5,-1
 363 -90 l 1,6,-1
 454 -90 l 1,7,-1
 454 -181 l 1,8,-1
 727 -181 l 1,9,-1
 727 -272 l 1,10,-1
 545 -272 l 1,11,-1
 545 -727 l 1,12,-1
 727 -727 l 1,13,-1
 727 -818 l 1,14,-1
 90 -818 l 1,15,-1
 90 -727 l 1,16,-1
 272 -727 l 1,17,-1
 272 -272 l 1,18,-1
 90 -272 l 1,19,-1
 90 -181 l 1,0,-1
EndSplineSet
Validated: 5
EndChar

StartChar: iacute
Encoding: 237 237 208
Width: 727
Flags: W
LayerCount: 2
Fore
SplineSet
90 -181 m 1,0,-1
 363 -181 l 1,1,-1
 363 -90 l 1,2,-1
 454 -90 l 1,3,-1
 454 -181 l 1,4,-1
 727 -181 l 1,5,-1
 727 -272 l 1,6,-1
 545 -272 l 1,7,-1
 545 -727 l 1,8,-1
 727 -727 l 1,9,-1
 727 -818 l 1,10,-1
 90 -818 l 1,11,-1
 90 -727 l 1,12,-1
 272 -727 l 1,13,-1
 272 -272 l 1,14,-1
 90 -272 l 1,15,-1
 90 -181 l 1,0,-1
454 0 m 1,16,-1
 545 0 l 1,17,-1
 545 -90 l 1,18,-1
 454 -90 l 1,19,-1
 454 0 l 1,16,-1
EndSplineSet
Validated: 5
EndChar

StartChar: icircumflex
Encoding: 238 238 209
Width: 727
Flags: W
LayerCount: 2
Fore
SplineSet
90 -181 m 1,0,-1
 272 -181 l 1,1,-1
 272 -90 l 1,2,-1
 363 -90 l 1,3,-1
 363 -181 l 1,4,-1
 454 -181 l 1,5,-1
 454 -90 l 1,6,-1
 363 -90 l 1,7,-1
 363 0 l 1,8,-1
 454 0 l 1,9,-1
 454 -90 l 1,10,-1
 545 -90 l 1,11,-1
 545 -181 l 1,12,-1
 727 -181 l 1,13,-1
 727 -272 l 1,14,-1
 545 -272 l 1,15,-1
 545 -727 l 1,16,-1
 727 -727 l 1,17,-1
 727 -818 l 1,18,-1
 90 -818 l 1,19,-1
 90 -727 l 1,20,-1
 272 -727 l 1,21,-1
 272 -272 l 1,22,-1
 90 -272 l 1,23,-1
 90 -181 l 1,0,-1
EndSplineSet
Validated: 5
EndChar

StartChar: idieresis
Encoding: 239 239 210
Width: 727
Flags: W
LayerCount: 2
Fore
SplineSet
90 0 m 1,0,-1
 363 0 l 1,1,-1
 363 -90 l 1,2,-1
 90 -90 l 1,3,-1
 90 0 l 1,0,-1
90 -181 m 1,4,-1
 727 -181 l 1,5,-1
 727 -272 l 1,6,-1
 545 -272 l 1,7,-1
 545 -727 l 1,8,-1
 727 -727 l 1,9,-1
 727 -818 l 1,10,-1
 90 -818 l 1,11,-1
 90 -727 l 1,12,-1
 272 -727 l 1,13,-1
 272 -272 l 1,14,-1
 90 -272 l 1,15,-1
 90 -181 l 1,4,-1
454 0 m 1,16,-1
 727 0 l 1,17,-1
 727 -90 l 1,18,-1
 454 -90 l 1,19,-1
 454 0 l 1,16,-1
EndSplineSet
Validated: 1
EndChar

StartChar: eth
Encoding: 240 240 211
Width: 454
Flags: W
LayerCount: 2
Fore
SplineSet
90 -181 m 1,0,-1
 272 -181 l 1,1,-1
 272 -363 l 1,2,-1
 363 -363 l 1,3,-1
 363 -545 l 1,4,-1
 181 -545 l 1,5,-1
 181 -454 l 1,6,-1
 272 -454 l 1,7,-1
 272 -363 l 1,8,-1
 90 -363 l 1,9,-1
 90 -181 l 1,0,-1
90 -545 m 1,10,-1
 181 -545 l 1,11,-1
 181 -727 l 1,12,-1
 363 -727 l 1,13,-1
 363 -545 l 1,14,-1
 454 -545 l 1,15,-1
 454 -727 l 1,16,-1
 363 -727 l 1,17,-1
 363 -818 l 1,18,-1
 181 -818 l 1,19,-1
 181 -727 l 1,20,-1
 90 -727 l 1,21,-1
 90 -545 l 1,10,-1
EndSplineSet
Validated: 5
EndChar

StartChar: ntilde
Encoding: 241 241 212
Width: 727
Flags: W
LayerCount: 2
Fore
SplineSet
90 -181 m 1,0,-1
 181 -181 l 1,1,-1
 181 -90 l 1,2,-1
 272 -90 l 1,3,-1
 272 0 l 1,4,-1
 363 0 l 1,5,-1
 363 -90 l 1,6,-1
 454 -90 l 1,7,-1
 454 0 l 1,8,-1
 545 0 l 1,9,-1
 545 -90 l 1,10,-1
 454 -90 l 1,11,-1
 454 -181 l 1,12,-1
 636 -181 l 1,13,-1
 636 -272 l 1,14,-1
 727 -272 l 1,15,-1
 727 -818 l 1,16,-1
 454 -818 l 1,17,-1
 454 -272 l 1,18,-1
 363 -272 l 1,19,-1
 363 -818 l 1,20,-1
 90 -818 l 1,21,-1
 90 -181 l 1,0,-1
272 -90 m 1,22,-1
 272 -181 l 1,23,-1
 363 -181 l 1,24,-1
 363 -90 l 1,25,-1
 272 -90 l 1,22,-1
EndSplineSet
Validated: 5
EndChar

StartChar: ograve
Encoding: 242 242 213
Width: 727
Flags: W
LayerCount: 2
Fore
SplineSet
90 -272 m 1,0,-1
 181 -272 l 1,1,-1
 181 -181 l 1,2,-1
 363 -181 l 1,3,-1
 363 -90 l 1,4,-1
 454 -90 l 1,5,-1
 454 -181 l 1,6,-1
 636 -181 l 1,7,-1
 636 -272 l 1,8,-1
 727 -272 l 1,9,-1
 727 -727 l 1,10,-1
 636 -727 l 1,11,-1
 636 -818 l 1,12,-1
 181 -818 l 1,13,-1
 181 -727 l 1,14,-1
 90 -727 l 1,15,-1
 90 -272 l 1,0,-1
272 0 m 1,16,-1
 363 0 l 1,17,-1
 363 -90 l 1,18,-1
 272 -90 l 1,19,-1
 272 0 l 1,16,-1
363 -272 m 1,20,-1
 363 -727 l 1,21,-1
 454 -727 l 1,22,-1
 454 -272 l 1,23,-1
 363 -272 l 1,20,-1
EndSplineSet
Validated: 5
EndChar

StartChar: oacute
Encoding: 243 243 214
Width: 727
Flags: W
LayerCount: 2
Fore
SplineSet
90 -272 m 1,0,-1
 181 -272 l 1,1,-1
 181 -181 l 1,2,-1
 363 -181 l 1,3,-1
 363 -90 l 1,4,-1
 454 -90 l 1,5,-1
 454 0 l 1,6,-1
 545 0 l 1,7,-1
 545 -90 l 1,8,-1
 454 -90 l 1,9,-1
 454 -181 l 1,10,-1
 636 -181 l 1,11,-1
 636 -272 l 1,12,-1
 727 -272 l 1,13,-1
 727 -727 l 1,14,-1
 636 -727 l 1,15,-1
 636 -818 l 1,16,-1
 181 -818 l 1,17,-1
 181 -727 l 1,18,-1
 90 -727 l 1,19,-1
 90 -272 l 1,0,-1
363 -272 m 1,20,-1
 363 -727 l 1,21,-1
 454 -727 l 1,22,-1
 454 -272 l 1,23,-1
 363 -272 l 1,20,-1
EndSplineSet
Validated: 5
EndChar

StartChar: ocircumflex
Encoding: 244 244 215
Width: 727
Flags: W
LayerCount: 2
Fore
SplineSet
90 -272 m 1,0,-1
 181 -272 l 1,1,-1
 181 -181 l 1,2,-1
 272 -181 l 1,3,-1
 272 -90 l 1,4,-1
 363 -90 l 1,5,-1
 363 -181 l 1,6,-1
 454 -181 l 1,7,-1
 454 -90 l 1,8,-1
 545 -90 l 1,9,-1
 545 -181 l 1,10,-1
 636 -181 l 1,11,-1
 636 -272 l 1,12,-1
 727 -272 l 1,13,-1
 727 -727 l 1,14,-1
 636 -727 l 1,15,-1
 636 -818 l 1,16,-1
 181 -818 l 1,17,-1
 181 -727 l 1,18,-1
 90 -727 l 1,19,-1
 90 -272 l 1,0,-1
363 0 m 1,20,-1
 454 0 l 1,21,-1
 454 -90 l 1,22,-1
 363 -90 l 1,23,-1
 363 0 l 1,20,-1
363 -272 m 1,24,-1
 363 -727 l 1,25,-1
 454 -727 l 1,26,-1
 454 -272 l 1,27,-1
 363 -272 l 1,24,-1
EndSplineSet
Validated: 5
EndChar

StartChar: otilde
Encoding: 245 245 216
Width: 727
Flags: W
LayerCount: 2
Fore
SplineSet
90 -272 m 1,0,-1
 181 -272 l 1,1,-1
 181 -181 l 1,2,-1
 272 -181 l 1,3,-1
 272 -90 l 1,4,-1
 363 -90 l 1,5,-1
 363 -181 l 1,6,-1
 454 -181 l 1,7,-1
 454 -90 l 1,8,-1
 545 -90 l 1,9,-1
 545 0 l 1,10,-1
 636 0 l 1,11,-1
 636 -90 l 1,12,-1
 545 -90 l 1,13,-1
 545 -181 l 1,14,-1
 636 -181 l 1,15,-1
 636 -272 l 1,16,-1
 727 -272 l 1,17,-1
 727 -727 l 1,18,-1
 636 -727 l 1,19,-1
 636 -818 l 1,20,-1
 181 -818 l 1,21,-1
 181 -727 l 1,22,-1
 90 -727 l 1,23,-1
 90 -272 l 1,0,-1
363 0 m 1,24,-1
 454 0 l 1,25,-1
 454 -90 l 1,26,-1
 363 -90 l 1,27,-1
 363 0 l 1,24,-1
363 -272 m 1,28,-1
 363 -727 l 1,29,-1
 454 -727 l 1,30,-1
 454 -272 l 1,31,-1
 363 -272 l 1,28,-1
EndSplineSet
Validated: 5
EndChar

StartChar: odieresis
Encoding: 246 246 217
Width: 727
Flags: W
LayerCount: 2
Fore
SplineSet
90 0 m 1,0,-1
 363 0 l 1,1,-1
 363 -90 l 1,2,-1
 90 -90 l 1,3,-1
 90 0 l 1,0,-1
90 -272 m 1,4,-1
 181 -272 l 1,5,-1
 181 -181 l 1,6,-1
 636 -181 l 1,7,-1
 636 -272 l 1,8,-1
 727 -272 l 1,9,-1
 727 -727 l 1,10,-1
 636 -727 l 1,11,-1
 636 -818 l 1,12,-1
 181 -818 l 1,13,-1
 181 -727 l 1,14,-1
 90 -727 l 1,15,-1
 90 -272 l 1,4,-1
363 -272 m 1,16,-1
 363 -727 l 1,17,-1
 454 -727 l 1,18,-1
 454 -272 l 1,19,-1
 363 -272 l 1,16,-1
454 0 m 1,20,-1
 727 0 l 1,21,-1
 727 -90 l 1,22,-1
 454 -90 l 1,23,-1
 454 0 l 1,20,-1
EndSplineSet
Validated: 1
EndChar

StartChar: divide
Encoding: 247 247 218
Width: 636
Flags: W
LayerCount: 2
Fore
SplineSet
90 -454 m 1,0,-1
 636 -454 l 1,1,-1
 636 -545 l 1,2,-1
 90 -545 l 1,3,-1
 90 -454 l 1,0,-1
272 -181 m 1,4,-1
 454 -181 l 1,5,-1
 454 -363 l 1,6,-1
 272 -363 l 1,7,-1
 272 -181 l 1,4,-1
272 -636 m 1,8,-1
 454 -636 l 1,9,-1
 454 -818 l 1,10,-1
 272 -818 l 1,11,-1
 272 -636 l 1,8,-1
EndSplineSet
Validated: 1
EndChar

StartChar: oslash
Encoding: 248 248 219
Width: 545
Flags: W
LayerCount: 2
Fore
SplineSet
90 -454 m 1,0,-1
 181 -454 l 1,1,-1
 181 -636 l 1,2,-1
 272 -636 l 1,3,-1
 272 -727 l 1,4,-1
 454 -727 l 1,5,-1
 454 -545 l 1,6,-1
 363 -545 l 1,7,-1
 363 -454 l 1,8,-1
 181 -454 l 1,9,-1
 181 -363 l 1,10,-1
 545 -363 l 1,11,-1
 545 -727 l 1,12,-1
 454 -727 l 1,13,-1
 454 -818 l 1,14,-1
 90 -818 l 1,15,-1
 90 -454 l 1,0,-1
272 -545 m 1,16,-1
 363 -545 l 1,17,-1
 363 -636 l 1,18,-1
 272 -636 l 1,19,-1
 272 -545 l 1,16,-1
EndSplineSet
Validated: 5
EndChar

StartChar: ugrave
Encoding: 249 249 220
Width: 727
Flags: W
LayerCount: 2
Fore
SplineSet
90 -181 m 1,0,-1
 363 -181 l 1,1,-1
 363 -727 l 1,2,-1
 454 -727 l 1,3,-1
 454 -181 l 1,4,-1
 363 -181 l 1,5,-1
 363 -90 l 1,6,-1
 454 -90 l 1,7,-1
 454 -181 l 1,8,-1
 727 -181 l 1,9,-1
 727 -727 l 1,10,-1
 636 -727 l 1,11,-1
 636 -818 l 1,12,-1
 181 -818 l 1,13,-1
 181 -727 l 1,14,-1
 90 -727 l 1,15,-1
 90 -181 l 1,0,-1
272 0 m 1,16,-1
 363 0 l 1,17,-1
 363 -90 l 1,18,-1
 272 -90 l 1,19,-1
 272 0 l 1,16,-1
EndSplineSet
Validated: 5
EndChar

StartChar: uacute
Encoding: 250 250 221
Width: 727
Flags: W
LayerCount: 2
Fore
SplineSet
90 -181 m 1,0,-1
 363 -181 l 1,1,-1
 363 -727 l 1,2,-1
 454 -727 l 1,3,-1
 454 -181 l 1,4,-1
 363 -181 l 1,5,-1
 363 -90 l 1,6,-1
 454 -90 l 1,7,-1
 454 0 l 1,8,-1
 545 0 l 1,9,-1
 545 -90 l 1,10,-1
 454 -90 l 1,11,-1
 454 -181 l 1,12,-1
 727 -181 l 1,13,-1
 727 -727 l 1,14,-1
 636 -727 l 1,15,-1
 636 -818 l 1,16,-1
 181 -818 l 1,17,-1
 181 -727 l 1,18,-1
 90 -727 l 1,19,-1
 90 -181 l 1,0,-1
EndSplineSet
Validated: 5
EndChar

StartChar: ucircumflex
Encoding: 251 251 222
Width: 727
Flags: W
LayerCount: 2
Fore
SplineSet
90 -181 m 1,0,-1
 272 -181 l 1,1,-1
 272 -90 l 1,2,-1
 363 -90 l 1,3,-1
 363 -727 l 1,4,-1
 454 -727 l 1,5,-1
 454 -90 l 1,6,-1
 545 -90 l 1,7,-1
 545 -181 l 1,8,-1
 727 -181 l 1,9,-1
 727 -727 l 1,10,-1
 636 -727 l 1,11,-1
 636 -818 l 1,12,-1
 181 -818 l 1,13,-1
 181 -727 l 1,14,-1
 90 -727 l 1,15,-1
 90 -181 l 1,0,-1
363 0 m 1,16,-1
 454 0 l 1,17,-1
 454 -90 l 1,18,-1
 363 -90 l 1,19,-1
 363 0 l 1,16,-1
EndSplineSet
Validated: 5
EndChar

StartChar: udieresis
Encoding: 252 252 223
Width: 727
Flags: W
LayerCount: 2
Fore
SplineSet
90 0 m 1,0,-1
 363 0 l 1,1,-1
 363 -90 l 1,2,-1
 90 -90 l 1,3,-1
 90 0 l 1,0,-1
90 -181 m 1,4,-1
 363 -181 l 1,5,-1
 363 -727 l 1,6,-1
 454 -727 l 1,7,-1
 454 -181 l 1,8,-1
 727 -181 l 1,9,-1
 727 -727 l 1,10,-1
 636 -727 l 1,11,-1
 636 -818 l 1,12,-1
 181 -818 l 1,13,-1
 181 -727 l 1,14,-1
 90 -727 l 1,15,-1
 90 -181 l 1,4,-1
454 0 m 1,16,-1
 727 0 l 1,17,-1
 727 -90 l 1,18,-1
 454 -90 l 1,19,-1
 454 0 l 1,16,-1
EndSplineSet
Validated: 1
EndChar

StartChar: yacute
Encoding: 253 253 224
Width: 727
Flags: W
LayerCount: 2
Fore
SplineSet
90 -181 m 1,0,-1
 272 -181 l 1,1,-1
 272 -90 l 1,2,-1
 363 -90 l 1,3,-1
 363 -363 l 1,4,-1
 454 -363 l 1,5,-1
 454 -181 l 1,6,-1
 727 -181 l 1,7,-1
 727 -727 l 1,8,-1
 636 -727 l 1,9,-1
 636 -818 l 1,10,-1
 90 -818 l 1,11,-1
 90 -636 l 1,12,-1
 363 -636 l 1,13,-1
 363 -727 l 1,14,-1
 454 -727 l 1,15,-1
 454 -545 l 1,16,-1
 181 -545 l 1,17,-1
 181 -454 l 1,18,-1
 90 -454 l 1,19,-1
 90 -181 l 1,0,-1
363 0 m 1,20,-1
 454 0 l 1,21,-1
 454 -90 l 1,22,-1
 363 -90 l 1,23,-1
 363 0 l 1,20,-1
EndSplineSet
Validated: 5
EndChar

StartChar: thorn
Encoding: 254 254 225
Width: 454
Flags: W
LayerCount: 2
Fore
SplineSet
0 -272 m 1,0,-1
 181 -272 l 1,1,-1
 181 -363 l 1,2,-1
 363 -363 l 1,3,-1
 363 -454 l 1,4,-1
 181 -454 l 1,5,-1
 181 -727 l 1,6,-1
 363 -727 l 1,7,-1
 363 -454 l 1,8,-1
 454 -454 l 1,9,-1
 454 -727 l 1,10,-1
 363 -727 l 1,11,-1
 363 -818 l 1,12,-1
 181 -818 l 1,13,-1
 181 -909 l 1,14,-1
 272 -909 l 1,15,-1
 272 -1000 l 1,16,-1
 0 -1000 l 1,17,-1
 0 -909 l 1,18,-1
 90 -909 l 1,19,-1
 90 -363 l 1,20,-1
 0 -363 l 1,21,-1
 0 -272 l 1,0,-1
EndSplineSet
Validated: 5
EndChar
